M48
; DRILL file {KiCad (6.0.2)} date Mon Oct 10 11:28:10 2022
; FORMAT={-:-/ absolute / metric / decimal}
; #@! TF.CreationDate,2022-10-10T11:28:10-07:00
; #@! TF.GenerationSoftware,Kicad,Pcbnew,(6.0.2)
; #@! TF.FileFunction,Plated,1,4,PTH
FMAT,2
METRIC
; #@! TA.AperFunction,Plated,PTH,ViaDrill
T1C0.400
; #@! TA.AperFunction,Plated,PTH,ComponentDrill
T2C0.600
; #@! TA.AperFunction,Plated,PTH,ComponentDrill
T3C0.800
; #@! TA.AperFunction,Plated,PTH,ComponentDrill
T4C0.850
; #@! TA.AperFunction,Plated,PTH,ComponentDrill
T5C1.000
; #@! TA.AperFunction,Plated,PTH,ComponentDrill
T6C1.500
; #@! TA.AperFunction,Plated,PTH,ComponentDrill
T7C1.700
; #@! TA.AperFunction,Plated,PTH,ComponentDrill
T8C1.800
; #@! TA.AperFunction,Plated,PTH,ComponentDrill
T9C1.900
; #@! TA.AperFunction,Plated,PTH,ComponentDrill
T10C2.700
; #@! TA.AperFunction,Plated,PTH,ComponentDrill
T11C5.500
%
G90
G05
T1
X105.715Y-84.455
X108.026Y-82.728
X109.296Y-82.728
X109.819Y-88.631
X110.617Y-82.713
X111.582Y-43.815
X113.172Y-82.789
X114.188Y-89.139
X115.24Y-92.608
X115.9Y-112.446
X116.865Y-46.99
X118.339Y-78.664
X119.431Y-79.756
X120.548Y-81.051
X122.263Y-78.664
X122.276Y-81.305
X124.79Y-74.524
X127.569Y-79.157
X127.61Y-81.356
X130.912Y-74.244
X132.156Y-104.216
X134.137Y-76.556
X134.62Y-81.356
X134.772Y-84.176
X135.306Y-87.503
X137.033Y-82.829
X137.262Y-50.775
X137.287Y-52.375
X137.287Y-54.178
X137.363Y-87.071
X138.176Y-49.276
X138.709Y-57.455
X139.954Y-49.124
X140.183Y-68.758
X140.894Y-90.119
X140.945Y-81.839
X140.945Y-86.309
X141.554Y-67.818
X141.903Y-112.329
X141.961Y-79.248
X142.24Y-74.854
X143.078Y-32.283
X143.173Y-112.329
X144.297Y-35.814
X144.443Y-112.329
X144.78Y-46.228
X145.713Y-112.329
X146.837Y-64.77
X146.914Y-46.279
X146.914Y-55.829
X146.983Y-113.599
X146.983Y-112.329
X147.32Y-80.01
X147.32Y-87.503
X148.615Y-59.512
X148.888Y-110.424
X149.098Y-46.279
X149.225Y-55.804
X149.86Y-73.609
X150.495Y-79.578
X150.647Y-81.356
X151.181Y-72.746
X151.232Y-46.279
X151.428Y-110.424
X151.689Y-62.382
X152.425Y-27.864
X153.187Y-63.957
X153.289Y-66.497
X153.314Y-62.357
X153.518Y-46.279
X153.695Y-53.518
X153.721Y-27.889
X153.772Y-73.66
X154.661Y-63.932
X154.864Y-65.354
X155.194Y-74.346
X155.55Y-46.279
X155.677Y-59.334
X155.702Y-57.861
X155.873Y-114.869
X155.905Y-82.702
X155.905Y-116.51
X155.981Y-91.161
X156.032Y-92.151
X156.439Y-72.873
X156.489Y-61.773
X157.143Y-114.869
X157.531Y-59.258
X157.632Y-57.861
X157.709Y-71.399
X157.836Y-75.946
X158.394Y-62.992
X158.413Y-114.869
X158.42Y-64.516
X158.445Y-66.116
X158.75Y-48.793
X158.801Y-88.798
X158.979Y-97.942
X159.156Y-57.887
X159.36Y-59.258
X159.741Y-64.516
X159.766Y-62.992
X159.766Y-66.091
X160.122Y-97.917
X162.306Y-90.043
X162.357Y-93.091
X163.728Y-55.931
X163.779Y-54.635
X163.779Y-71.272
X163.906Y-78.334
X164.795Y-63.5
X165.659Y-81.585
X165.684Y-80.467
X165.71Y-69.139
X165.887Y-59.741
X166.065Y-62.281
X166.624Y-58.42
X167.005Y-91.313
X167.03Y-93.853
X167.081Y-57.15
X167.183Y-96.596
X167.183Y-99.111
X167.284Y-86.436
X167.386Y-83.896
X167.513Y-81.102
X167.538Y-88.9
X167.792Y-78.689
X170.3Y-74.593
X173.05Y-83.795
X175.514Y-74.371
X176.505Y-59.385
X176.505Y-67.31
X178.537Y-78.74
X178.537Y-81.331
X178.816Y-93.955
X178.867Y-91.44
X178.918Y-96.571
X178.918Y-99.111
X179.426Y-88.951
X180.34Y-49.022
X180.34Y-50.546
X180.34Y-52.324
X180.34Y-54.356
X180.34Y-56.388
X180.34Y-58.166
X180.34Y-59.944
X180.34Y-61.468
X180.34Y-63.246
X180.34Y-67.056
X180.34Y-68.58
X180.34Y-70.104
X180.34Y-71.628
X180.34Y-73.152
X180.543Y-86.411
X186.258Y-83.668
X186.69Y-54.61
X186.69Y-56.388
X186.69Y-58.166
X186.69Y-59.944
X186.69Y-61.468
X186.69Y-63.246
X186.69Y-70.104
X186.69Y-71.628
X186.69Y-73.152
X192.037Y-71.641
X202.311Y-78.181
X205.406Y-86.104
T2
X102.155Y-64.897
X102.155Y-101.834
X103.353Y-61.97
X103.353Y-67.824
X103.353Y-98.907
X103.353Y-104.76
X106.28Y-60.772
X106.28Y-69.022
X106.28Y-97.709
X106.28Y-105.959
X109.207Y-61.97
X109.207Y-67.824
X109.207Y-98.907
X109.207Y-104.76
X110.405Y-64.897
X110.405Y-101.834
X128.273Y-38.77
X128.273Y-127.952
X129.471Y-35.843
X129.471Y-41.697
X129.471Y-125.025
X129.471Y-130.879
X132.398Y-34.645
X132.398Y-42.895
X132.398Y-123.827
X132.398Y-132.077
X135.325Y-35.843
X135.325Y-41.697
X135.325Y-125.025
X135.325Y-130.879
X136.523Y-38.77
X136.523Y-127.952
X165.205Y-38.77
X165.21Y-127.951
X166.403Y-35.843
X166.403Y-41.697
X166.408Y-125.024
X166.408Y-130.878
X169.33Y-34.645
X169.33Y-42.895
X169.335Y-123.826
X169.335Y-132.076
X172.257Y-35.843
X172.257Y-41.697
X172.262Y-125.024
X172.262Y-130.878
X173.455Y-38.77
X173.46Y-127.951
X191.328Y-64.897
X191.328Y-101.834
X192.526Y-61.97
X192.526Y-67.824
X192.526Y-98.907
X192.526Y-104.76
X195.453Y-60.772
X195.453Y-69.022
X195.453Y-97.709
X195.453Y-105.959
X198.38Y-61.97
X198.38Y-67.824
X198.38Y-98.907
X198.38Y-104.76
X199.578Y-64.897
X199.578Y-101.834
T3
X116.702Y-40.678
X118.234Y-39.392
X135.144Y-107.163
X137.144Y-107.163
T4
X109.909Y-54.11
X113.444Y-50.574
T5
X162.8Y-120.26
X162.8Y-122.8
T6
X187.706Y-47.752
T7
X184.128Y-47.439
X187.393Y-51.33
X188.019Y-44.174
X191.284Y-48.065
T8
X144.38Y-129.317
X157.88Y-129.317
T9
X180.296Y-121.05
X189.63Y-111.716
T10
X147.53Y-123.317
X154.73Y-123.317
T11
X106.28Y-64.897
X106.28Y-101.834
X132.398Y-38.77
X132.398Y-127.952
X169.33Y-38.77
X169.335Y-127.951
X195.453Y-64.897
X195.453Y-101.834
T2
G00X107.54Y-53.155
M15
G01X107.045Y-52.66
M16
G05
G00X111.995Y-47.711
M15
G01X112.49Y-48.206
M16
G05
T0
M30
