%TF.GenerationSoftware,KiCad,Pcbnew,(6.0.2)*%
%TF.CreationDate,2022-10-10T11:28:08-07:00*%
%TF.ProjectId,AvionicsV0,4176696f-6e69-4637-9356-302e6b696361,rev?*%
%TF.SameCoordinates,Original*%
%TF.FileFunction,Legend,Top*%
%TF.FilePolarity,Positive*%
%FSLAX46Y46*%
G04 Gerber Fmt 4.6, Leading zero omitted, Abs format (unit mm)*
G04 Created by KiCad (PCBNEW (6.0.2)) date 2022-10-10 11:28:08*
%MOMM*%
%LPD*%
G01*
G04 APERTURE LIST*
%ADD10C,0.254049*%
%ADD11C,0.120000*%
%ADD12C,0.254050*%
%ADD13C,0.150000*%
%ADD14C,0.100000*%
%ADD15C,0.254000*%
%ADD16C,0.200000*%
%ADD17C,0.127000*%
%ADD18C,0.140000*%
%ADD19C,0.152400*%
G04 APERTURE END LIST*
D10*
X112181423Y-83729299D02*
G75*
G03*
X112181423Y-83729299I-127024J0D01*
G01*
D11*
X133654800Y-108661200D02*
X138658600Y-108635800D01*
X161721800Y-118491000D02*
X160629600Y-118491000D01*
X138658600Y-108635800D02*
X138658600Y-107899200D01*
X133654800Y-107899200D02*
X133654800Y-108661200D01*
X160629600Y-124739400D02*
X161925000Y-124739400D01*
X120319800Y-39598600D02*
X119481600Y-38557200D01*
X115722400Y-41833800D02*
X116560600Y-42799000D01*
D12*
X141986025Y-82219800D02*
G75*
G03*
X141986025Y-82219800I-127025J0D01*
G01*
D10*
X163220424Y-82194400D02*
G75*
G03*
X163220424Y-82194400I-127024J0D01*
G01*
D11*
X160629600Y-118491000D02*
X160629600Y-124739400D01*
X116560600Y-42799000D02*
X120319800Y-39598600D01*
D13*
X117747078Y-42319970D02*
X118267430Y-42940101D01*
X118365126Y-42982449D01*
X118432213Y-42988318D01*
X118535778Y-42963578D01*
X118681692Y-42841143D01*
X118724039Y-42743447D01*
X118729909Y-42676359D01*
X118705169Y-42572794D01*
X118184817Y-41952663D01*
X119125301Y-42406748D02*
X119265345Y-42351400D01*
X119447736Y-42198355D01*
X119490084Y-42100659D01*
X119495953Y-42033572D01*
X119471214Y-41930006D01*
X119409996Y-41857050D01*
X119312300Y-41814702D01*
X119245212Y-41808832D01*
X119141647Y-41833572D01*
X118965125Y-41919529D01*
X118861559Y-41944269D01*
X118794472Y-41938400D01*
X118696776Y-41896052D01*
X118635558Y-41823095D01*
X118610818Y-41719530D01*
X118616688Y-41652443D01*
X118659035Y-41554746D01*
X118841427Y-41401702D01*
X118981471Y-41346353D01*
X119840604Y-41184915D02*
X119980648Y-41129567D01*
X120047735Y-41135436D01*
X120145431Y-41177784D01*
X120237258Y-41287219D01*
X120261998Y-41390784D01*
X120256128Y-41457871D01*
X120213781Y-41555567D01*
X119921954Y-41800439D01*
X119279167Y-41034394D01*
X119534515Y-40820132D01*
X119638080Y-40795392D01*
X119705167Y-40801262D01*
X119802864Y-40843609D01*
X119864081Y-40916566D01*
X119888821Y-41020132D01*
X119882952Y-41087219D01*
X119840604Y-41184915D01*
X119585256Y-41399178D01*
X134021771Y-109334171D02*
X134164628Y-109381790D01*
X134212247Y-109429409D01*
X134259866Y-109524647D01*
X134259866Y-109667504D01*
X134212247Y-109762742D01*
X134164628Y-109810361D01*
X134069390Y-109857980D01*
X133688438Y-109857980D01*
X133688438Y-108857980D01*
X134021771Y-108857980D01*
X134117009Y-108905600D01*
X134164628Y-108953219D01*
X134212247Y-109048457D01*
X134212247Y-109143695D01*
X134164628Y-109238933D01*
X134117009Y-109286552D01*
X134021771Y-109334171D01*
X133688438Y-109334171D01*
X135117009Y-109857980D02*
X135117009Y-109334171D01*
X135069390Y-109238933D01*
X134974152Y-109191314D01*
X134783676Y-109191314D01*
X134688438Y-109238933D01*
X135117009Y-109810361D02*
X135021771Y-109857980D01*
X134783676Y-109857980D01*
X134688438Y-109810361D01*
X134640819Y-109715123D01*
X134640819Y-109619885D01*
X134688438Y-109524647D01*
X134783676Y-109477028D01*
X135021771Y-109477028D01*
X135117009Y-109429409D01*
X135450342Y-109191314D02*
X135831295Y-109191314D01*
X135593200Y-108857980D02*
X135593200Y-109715123D01*
X135640819Y-109810361D01*
X135736057Y-109857980D01*
X135831295Y-109857980D01*
X136021771Y-109191314D02*
X136402723Y-109191314D01*
X136164628Y-108857980D02*
X136164628Y-109715123D01*
X136212247Y-109810361D01*
X136307485Y-109857980D01*
X136402723Y-109857980D01*
X137117009Y-109810361D02*
X137021771Y-109857980D01*
X136831295Y-109857980D01*
X136736057Y-109810361D01*
X136688438Y-109715123D01*
X136688438Y-109334171D01*
X136736057Y-109238933D01*
X136831295Y-109191314D01*
X137021771Y-109191314D01*
X137117009Y-109238933D01*
X137164628Y-109334171D01*
X137164628Y-109429409D01*
X136688438Y-109524647D01*
X137593200Y-109857980D02*
X137593200Y-109191314D01*
X137593200Y-109381790D02*
X137640819Y-109286552D01*
X137688438Y-109238933D01*
X137783676Y-109191314D01*
X137878914Y-109191314D01*
X138117009Y-109191314D02*
X138355104Y-109857980D01*
X138593200Y-109191314D02*
X138355104Y-109857980D01*
X138259866Y-110096076D01*
X138212247Y-110143695D01*
X138117009Y-110191314D01*
X135283676Y-110467980D02*
X135902723Y-110467980D01*
X135569390Y-110848933D01*
X135712247Y-110848933D01*
X135807485Y-110896552D01*
X135855104Y-110944171D01*
X135902723Y-111039409D01*
X135902723Y-111277504D01*
X135855104Y-111372742D01*
X135807485Y-111420361D01*
X135712247Y-111467980D01*
X135426533Y-111467980D01*
X135331295Y-111420361D01*
X135283676Y-111372742D01*
X136236057Y-110801314D02*
X136474152Y-111467980D01*
X136712247Y-110801314D01*
X136997961Y-110467980D02*
X137617009Y-110467980D01*
X137283676Y-110848933D01*
X137426533Y-110848933D01*
X137521771Y-110896552D01*
X137569390Y-110944171D01*
X137617009Y-111039409D01*
X137617009Y-111277504D01*
X137569390Y-111372742D01*
X137521771Y-111420361D01*
X137426533Y-111467980D01*
X137140819Y-111467980D01*
X137045580Y-111420361D01*
X136997961Y-111372742D01*
D14*
X154365580Y-55412485D02*
X154532247Y-55412485D01*
X154603676Y-55674390D02*
X154365580Y-55674390D01*
X154365580Y-55174390D01*
X154603676Y-55174390D01*
X154794152Y-55650580D02*
X154865580Y-55674390D01*
X154984628Y-55674390D01*
X155032247Y-55650580D01*
X155056057Y-55626771D01*
X155079866Y-55579152D01*
X155079866Y-55531533D01*
X155056057Y-55483914D01*
X155032247Y-55460104D01*
X154984628Y-55436295D01*
X154889390Y-55412485D01*
X154841771Y-55388676D01*
X154817961Y-55364866D01*
X154794152Y-55317247D01*
X154794152Y-55269628D01*
X154817961Y-55222009D01*
X154841771Y-55198200D01*
X154889390Y-55174390D01*
X155008438Y-55174390D01*
X155079866Y-55198200D01*
X155270342Y-55531533D02*
X155508438Y-55531533D01*
X155222723Y-55674390D02*
X155389390Y-55174390D01*
X155556057Y-55674390D01*
X155722723Y-55626771D02*
X155746533Y-55650580D01*
X155722723Y-55674390D01*
X155698914Y-55650580D01*
X155722723Y-55626771D01*
X155722723Y-55674390D01*
X155722723Y-55364866D02*
X155746533Y-55388676D01*
X155722723Y-55412485D01*
X155698914Y-55388676D01*
X155722723Y-55364866D01*
X155722723Y-55412485D01*
X156341771Y-55674390D02*
X156341771Y-55174390D01*
X156508438Y-55531533D01*
X156675104Y-55174390D01*
X156675104Y-55674390D01*
X157103676Y-55650580D02*
X157056057Y-55674390D01*
X156960819Y-55674390D01*
X156913200Y-55650580D01*
X156889390Y-55602961D01*
X156889390Y-55412485D01*
X156913200Y-55364866D01*
X156960819Y-55341057D01*
X157056057Y-55341057D01*
X157103676Y-55364866D01*
X157127485Y-55412485D01*
X157127485Y-55460104D01*
X156889390Y-55507723D01*
X157556057Y-55341057D02*
X157556057Y-55745819D01*
X157532247Y-55793438D01*
X157508438Y-55817247D01*
X157460819Y-55841057D01*
X157389390Y-55841057D01*
X157341771Y-55817247D01*
X157556057Y-55650580D02*
X157508438Y-55674390D01*
X157413200Y-55674390D01*
X157365580Y-55650580D01*
X157341771Y-55626771D01*
X157317961Y-55579152D01*
X157317961Y-55436295D01*
X157341771Y-55388676D01*
X157365580Y-55364866D01*
X157413200Y-55341057D01*
X157508438Y-55341057D01*
X157556057Y-55364866D01*
X158008438Y-55674390D02*
X158008438Y-55412485D01*
X157984628Y-55364866D01*
X157937009Y-55341057D01*
X157841771Y-55341057D01*
X157794152Y-55364866D01*
X158008438Y-55650580D02*
X157960819Y-55674390D01*
X157841771Y-55674390D01*
X157794152Y-55650580D01*
X157770342Y-55602961D01*
X157770342Y-55555342D01*
X157794152Y-55507723D01*
X157841771Y-55483914D01*
X157960819Y-55483914D01*
X158008438Y-55460104D01*
X158246533Y-55341057D02*
X158246533Y-55674390D01*
X158246533Y-55388676D02*
X158270342Y-55364866D01*
X158317961Y-55341057D01*
X158389390Y-55341057D01*
X158437009Y-55364866D01*
X158460819Y-55412485D01*
X158460819Y-55674390D01*
D13*
X159618371Y-123661228D02*
X159665990Y-123518371D01*
X159713609Y-123470752D01*
X159808847Y-123423133D01*
X159951704Y-123423133D01*
X160046942Y-123470752D01*
X160094561Y-123518371D01*
X160142180Y-123613609D01*
X160142180Y-123994561D01*
X159142180Y-123994561D01*
X159142180Y-123661228D01*
X159189800Y-123565990D01*
X159237419Y-123518371D01*
X159332657Y-123470752D01*
X159427895Y-123470752D01*
X159523133Y-123518371D01*
X159570752Y-123565990D01*
X159618371Y-123661228D01*
X159618371Y-123994561D01*
X160142180Y-122565990D02*
X159618371Y-122565990D01*
X159523133Y-122613609D01*
X159475514Y-122708847D01*
X159475514Y-122899323D01*
X159523133Y-122994561D01*
X160094561Y-122565990D02*
X160142180Y-122661228D01*
X160142180Y-122899323D01*
X160094561Y-122994561D01*
X159999323Y-123042180D01*
X159904085Y-123042180D01*
X159808847Y-122994561D01*
X159761228Y-122899323D01*
X159761228Y-122661228D01*
X159713609Y-122565990D01*
X159475514Y-122232657D02*
X159475514Y-121851704D01*
X159142180Y-122089800D02*
X159999323Y-122089800D01*
X160094561Y-122042180D01*
X160142180Y-121946942D01*
X160142180Y-121851704D01*
X159475514Y-121661228D02*
X159475514Y-121280276D01*
X159142180Y-121518371D02*
X159999323Y-121518371D01*
X160094561Y-121470752D01*
X160142180Y-121375514D01*
X160142180Y-121280276D01*
X160094561Y-120565990D02*
X160142180Y-120661228D01*
X160142180Y-120851704D01*
X160094561Y-120946942D01*
X159999323Y-120994561D01*
X159618371Y-120994561D01*
X159523133Y-120946942D01*
X159475514Y-120851704D01*
X159475514Y-120661228D01*
X159523133Y-120565990D01*
X159618371Y-120518371D01*
X159713609Y-120518371D01*
X159808847Y-120994561D01*
X160142180Y-120089800D02*
X159475514Y-120089800D01*
X159665990Y-120089800D02*
X159570752Y-120042180D01*
X159523133Y-119994561D01*
X159475514Y-119899323D01*
X159475514Y-119804085D01*
X159475514Y-119565990D02*
X160142180Y-119327895D01*
X159475514Y-119089800D02*
X160142180Y-119327895D01*
X160380276Y-119423133D01*
X160427895Y-119470752D01*
X160475514Y-119565990D01*
D15*
%TO.C,IC2*%
X122660384Y-46601414D02*
X121844043Y-45628537D01*
X123601841Y-45653545D02*
X123594387Y-45738746D01*
X123494278Y-45901694D01*
X123401623Y-45979440D01*
X123223767Y-46049733D01*
X123053365Y-46034825D01*
X122929291Y-45981043D01*
X122727471Y-45834607D01*
X122610850Y-45695624D01*
X122501685Y-45471441D01*
X122470265Y-45339913D01*
X122485173Y-45169511D01*
X122585282Y-45006564D01*
X122677937Y-44928817D01*
X122855793Y-44858525D01*
X122940994Y-44865979D01*
X123311613Y-44554992D02*
X123319068Y-44469791D01*
X123372849Y-44345717D01*
X123604486Y-44151350D01*
X123736015Y-44119931D01*
X123821215Y-44127385D01*
X123945290Y-44181167D01*
X124023036Y-44273822D01*
X124093329Y-44451677D01*
X124003880Y-45474087D01*
X124606136Y-44968733D01*
D13*
%TO.C,J13*%
X183680625Y-44214140D02*
X184139759Y-44761314D01*
X184195107Y-44901358D01*
X184183368Y-45035533D01*
X184104542Y-45163838D01*
X184031586Y-45225056D01*
X185089457Y-44337397D02*
X184651717Y-44704704D01*
X184870587Y-44521050D02*
X184227799Y-43755006D01*
X184246669Y-43925659D01*
X184234931Y-44059833D01*
X184192583Y-44157529D01*
X184702017Y-43357090D02*
X185176235Y-42959174D01*
X185165758Y-43465263D01*
X185275193Y-43373436D01*
X185378759Y-43348696D01*
X185445846Y-43354566D01*
X185543542Y-43396913D01*
X185696587Y-43579305D01*
X185721327Y-43682870D01*
X185715457Y-43749958D01*
X185673110Y-43847654D01*
X185454240Y-44031307D01*
X185350674Y-44056047D01*
X185283587Y-44050178D01*
%TO.C,J4*%
X162466666Y-117382380D02*
X162466666Y-118096666D01*
X162419047Y-118239523D01*
X162323809Y-118334761D01*
X162180952Y-118382380D01*
X162085714Y-118382380D01*
X163371428Y-117715714D02*
X163371428Y-118382380D01*
X163133333Y-117334761D02*
X162895238Y-118049047D01*
X163514285Y-118049047D01*
%TO.C,C11*%
X139785142Y-84753857D02*
X139832761Y-84801476D01*
X139880380Y-84944333D01*
X139880380Y-85039571D01*
X139832761Y-85182428D01*
X139737523Y-85277666D01*
X139642285Y-85325285D01*
X139451809Y-85372904D01*
X139308952Y-85372904D01*
X139118476Y-85325285D01*
X139023238Y-85277666D01*
X138928000Y-85182428D01*
X138880380Y-85039571D01*
X138880380Y-84944333D01*
X138928000Y-84801476D01*
X138975619Y-84753857D01*
X139880380Y-83801476D02*
X139880380Y-84372904D01*
X139880380Y-84087190D02*
X138880380Y-84087190D01*
X139023238Y-84182428D01*
X139118476Y-84277666D01*
X139166095Y-84372904D01*
X139880380Y-82849095D02*
X139880380Y-83420523D01*
X139880380Y-83134809D02*
X138880380Y-83134809D01*
X139023238Y-83230047D01*
X139118476Y-83325285D01*
X139166095Y-83420523D01*
%TO.C,R10*%
X170680142Y-120086380D02*
X170346809Y-119610190D01*
X170108714Y-120086380D02*
X170108714Y-119086380D01*
X170489666Y-119086380D01*
X170584904Y-119134000D01*
X170632523Y-119181619D01*
X170680142Y-119276857D01*
X170680142Y-119419714D01*
X170632523Y-119514952D01*
X170584904Y-119562571D01*
X170489666Y-119610190D01*
X170108714Y-119610190D01*
X171632523Y-120086380D02*
X171061095Y-120086380D01*
X171346809Y-120086380D02*
X171346809Y-119086380D01*
X171251571Y-119229238D01*
X171156333Y-119324476D01*
X171061095Y-119372095D01*
X172251571Y-119086380D02*
X172346809Y-119086380D01*
X172442047Y-119134000D01*
X172489666Y-119181619D01*
X172537285Y-119276857D01*
X172584904Y-119467333D01*
X172584904Y-119705428D01*
X172537285Y-119895904D01*
X172489666Y-119991142D01*
X172442047Y-120038761D01*
X172346809Y-120086380D01*
X172251571Y-120086380D01*
X172156333Y-120038761D01*
X172108714Y-119991142D01*
X172061095Y-119895904D01*
X172013476Y-119705428D01*
X172013476Y-119467333D01*
X172061095Y-119276857D01*
X172108714Y-119181619D01*
X172156333Y-119134000D01*
X172251571Y-119086380D01*
%TO.C,C15*%
X204050942Y-92196257D02*
X204098561Y-92243876D01*
X204146180Y-92386733D01*
X204146180Y-92481971D01*
X204098561Y-92624828D01*
X204003323Y-92720066D01*
X203908085Y-92767685D01*
X203717609Y-92815304D01*
X203574752Y-92815304D01*
X203384276Y-92767685D01*
X203289038Y-92720066D01*
X203193800Y-92624828D01*
X203146180Y-92481971D01*
X203146180Y-92386733D01*
X203193800Y-92243876D01*
X203241419Y-92196257D01*
X204146180Y-91243876D02*
X204146180Y-91815304D01*
X204146180Y-91529590D02*
X203146180Y-91529590D01*
X203289038Y-91624828D01*
X203384276Y-91720066D01*
X203431895Y-91815304D01*
X203146180Y-90339114D02*
X203146180Y-90815304D01*
X203622371Y-90862923D01*
X203574752Y-90815304D01*
X203527133Y-90720066D01*
X203527133Y-90481971D01*
X203574752Y-90386733D01*
X203622371Y-90339114D01*
X203717609Y-90291495D01*
X203955704Y-90291495D01*
X204050942Y-90339114D01*
X204098561Y-90386733D01*
X204146180Y-90481971D01*
X204146180Y-90720066D01*
X204098561Y-90815304D01*
X204050942Y-90862923D01*
%TO.C,R21*%
X111487741Y-91115879D02*
X111154408Y-90639689D01*
X110916313Y-91115879D02*
X110916313Y-90115879D01*
X111297265Y-90115879D01*
X111392503Y-90163499D01*
X111440122Y-90211118D01*
X111487741Y-90306356D01*
X111487741Y-90449213D01*
X111440122Y-90544451D01*
X111392503Y-90592070D01*
X111297265Y-90639689D01*
X110916313Y-90639689D01*
X111868694Y-90211118D02*
X111916313Y-90163499D01*
X112011551Y-90115879D01*
X112249646Y-90115879D01*
X112344884Y-90163499D01*
X112392503Y-90211118D01*
X112440122Y-90306356D01*
X112440122Y-90401594D01*
X112392503Y-90544451D01*
X111821075Y-91115879D01*
X112440122Y-91115879D01*
X113392503Y-91115879D02*
X112821075Y-91115879D01*
X113106789Y-91115879D02*
X113106789Y-90115879D01*
X113011551Y-90258737D01*
X112916313Y-90353975D01*
X112821075Y-90401594D01*
%TO.C,R5*%
X156027380Y-47791666D02*
X155551190Y-48125000D01*
X156027380Y-48363095D02*
X155027380Y-48363095D01*
X155027380Y-47982142D01*
X155075000Y-47886904D01*
X155122619Y-47839285D01*
X155217857Y-47791666D01*
X155360714Y-47791666D01*
X155455952Y-47839285D01*
X155503571Y-47886904D01*
X155551190Y-47982142D01*
X155551190Y-48363095D01*
X155027380Y-46886904D02*
X155027380Y-47363095D01*
X155503571Y-47410714D01*
X155455952Y-47363095D01*
X155408333Y-47267857D01*
X155408333Y-47029761D01*
X155455952Y-46934523D01*
X155503571Y-46886904D01*
X155598809Y-46839285D01*
X155836904Y-46839285D01*
X155932142Y-46886904D01*
X155979761Y-46934523D01*
X156027380Y-47029761D01*
X156027380Y-47267857D01*
X155979761Y-47363095D01*
X155932142Y-47410714D01*
%TO.C,U3*%
X158819867Y-91317179D02*
X158819867Y-91836670D01*
X158850425Y-91897787D01*
X158880984Y-91928345D01*
X158942100Y-91958903D01*
X159064333Y-91958903D01*
X159125450Y-91928345D01*
X159156008Y-91897787D01*
X159186566Y-91836670D01*
X159186566Y-91317179D01*
X159431033Y-91317179D02*
X159828290Y-91317179D01*
X159614382Y-91561646D01*
X159706057Y-91561646D01*
X159767174Y-91592204D01*
X159797732Y-91622762D01*
X159828290Y-91683879D01*
X159828290Y-91836670D01*
X159797732Y-91897787D01*
X159767174Y-91928345D01*
X159706057Y-91958903D01*
X159522708Y-91958903D01*
X159461591Y-91928345D01*
X159431033Y-91897787D01*
%TO.C,J3*%
X119821584Y-38489898D02*
X120368758Y-38030764D01*
X120508802Y-37975416D01*
X120642976Y-37987155D01*
X120771282Y-38065981D01*
X120832499Y-38138937D01*
X119576712Y-38198072D02*
X119178796Y-37723854D01*
X119684885Y-37734331D01*
X119593058Y-37624896D01*
X119568319Y-37521330D01*
X119574188Y-37454243D01*
X119616536Y-37356547D01*
X119798927Y-37203502D01*
X119902493Y-37178763D01*
X119969580Y-37184632D01*
X120067276Y-37226980D01*
X120250930Y-37445849D01*
X120275669Y-37549415D01*
X120269800Y-37616502D01*
D15*
%TO.C,J7*%
X126837923Y-88205733D02*
X127745066Y-88205733D01*
X127926495Y-88266209D01*
X128047447Y-88387161D01*
X128107923Y-88568590D01*
X128107923Y-88689542D01*
X126837923Y-87721923D02*
X126837923Y-86875257D01*
X128107923Y-87419542D01*
D13*
%TO.C,C17*%
X164695142Y-84666057D02*
X164742761Y-84713676D01*
X164790380Y-84856533D01*
X164790380Y-84951771D01*
X164742761Y-85094628D01*
X164647523Y-85189866D01*
X164552285Y-85237485D01*
X164361809Y-85285104D01*
X164218952Y-85285104D01*
X164028476Y-85237485D01*
X163933238Y-85189866D01*
X163838000Y-85094628D01*
X163790380Y-84951771D01*
X163790380Y-84856533D01*
X163838000Y-84713676D01*
X163885619Y-84666057D01*
X164790380Y-83713676D02*
X164790380Y-84285104D01*
X164790380Y-83999390D02*
X163790380Y-83999390D01*
X163933238Y-84094628D01*
X164028476Y-84189866D01*
X164076095Y-84285104D01*
X163790380Y-83380342D02*
X163790380Y-82713676D01*
X164790380Y-83142247D01*
%TO.C,R14*%
X148658342Y-118435380D02*
X148325009Y-117959190D01*
X148086914Y-118435380D02*
X148086914Y-117435380D01*
X148467866Y-117435380D01*
X148563104Y-117483000D01*
X148610723Y-117530619D01*
X148658342Y-117625857D01*
X148658342Y-117768714D01*
X148610723Y-117863952D01*
X148563104Y-117911571D01*
X148467866Y-117959190D01*
X148086914Y-117959190D01*
X149610723Y-118435380D02*
X149039295Y-118435380D01*
X149325009Y-118435380D02*
X149325009Y-117435380D01*
X149229771Y-117578238D01*
X149134533Y-117673476D01*
X149039295Y-117721095D01*
X150467866Y-117768714D02*
X150467866Y-118435380D01*
X150229771Y-117387761D02*
X149991676Y-118102047D01*
X150610723Y-118102047D01*
%TO.C,R7*%
X151709380Y-47791666D02*
X151233190Y-48125000D01*
X151709380Y-48363095D02*
X150709380Y-48363095D01*
X150709380Y-47982142D01*
X150757000Y-47886904D01*
X150804619Y-47839285D01*
X150899857Y-47791666D01*
X151042714Y-47791666D01*
X151137952Y-47839285D01*
X151185571Y-47886904D01*
X151233190Y-47982142D01*
X151233190Y-48363095D01*
X150709380Y-47458333D02*
X150709380Y-46791666D01*
X151709380Y-47220238D01*
%TO.C,SW1*%
X124717561Y-59614133D02*
X124765180Y-59471276D01*
X124765180Y-59233180D01*
X124717561Y-59137942D01*
X124669942Y-59090323D01*
X124574704Y-59042704D01*
X124479466Y-59042704D01*
X124384228Y-59090323D01*
X124336609Y-59137942D01*
X124288990Y-59233180D01*
X124241371Y-59423657D01*
X124193752Y-59518895D01*
X124146133Y-59566514D01*
X124050895Y-59614133D01*
X123955657Y-59614133D01*
X123860419Y-59566514D01*
X123812800Y-59518895D01*
X123765180Y-59423657D01*
X123765180Y-59185561D01*
X123812800Y-59042704D01*
X123765180Y-58709371D02*
X124765180Y-58471276D01*
X124050895Y-58280800D01*
X124765180Y-58090323D01*
X123765180Y-57852228D01*
X124765180Y-56947466D02*
X124765180Y-57518895D01*
X124765180Y-57233180D02*
X123765180Y-57233180D01*
X123908038Y-57328419D01*
X124003276Y-57423657D01*
X124050895Y-57518895D01*
%TO.C,R20*%
X115097579Y-85616756D02*
X114621389Y-85950089D01*
X115097579Y-86188184D02*
X114097579Y-86188184D01*
X114097579Y-85807232D01*
X114145199Y-85711994D01*
X114192818Y-85664375D01*
X114288056Y-85616756D01*
X114430913Y-85616756D01*
X114526151Y-85664375D01*
X114573770Y-85711994D01*
X114621389Y-85807232D01*
X114621389Y-86188184D01*
X114192818Y-85235803D02*
X114145199Y-85188184D01*
X114097579Y-85092946D01*
X114097579Y-84854851D01*
X114145199Y-84759613D01*
X114192818Y-84711994D01*
X114288056Y-84664375D01*
X114383294Y-84664375D01*
X114526151Y-84711994D01*
X115097579Y-85283422D01*
X115097579Y-84664375D01*
X114097579Y-84045327D02*
X114097579Y-83950089D01*
X114145199Y-83854851D01*
X114192818Y-83807232D01*
X114288056Y-83759613D01*
X114478532Y-83711994D01*
X114716627Y-83711994D01*
X114907103Y-83759613D01*
X115002341Y-83807232D01*
X115049960Y-83854851D01*
X115097579Y-83950089D01*
X115097579Y-84045327D01*
X115049960Y-84140565D01*
X115002341Y-84188184D01*
X114907103Y-84235803D01*
X114716627Y-84283422D01*
X114478532Y-84283422D01*
X114288056Y-84235803D01*
X114192818Y-84188184D01*
X114145199Y-84140565D01*
X114097579Y-84045327D01*
%TO.C,R15*%
X148658342Y-116911380D02*
X148325009Y-116435190D01*
X148086914Y-116911380D02*
X148086914Y-115911380D01*
X148467866Y-115911380D01*
X148563104Y-115959000D01*
X148610723Y-116006619D01*
X148658342Y-116101857D01*
X148658342Y-116244714D01*
X148610723Y-116339952D01*
X148563104Y-116387571D01*
X148467866Y-116435190D01*
X148086914Y-116435190D01*
X149610723Y-116911380D02*
X149039295Y-116911380D01*
X149325009Y-116911380D02*
X149325009Y-115911380D01*
X149229771Y-116054238D01*
X149134533Y-116149476D01*
X149039295Y-116197095D01*
X150515485Y-115911380D02*
X150039295Y-115911380D01*
X149991676Y-116387571D01*
X150039295Y-116339952D01*
X150134533Y-116292333D01*
X150372628Y-116292333D01*
X150467866Y-116339952D01*
X150515485Y-116387571D01*
X150563104Y-116482809D01*
X150563104Y-116720904D01*
X150515485Y-116816142D01*
X150467866Y-116863761D01*
X150372628Y-116911380D01*
X150134533Y-116911380D01*
X150039295Y-116863761D01*
X149991676Y-116816142D01*
%TO.C,R2*%
X159686133Y-74772380D02*
X159352800Y-74296190D01*
X159114704Y-74772380D02*
X159114704Y-73772380D01*
X159495657Y-73772380D01*
X159590895Y-73820000D01*
X159638514Y-73867619D01*
X159686133Y-73962857D01*
X159686133Y-74105714D01*
X159638514Y-74200952D01*
X159590895Y-74248571D01*
X159495657Y-74296190D01*
X159114704Y-74296190D01*
X160067085Y-73867619D02*
X160114704Y-73820000D01*
X160209942Y-73772380D01*
X160448038Y-73772380D01*
X160543276Y-73820000D01*
X160590895Y-73867619D01*
X160638514Y-73962857D01*
X160638514Y-74058095D01*
X160590895Y-74200952D01*
X160019466Y-74772380D01*
X160638514Y-74772380D01*
%TO.C,C3*%
X135596333Y-51106342D02*
X135548714Y-51153961D01*
X135405857Y-51201580D01*
X135310619Y-51201580D01*
X135167761Y-51153961D01*
X135072523Y-51058723D01*
X135024904Y-50963485D01*
X134977285Y-50773009D01*
X134977285Y-50630152D01*
X135024904Y-50439676D01*
X135072523Y-50344438D01*
X135167761Y-50249200D01*
X135310619Y-50201580D01*
X135405857Y-50201580D01*
X135548714Y-50249200D01*
X135596333Y-50296819D01*
X135929666Y-50201580D02*
X136548714Y-50201580D01*
X136215380Y-50582533D01*
X136358238Y-50582533D01*
X136453476Y-50630152D01*
X136501095Y-50677771D01*
X136548714Y-50773009D01*
X136548714Y-51011104D01*
X136501095Y-51106342D01*
X136453476Y-51153961D01*
X136358238Y-51201580D01*
X136072523Y-51201580D01*
X135977285Y-51153961D01*
X135929666Y-51106342D01*
%TO.C,U2*%
X104622695Y-88225380D02*
X104622695Y-89034904D01*
X104670314Y-89130142D01*
X104717933Y-89177761D01*
X104813171Y-89225380D01*
X105003647Y-89225380D01*
X105098885Y-89177761D01*
X105146504Y-89130142D01*
X105194123Y-89034904D01*
X105194123Y-88225380D01*
X105622695Y-88320619D02*
X105670314Y-88273000D01*
X105765552Y-88225380D01*
X106003647Y-88225380D01*
X106098885Y-88273000D01*
X106146504Y-88320619D01*
X106194123Y-88415857D01*
X106194123Y-88511095D01*
X106146504Y-88653952D01*
X105575076Y-89225380D01*
X106194123Y-89225380D01*
%TO.C,D3*%
X161640780Y-111964695D02*
X160640780Y-111964695D01*
X160640780Y-111726600D01*
X160688400Y-111583742D01*
X160783638Y-111488504D01*
X160878876Y-111440885D01*
X161069352Y-111393266D01*
X161212209Y-111393266D01*
X161402685Y-111440885D01*
X161497923Y-111488504D01*
X161593161Y-111583742D01*
X161640780Y-111726600D01*
X161640780Y-111964695D01*
X160640780Y-111059933D02*
X160640780Y-110440885D01*
X161021733Y-110774219D01*
X161021733Y-110631361D01*
X161069352Y-110536123D01*
X161116971Y-110488504D01*
X161212209Y-110440885D01*
X161450304Y-110440885D01*
X161545542Y-110488504D01*
X161593161Y-110536123D01*
X161640780Y-110631361D01*
X161640780Y-110917076D01*
X161593161Y-111012314D01*
X161545542Y-111059933D01*
%TO.C,R22*%
X187491142Y-94988780D02*
X187157809Y-94512590D01*
X186919714Y-94988780D02*
X186919714Y-93988780D01*
X187300666Y-93988780D01*
X187395904Y-94036400D01*
X187443523Y-94084019D01*
X187491142Y-94179257D01*
X187491142Y-94322114D01*
X187443523Y-94417352D01*
X187395904Y-94464971D01*
X187300666Y-94512590D01*
X186919714Y-94512590D01*
X187872095Y-94084019D02*
X187919714Y-94036400D01*
X188014952Y-93988780D01*
X188253047Y-93988780D01*
X188348285Y-94036400D01*
X188395904Y-94084019D01*
X188443523Y-94179257D01*
X188443523Y-94274495D01*
X188395904Y-94417352D01*
X187824476Y-94988780D01*
X188443523Y-94988780D01*
X188824476Y-94084019D02*
X188872095Y-94036400D01*
X188967333Y-93988780D01*
X189205428Y-93988780D01*
X189300666Y-94036400D01*
X189348285Y-94084019D01*
X189395904Y-94179257D01*
X189395904Y-94274495D01*
X189348285Y-94417352D01*
X188776857Y-94988780D01*
X189395904Y-94988780D01*
%TO.C,R4*%
X145181580Y-47867866D02*
X144705390Y-48201200D01*
X145181580Y-48439295D02*
X144181580Y-48439295D01*
X144181580Y-48058342D01*
X144229200Y-47963104D01*
X144276819Y-47915485D01*
X144372057Y-47867866D01*
X144514914Y-47867866D01*
X144610152Y-47915485D01*
X144657771Y-47963104D01*
X144705390Y-48058342D01*
X144705390Y-48439295D01*
X144514914Y-47010723D02*
X145181580Y-47010723D01*
X144133961Y-47248819D02*
X144848247Y-47486914D01*
X144848247Y-46867866D01*
%TO.C,C8*%
X156729133Y-109196142D02*
X156681514Y-109243761D01*
X156538657Y-109291380D01*
X156443419Y-109291380D01*
X156300561Y-109243761D01*
X156205323Y-109148523D01*
X156157704Y-109053285D01*
X156110085Y-108862809D01*
X156110085Y-108719952D01*
X156157704Y-108529476D01*
X156205323Y-108434238D01*
X156300561Y-108339000D01*
X156443419Y-108291380D01*
X156538657Y-108291380D01*
X156681514Y-108339000D01*
X156729133Y-108386619D01*
X157300561Y-108719952D02*
X157205323Y-108672333D01*
X157157704Y-108624714D01*
X157110085Y-108529476D01*
X157110085Y-108481857D01*
X157157704Y-108386619D01*
X157205323Y-108339000D01*
X157300561Y-108291380D01*
X157491038Y-108291380D01*
X157586276Y-108339000D01*
X157633895Y-108386619D01*
X157681514Y-108481857D01*
X157681514Y-108529476D01*
X157633895Y-108624714D01*
X157586276Y-108672333D01*
X157491038Y-108719952D01*
X157300561Y-108719952D01*
X157205323Y-108767571D01*
X157157704Y-108815190D01*
X157110085Y-108910428D01*
X157110085Y-109100904D01*
X157157704Y-109196142D01*
X157205323Y-109243761D01*
X157300561Y-109291380D01*
X157491038Y-109291380D01*
X157586276Y-109243761D01*
X157633895Y-109196142D01*
X157681514Y-109100904D01*
X157681514Y-108910428D01*
X157633895Y-108815190D01*
X157586276Y-108767571D01*
X157491038Y-108719952D01*
D15*
%TO.C,IC1*%
X159388238Y-47616523D02*
X159388238Y-46346523D01*
X160718714Y-47495571D02*
X160658238Y-47556047D01*
X160476809Y-47616523D01*
X160355857Y-47616523D01*
X160174428Y-47556047D01*
X160053476Y-47435095D01*
X159993000Y-47314142D01*
X159932523Y-47072238D01*
X159932523Y-46890809D01*
X159993000Y-46648904D01*
X160053476Y-46527952D01*
X160174428Y-46407000D01*
X160355857Y-46346523D01*
X160476809Y-46346523D01*
X160658238Y-46407000D01*
X160718714Y-46467476D01*
X161928238Y-47616523D02*
X161202523Y-47616523D01*
X161565380Y-47616523D02*
X161565380Y-46346523D01*
X161444428Y-46527952D01*
X161323476Y-46648904D01*
X161202523Y-46709380D01*
D13*
%TO.C,R12*%
X152900142Y-117266980D02*
X152566809Y-116790790D01*
X152328714Y-117266980D02*
X152328714Y-116266980D01*
X152709666Y-116266980D01*
X152804904Y-116314600D01*
X152852523Y-116362219D01*
X152900142Y-116457457D01*
X152900142Y-116600314D01*
X152852523Y-116695552D01*
X152804904Y-116743171D01*
X152709666Y-116790790D01*
X152328714Y-116790790D01*
X153852523Y-117266980D02*
X153281095Y-117266980D01*
X153566809Y-117266980D02*
X153566809Y-116266980D01*
X153471571Y-116409838D01*
X153376333Y-116505076D01*
X153281095Y-116552695D01*
X154233476Y-116362219D02*
X154281095Y-116314600D01*
X154376333Y-116266980D01*
X154614428Y-116266980D01*
X154709666Y-116314600D01*
X154757285Y-116362219D01*
X154804904Y-116457457D01*
X154804904Y-116552695D01*
X154757285Y-116695552D01*
X154185857Y-117266980D01*
X154804904Y-117266980D01*
%TO.C,J2*%
X110476672Y-55830077D02*
X110981748Y-56335153D01*
X111049092Y-56469840D01*
X111049092Y-56604527D01*
X110981748Y-56739214D01*
X110914405Y-56806557D01*
X110847061Y-55594374D02*
X110847061Y-55527031D01*
X110880733Y-55426016D01*
X111049092Y-55257657D01*
X111150107Y-55223985D01*
X111217451Y-55223985D01*
X111318466Y-55257657D01*
X111385809Y-55325000D01*
X111453153Y-55459687D01*
X111453153Y-56267809D01*
X111890886Y-55830077D01*
%TO.C,C2*%
X135545533Y-54560742D02*
X135497914Y-54608361D01*
X135355057Y-54655980D01*
X135259819Y-54655980D01*
X135116961Y-54608361D01*
X135021723Y-54513123D01*
X134974104Y-54417885D01*
X134926485Y-54227409D01*
X134926485Y-54084552D01*
X134974104Y-53894076D01*
X135021723Y-53798838D01*
X135116961Y-53703600D01*
X135259819Y-53655980D01*
X135355057Y-53655980D01*
X135497914Y-53703600D01*
X135545533Y-53751219D01*
X135926485Y-53751219D02*
X135974104Y-53703600D01*
X136069342Y-53655980D01*
X136307438Y-53655980D01*
X136402676Y-53703600D01*
X136450295Y-53751219D01*
X136497914Y-53846457D01*
X136497914Y-53941695D01*
X136450295Y-54084552D01*
X135878866Y-54655980D01*
X136497914Y-54655980D01*
%TO.C,C4*%
X120143431Y-52386527D02*
X120210518Y-52392396D01*
X120338823Y-52471222D01*
X120400041Y-52544179D01*
X120455390Y-52684222D01*
X120443651Y-52818397D01*
X120401303Y-52916093D01*
X120285999Y-53075007D01*
X120176564Y-53166834D01*
X120000042Y-53252791D01*
X119896476Y-53277531D01*
X119762302Y-53265792D01*
X119633997Y-53186966D01*
X119572779Y-53114010D01*
X119517430Y-52973966D01*
X119523300Y-52906878D01*
X119154731Y-52097224D02*
X119665427Y-51668699D01*
X119015949Y-52524487D02*
X119716168Y-52247745D01*
X119318252Y-51773527D01*
D15*
%TO.C,J6*%
X160155466Y-136769323D02*
X160155466Y-137676466D01*
X160094990Y-137857895D01*
X159974038Y-137978847D01*
X159792609Y-138039323D01*
X159671657Y-138039323D01*
X161304514Y-136769323D02*
X161062609Y-136769323D01*
X160941657Y-136829800D01*
X160881180Y-136890276D01*
X160760228Y-137071704D01*
X160699752Y-137313609D01*
X160699752Y-137797419D01*
X160760228Y-137918371D01*
X160820704Y-137978847D01*
X160941657Y-138039323D01*
X161183561Y-138039323D01*
X161304514Y-137978847D01*
X161364990Y-137918371D01*
X161425466Y-137797419D01*
X161425466Y-137495038D01*
X161364990Y-137374085D01*
X161304514Y-137313609D01*
X161183561Y-137253133D01*
X160941657Y-137253133D01*
X160820704Y-137313609D01*
X160760228Y-137374085D01*
X160699752Y-137495038D01*
D13*
%TO.C,U1*%
X143205295Y-87945980D02*
X143205295Y-88755504D01*
X143252914Y-88850742D01*
X143300533Y-88898361D01*
X143395771Y-88945980D01*
X143586247Y-88945980D01*
X143681485Y-88898361D01*
X143729104Y-88850742D01*
X143776723Y-88755504D01*
X143776723Y-87945980D01*
X144776723Y-88945980D02*
X144205295Y-88945980D01*
X144491009Y-88945980D02*
X144491009Y-87945980D01*
X144395771Y-88088838D01*
X144300533Y-88184076D01*
X144205295Y-88231695D01*
%TO.C,J5*%
X132432466Y-106665780D02*
X132432466Y-107380066D01*
X132384847Y-107522923D01*
X132289609Y-107618161D01*
X132146752Y-107665780D01*
X132051514Y-107665780D01*
X133384847Y-106665780D02*
X132908657Y-106665780D01*
X132861038Y-107141971D01*
X132908657Y-107094352D01*
X133003895Y-107046733D01*
X133241990Y-107046733D01*
X133337228Y-107094352D01*
X133384847Y-107141971D01*
X133432466Y-107237209D01*
X133432466Y-107475304D01*
X133384847Y-107570542D01*
X133337228Y-107618161D01*
X133241990Y-107665780D01*
X133003895Y-107665780D01*
X132908657Y-107618161D01*
X132861038Y-107570542D01*
%TO.C,R18*%
X149184380Y-82811857D02*
X148708190Y-83145190D01*
X149184380Y-83383285D02*
X148184380Y-83383285D01*
X148184380Y-83002333D01*
X148232000Y-82907095D01*
X148279619Y-82859476D01*
X148374857Y-82811857D01*
X148517714Y-82811857D01*
X148612952Y-82859476D01*
X148660571Y-82907095D01*
X148708190Y-83002333D01*
X148708190Y-83383285D01*
X149184380Y-81859476D02*
X149184380Y-82430904D01*
X149184380Y-82145190D02*
X148184380Y-82145190D01*
X148327238Y-82240428D01*
X148422476Y-82335666D01*
X148470095Y-82430904D01*
X148612952Y-81288047D02*
X148565333Y-81383285D01*
X148517714Y-81430904D01*
X148422476Y-81478523D01*
X148374857Y-81478523D01*
X148279619Y-81430904D01*
X148232000Y-81383285D01*
X148184380Y-81288047D01*
X148184380Y-81097571D01*
X148232000Y-81002333D01*
X148279619Y-80954714D01*
X148374857Y-80907095D01*
X148422476Y-80907095D01*
X148517714Y-80954714D01*
X148565333Y-81002333D01*
X148612952Y-81097571D01*
X148612952Y-81288047D01*
X148660571Y-81383285D01*
X148708190Y-81430904D01*
X148803428Y-81478523D01*
X148993904Y-81478523D01*
X149089142Y-81430904D01*
X149136761Y-81383285D01*
X149184380Y-81288047D01*
X149184380Y-81097571D01*
X149136761Y-81002333D01*
X149089142Y-80954714D01*
X148993904Y-80907095D01*
X148803428Y-80907095D01*
X148708190Y-80954714D01*
X148660571Y-81002333D01*
X148612952Y-81097571D01*
%TO.C,TP1*%
X170442095Y-113374380D02*
X171013523Y-113374380D01*
X170727809Y-114374380D02*
X170727809Y-113374380D01*
X171346857Y-114374380D02*
X171346857Y-113374380D01*
X171727809Y-113374380D01*
X171823047Y-113422000D01*
X171870666Y-113469619D01*
X171918285Y-113564857D01*
X171918285Y-113707714D01*
X171870666Y-113802952D01*
X171823047Y-113850571D01*
X171727809Y-113898190D01*
X171346857Y-113898190D01*
X172870666Y-114374380D02*
X172299238Y-114374380D01*
X172584952Y-114374380D02*
X172584952Y-113374380D01*
X172489714Y-113517238D01*
X172394476Y-113612476D01*
X172299238Y-113660095D01*
%TO.C,R23*%
X202477142Y-78478780D02*
X202143809Y-78002590D01*
X201905714Y-78478780D02*
X201905714Y-77478780D01*
X202286666Y-77478780D01*
X202381904Y-77526400D01*
X202429523Y-77574019D01*
X202477142Y-77669257D01*
X202477142Y-77812114D01*
X202429523Y-77907352D01*
X202381904Y-77954971D01*
X202286666Y-78002590D01*
X201905714Y-78002590D01*
X202858095Y-77574019D02*
X202905714Y-77526400D01*
X203000952Y-77478780D01*
X203239047Y-77478780D01*
X203334285Y-77526400D01*
X203381904Y-77574019D01*
X203429523Y-77669257D01*
X203429523Y-77764495D01*
X203381904Y-77907352D01*
X202810476Y-78478780D01*
X203429523Y-78478780D01*
X203762857Y-77478780D02*
X204381904Y-77478780D01*
X204048571Y-77859733D01*
X204191428Y-77859733D01*
X204286666Y-77907352D01*
X204334285Y-77954971D01*
X204381904Y-78050209D01*
X204381904Y-78288304D01*
X204334285Y-78383542D01*
X204286666Y-78431161D01*
X204191428Y-78478780D01*
X203905714Y-78478780D01*
X203810476Y-78431161D01*
X203762857Y-78383542D01*
%TO.C,U4*%
X184048304Y-72759819D02*
X184048304Y-71950295D01*
X184000685Y-71855057D01*
X183953066Y-71807438D01*
X183857828Y-71759819D01*
X183667352Y-71759819D01*
X183572114Y-71807438D01*
X183524495Y-71855057D01*
X183476876Y-71950295D01*
X183476876Y-72759819D01*
X182572114Y-72426485D02*
X182572114Y-71759819D01*
X182810209Y-72807438D02*
X183048304Y-72093152D01*
X182429257Y-72093152D01*
%TO.C,D2*%
X115600482Y-45763015D02*
X114834437Y-46405803D01*
X114681393Y-46223411D01*
X114626044Y-46083368D01*
X114637783Y-45949193D01*
X114680131Y-45851497D01*
X114795435Y-45692583D01*
X114904870Y-45600756D01*
X115081392Y-45514799D01*
X115184958Y-45490059D01*
X115319132Y-45501798D01*
X115447437Y-45580624D01*
X115600482Y-45763015D01*
X114295215Y-45615019D02*
X114228128Y-45609150D01*
X114130432Y-45566802D01*
X113977387Y-45384410D01*
X113952648Y-45280845D01*
X113958517Y-45213758D01*
X114000865Y-45116061D01*
X114073821Y-45054844D01*
X114213865Y-44999495D01*
X115018912Y-45069928D01*
X114620996Y-44595710D01*
%TO.C,R19*%
X149278380Y-85986857D02*
X148802190Y-86320190D01*
X149278380Y-86558285D02*
X148278380Y-86558285D01*
X148278380Y-86177333D01*
X148326000Y-86082095D01*
X148373619Y-86034476D01*
X148468857Y-85986857D01*
X148611714Y-85986857D01*
X148706952Y-86034476D01*
X148754571Y-86082095D01*
X148802190Y-86177333D01*
X148802190Y-86558285D01*
X149278380Y-85034476D02*
X149278380Y-85605904D01*
X149278380Y-85320190D02*
X148278380Y-85320190D01*
X148421238Y-85415428D01*
X148516476Y-85510666D01*
X148564095Y-85605904D01*
X149278380Y-84558285D02*
X149278380Y-84367809D01*
X149230761Y-84272571D01*
X149183142Y-84224952D01*
X149040285Y-84129714D01*
X148849809Y-84082095D01*
X148468857Y-84082095D01*
X148373619Y-84129714D01*
X148326000Y-84177333D01*
X148278380Y-84272571D01*
X148278380Y-84463047D01*
X148326000Y-84558285D01*
X148373619Y-84605904D01*
X148468857Y-84653523D01*
X148706952Y-84653523D01*
X148802190Y-84605904D01*
X148849809Y-84558285D01*
X148897428Y-84463047D01*
X148897428Y-84272571D01*
X148849809Y-84177333D01*
X148802190Y-84129714D01*
X148706952Y-84082095D01*
%TO.C,R13*%
X152900142Y-118689380D02*
X152566809Y-118213190D01*
X152328714Y-118689380D02*
X152328714Y-117689380D01*
X152709666Y-117689380D01*
X152804904Y-117737000D01*
X152852523Y-117784619D01*
X152900142Y-117879857D01*
X152900142Y-118022714D01*
X152852523Y-118117952D01*
X152804904Y-118165571D01*
X152709666Y-118213190D01*
X152328714Y-118213190D01*
X153852523Y-118689380D02*
X153281095Y-118689380D01*
X153566809Y-118689380D02*
X153566809Y-117689380D01*
X153471571Y-117832238D01*
X153376333Y-117927476D01*
X153281095Y-117975095D01*
X154185857Y-117689380D02*
X154804904Y-117689380D01*
X154471571Y-118070333D01*
X154614428Y-118070333D01*
X154709666Y-118117952D01*
X154757285Y-118165571D01*
X154804904Y-118260809D01*
X154804904Y-118498904D01*
X154757285Y-118594142D01*
X154709666Y-118641761D01*
X154614428Y-118689380D01*
X154328714Y-118689380D01*
X154233476Y-118641761D01*
X154185857Y-118594142D01*
%TO.C,R11*%
X170705542Y-118181380D02*
X170372209Y-117705190D01*
X170134114Y-118181380D02*
X170134114Y-117181380D01*
X170515066Y-117181380D01*
X170610304Y-117229000D01*
X170657923Y-117276619D01*
X170705542Y-117371857D01*
X170705542Y-117514714D01*
X170657923Y-117609952D01*
X170610304Y-117657571D01*
X170515066Y-117705190D01*
X170134114Y-117705190D01*
X171657923Y-118181380D02*
X171086495Y-118181380D01*
X171372209Y-118181380D02*
X171372209Y-117181380D01*
X171276971Y-117324238D01*
X171181733Y-117419476D01*
X171086495Y-117467095D01*
X172610304Y-118181380D02*
X172038876Y-118181380D01*
X172324590Y-118181380D02*
X172324590Y-117181380D01*
X172229352Y-117324238D01*
X172134114Y-117419476D01*
X172038876Y-117467095D01*
%TO.C,C5*%
X117547674Y-49382093D02*
X117614761Y-49387962D01*
X117743066Y-49466788D01*
X117804284Y-49539745D01*
X117859633Y-49679788D01*
X117847894Y-49813963D01*
X117805546Y-49911659D01*
X117690242Y-50070573D01*
X117580807Y-50162400D01*
X117404285Y-50248357D01*
X117300719Y-50273097D01*
X117166545Y-50261358D01*
X117038240Y-50182532D01*
X116977022Y-50109576D01*
X116921673Y-49969532D01*
X116927543Y-49902444D01*
X116273016Y-49270574D02*
X116579106Y-49635358D01*
X116974498Y-49365747D01*
X116907411Y-49359877D01*
X116809714Y-49317529D01*
X116656670Y-49135138D01*
X116631930Y-49031572D01*
X116637800Y-48964485D01*
X116680147Y-48866789D01*
X116862539Y-48713744D01*
X116966104Y-48689005D01*
X117033192Y-48694874D01*
X117130888Y-48737222D01*
X117283932Y-48919613D01*
X117308672Y-49023179D01*
X117302803Y-49090266D01*
D15*
%TO.C,J8*%
X172304523Y-88053333D02*
X173211666Y-88053333D01*
X173393095Y-88113809D01*
X173514047Y-88234761D01*
X173574523Y-88416190D01*
X173574523Y-88537142D01*
X172848809Y-87267142D02*
X172788333Y-87388095D01*
X172727857Y-87448571D01*
X172606904Y-87509047D01*
X172546428Y-87509047D01*
X172425476Y-87448571D01*
X172365000Y-87388095D01*
X172304523Y-87267142D01*
X172304523Y-87025238D01*
X172365000Y-86904285D01*
X172425476Y-86843809D01*
X172546428Y-86783333D01*
X172606904Y-86783333D01*
X172727857Y-86843809D01*
X172788333Y-86904285D01*
X172848809Y-87025238D01*
X172848809Y-87267142D01*
X172909285Y-87388095D01*
X172969761Y-87448571D01*
X173090714Y-87509047D01*
X173332619Y-87509047D01*
X173453571Y-87448571D01*
X173514047Y-87388095D01*
X173574523Y-87267142D01*
X173574523Y-87025238D01*
X173514047Y-86904285D01*
X173453571Y-86843809D01*
X173332619Y-86783333D01*
X173090714Y-86783333D01*
X172969761Y-86843809D01*
X172909285Y-86904285D01*
X172848809Y-87025238D01*
D13*
%TO.C,R9*%
X147340580Y-47817066D02*
X146864390Y-48150400D01*
X147340580Y-48388495D02*
X146340580Y-48388495D01*
X146340580Y-48007542D01*
X146388200Y-47912304D01*
X146435819Y-47864685D01*
X146531057Y-47817066D01*
X146673914Y-47817066D01*
X146769152Y-47864685D01*
X146816771Y-47912304D01*
X146864390Y-48007542D01*
X146864390Y-48388495D01*
X147340580Y-47340876D02*
X147340580Y-47150400D01*
X147292961Y-47055161D01*
X147245342Y-47007542D01*
X147102485Y-46912304D01*
X146912009Y-46864685D01*
X146531057Y-46864685D01*
X146435819Y-46912304D01*
X146388200Y-46959923D01*
X146340580Y-47055161D01*
X146340580Y-47245638D01*
X146388200Y-47340876D01*
X146435819Y-47388495D01*
X146531057Y-47436114D01*
X146769152Y-47436114D01*
X146864390Y-47388495D01*
X146912009Y-47340876D01*
X146959628Y-47245638D01*
X146959628Y-47055161D01*
X146912009Y-46959923D01*
X146864390Y-46912304D01*
X146769152Y-46864685D01*
%TO.C,C10*%
X140971542Y-110294657D02*
X141019161Y-110342276D01*
X141066780Y-110485133D01*
X141066780Y-110580371D01*
X141019161Y-110723228D01*
X140923923Y-110818466D01*
X140828685Y-110866085D01*
X140638209Y-110913704D01*
X140495352Y-110913704D01*
X140304876Y-110866085D01*
X140209638Y-110818466D01*
X140114400Y-110723228D01*
X140066780Y-110580371D01*
X140066780Y-110485133D01*
X140114400Y-110342276D01*
X140162019Y-110294657D01*
X141066780Y-109342276D02*
X141066780Y-109913704D01*
X141066780Y-109627990D02*
X140066780Y-109627990D01*
X140209638Y-109723228D01*
X140304876Y-109818466D01*
X140352495Y-109913704D01*
X140066780Y-108723228D02*
X140066780Y-108627990D01*
X140114400Y-108532752D01*
X140162019Y-108485133D01*
X140257257Y-108437514D01*
X140447733Y-108389895D01*
X140685828Y-108389895D01*
X140876304Y-108437514D01*
X140971542Y-108485133D01*
X141019161Y-108532752D01*
X141066780Y-108627990D01*
X141066780Y-108723228D01*
X141019161Y-108818466D01*
X140971542Y-108866085D01*
X140876304Y-108913704D01*
X140685828Y-108961323D01*
X140447733Y-108961323D01*
X140257257Y-108913704D01*
X140162019Y-108866085D01*
X140114400Y-108818466D01*
X140066780Y-108723228D01*
%TO.C,D4*%
X133577104Y-103169980D02*
X133577104Y-102169980D01*
X133815200Y-102169980D01*
X133958057Y-102217600D01*
X134053295Y-102312838D01*
X134100914Y-102408076D01*
X134148533Y-102598552D01*
X134148533Y-102741409D01*
X134100914Y-102931885D01*
X134053295Y-103027123D01*
X133958057Y-103122361D01*
X133815200Y-103169980D01*
X133577104Y-103169980D01*
X135005676Y-102503314D02*
X135005676Y-103169980D01*
X134767580Y-102122361D02*
X134529485Y-102836647D01*
X135148533Y-102836647D01*
%TO.C,R16*%
X136999742Y-103169980D02*
X136666409Y-102693790D01*
X136428314Y-103169980D02*
X136428314Y-102169980D01*
X136809266Y-102169980D01*
X136904504Y-102217600D01*
X136952123Y-102265219D01*
X136999742Y-102360457D01*
X136999742Y-102503314D01*
X136952123Y-102598552D01*
X136904504Y-102646171D01*
X136809266Y-102693790D01*
X136428314Y-102693790D01*
X137952123Y-103169980D02*
X137380695Y-103169980D01*
X137666409Y-103169980D02*
X137666409Y-102169980D01*
X137571171Y-102312838D01*
X137475933Y-102408076D01*
X137380695Y-102455695D01*
X138809266Y-102169980D02*
X138618790Y-102169980D01*
X138523552Y-102217600D01*
X138475933Y-102265219D01*
X138380695Y-102408076D01*
X138333076Y-102598552D01*
X138333076Y-102979504D01*
X138380695Y-103074742D01*
X138428314Y-103122361D01*
X138523552Y-103169980D01*
X138714028Y-103169980D01*
X138809266Y-103122361D01*
X138856885Y-103074742D01*
X138904504Y-102979504D01*
X138904504Y-102741409D01*
X138856885Y-102646171D01*
X138809266Y-102598552D01*
X138714028Y-102550933D01*
X138523552Y-102550933D01*
X138428314Y-102598552D01*
X138380695Y-102646171D01*
X138333076Y-102741409D01*
%TO.C,C12*%
X161840943Y-95073742D02*
X161793324Y-95121361D01*
X161650467Y-95168980D01*
X161555229Y-95168980D01*
X161412372Y-95121361D01*
X161317134Y-95026123D01*
X161269515Y-94930885D01*
X161221896Y-94740409D01*
X161221896Y-94597552D01*
X161269515Y-94407076D01*
X161317134Y-94311838D01*
X161412372Y-94216600D01*
X161555229Y-94168980D01*
X161650467Y-94168980D01*
X161793324Y-94216600D01*
X161840943Y-94264219D01*
X162793324Y-95168980D02*
X162221896Y-95168980D01*
X162507610Y-95168980D02*
X162507610Y-94168980D01*
X162412372Y-94311838D01*
X162317134Y-94407076D01*
X162221896Y-94454695D01*
X163174277Y-94264219D02*
X163221896Y-94216600D01*
X163317134Y-94168980D01*
X163555229Y-94168980D01*
X163650467Y-94216600D01*
X163698086Y-94264219D01*
X163745705Y-94359457D01*
X163745705Y-94454695D01*
X163698086Y-94597552D01*
X163126658Y-95168980D01*
X163745705Y-95168980D01*
%TO.C,R8*%
X149550380Y-47817066D02*
X149074190Y-48150400D01*
X149550380Y-48388495D02*
X148550380Y-48388495D01*
X148550380Y-48007542D01*
X148598000Y-47912304D01*
X148645619Y-47864685D01*
X148740857Y-47817066D01*
X148883714Y-47817066D01*
X148978952Y-47864685D01*
X149026571Y-47912304D01*
X149074190Y-48007542D01*
X149074190Y-48388495D01*
X148978952Y-47245638D02*
X148931333Y-47340876D01*
X148883714Y-47388495D01*
X148788476Y-47436114D01*
X148740857Y-47436114D01*
X148645619Y-47388495D01*
X148598000Y-47340876D01*
X148550380Y-47245638D01*
X148550380Y-47055161D01*
X148598000Y-46959923D01*
X148645619Y-46912304D01*
X148740857Y-46864685D01*
X148788476Y-46864685D01*
X148883714Y-46912304D01*
X148931333Y-46959923D01*
X148978952Y-47055161D01*
X148978952Y-47245638D01*
X149026571Y-47340876D01*
X149074190Y-47388495D01*
X149169428Y-47436114D01*
X149359904Y-47436114D01*
X149455142Y-47388495D01*
X149502761Y-47340876D01*
X149550380Y-47245638D01*
X149550380Y-47055161D01*
X149502761Y-46959923D01*
X149455142Y-46912304D01*
X149359904Y-46864685D01*
X149169428Y-46864685D01*
X149074190Y-46912304D01*
X149026571Y-46959923D01*
X148978952Y-47055161D01*
%TO.C,C14*%
X202250942Y-92196257D02*
X202298561Y-92243876D01*
X202346180Y-92386733D01*
X202346180Y-92481971D01*
X202298561Y-92624828D01*
X202203323Y-92720066D01*
X202108085Y-92767685D01*
X201917609Y-92815304D01*
X201774752Y-92815304D01*
X201584276Y-92767685D01*
X201489038Y-92720066D01*
X201393800Y-92624828D01*
X201346180Y-92481971D01*
X201346180Y-92386733D01*
X201393800Y-92243876D01*
X201441419Y-92196257D01*
X202346180Y-91243876D02*
X202346180Y-91815304D01*
X202346180Y-91529590D02*
X201346180Y-91529590D01*
X201489038Y-91624828D01*
X201584276Y-91720066D01*
X201631895Y-91815304D01*
X201679514Y-90386733D02*
X202346180Y-90386733D01*
X201298561Y-90624828D02*
X202012847Y-90862923D01*
X202012847Y-90243876D01*
%TO.C,M1*%
X148019104Y-108753123D02*
X148019104Y-107483123D01*
X148442438Y-108390266D01*
X148865771Y-107483123D01*
X148865771Y-108753123D01*
X150135771Y-108753123D02*
X149410057Y-108753123D01*
X149772914Y-108753123D02*
X149772914Y-107483123D01*
X149651961Y-107664552D01*
X149531009Y-107785504D01*
X149410057Y-107845980D01*
%TO.C,R1*%
X135621733Y-56433980D02*
X135288400Y-55957790D01*
X135050304Y-56433980D02*
X135050304Y-55433980D01*
X135431257Y-55433980D01*
X135526495Y-55481600D01*
X135574114Y-55529219D01*
X135621733Y-55624457D01*
X135621733Y-55767314D01*
X135574114Y-55862552D01*
X135526495Y-55910171D01*
X135431257Y-55957790D01*
X135050304Y-55957790D01*
X136574114Y-56433980D02*
X136002685Y-56433980D01*
X136288400Y-56433980D02*
X136288400Y-55433980D01*
X136193161Y-55576838D01*
X136097923Y-55672076D01*
X136002685Y-55719695D01*
%TO.C,C9*%
X153782733Y-108307142D02*
X153735114Y-108354761D01*
X153592257Y-108402380D01*
X153497019Y-108402380D01*
X153354161Y-108354761D01*
X153258923Y-108259523D01*
X153211304Y-108164285D01*
X153163685Y-107973809D01*
X153163685Y-107830952D01*
X153211304Y-107640476D01*
X153258923Y-107545238D01*
X153354161Y-107450000D01*
X153497019Y-107402380D01*
X153592257Y-107402380D01*
X153735114Y-107450000D01*
X153782733Y-107497619D01*
X154258923Y-108402380D02*
X154449400Y-108402380D01*
X154544638Y-108354761D01*
X154592257Y-108307142D01*
X154687495Y-108164285D01*
X154735114Y-107973809D01*
X154735114Y-107592857D01*
X154687495Y-107497619D01*
X154639876Y-107450000D01*
X154544638Y-107402380D01*
X154354161Y-107402380D01*
X154258923Y-107450000D01*
X154211304Y-107497619D01*
X154163685Y-107592857D01*
X154163685Y-107830952D01*
X154211304Y-107926190D01*
X154258923Y-107973809D01*
X154354161Y-108021428D01*
X154544638Y-108021428D01*
X154639876Y-107973809D01*
X154687495Y-107926190D01*
X154735114Y-107830952D01*
%TO.C,C6*%
X139803142Y-109793066D02*
X139850761Y-109840685D01*
X139898380Y-109983542D01*
X139898380Y-110078780D01*
X139850761Y-110221638D01*
X139755523Y-110316876D01*
X139660285Y-110364495D01*
X139469809Y-110412114D01*
X139326952Y-110412114D01*
X139136476Y-110364495D01*
X139041238Y-110316876D01*
X138946000Y-110221638D01*
X138898380Y-110078780D01*
X138898380Y-109983542D01*
X138946000Y-109840685D01*
X138993619Y-109793066D01*
X138898380Y-108935923D02*
X138898380Y-109126400D01*
X138946000Y-109221638D01*
X138993619Y-109269257D01*
X139136476Y-109364495D01*
X139326952Y-109412114D01*
X139707904Y-109412114D01*
X139803142Y-109364495D01*
X139850761Y-109316876D01*
X139898380Y-109221638D01*
X139898380Y-109031161D01*
X139850761Y-108935923D01*
X139803142Y-108888304D01*
X139707904Y-108840685D01*
X139469809Y-108840685D01*
X139374571Y-108888304D01*
X139326952Y-108935923D01*
X139279333Y-109031161D01*
X139279333Y-109221638D01*
X139326952Y-109316876D01*
X139374571Y-109364495D01*
X139469809Y-109412114D01*
%TO.C,D1*%
X162264304Y-74823180D02*
X162264304Y-73823180D01*
X162502400Y-73823180D01*
X162645257Y-73870800D01*
X162740495Y-73966038D01*
X162788114Y-74061276D01*
X162835733Y-74251752D01*
X162835733Y-74394609D01*
X162788114Y-74585085D01*
X162740495Y-74680323D01*
X162645257Y-74775561D01*
X162502400Y-74823180D01*
X162264304Y-74823180D01*
X163788114Y-74823180D02*
X163216685Y-74823180D01*
X163502400Y-74823180D02*
X163502400Y-73823180D01*
X163407161Y-73966038D01*
X163311923Y-74061276D01*
X163216685Y-74108895D01*
%TO.C,U7*%
X163423695Y-75652380D02*
X163423695Y-76461904D01*
X163471314Y-76557142D01*
X163518933Y-76604761D01*
X163614171Y-76652380D01*
X163804647Y-76652380D01*
X163899885Y-76604761D01*
X163947504Y-76557142D01*
X163995123Y-76461904D01*
X163995123Y-75652380D01*
X164376076Y-75652380D02*
X165042742Y-75652380D01*
X164614171Y-76652380D01*
%TO.C,C16*%
X204085942Y-84296257D02*
X204133561Y-84343876D01*
X204181180Y-84486733D01*
X204181180Y-84581971D01*
X204133561Y-84724828D01*
X204038323Y-84820066D01*
X203943085Y-84867685D01*
X203752609Y-84915304D01*
X203609752Y-84915304D01*
X203419276Y-84867685D01*
X203324038Y-84820066D01*
X203228800Y-84724828D01*
X203181180Y-84581971D01*
X203181180Y-84486733D01*
X203228800Y-84343876D01*
X203276419Y-84296257D01*
X204181180Y-83343876D02*
X204181180Y-83915304D01*
X204181180Y-83629590D02*
X203181180Y-83629590D01*
X203324038Y-83724828D01*
X203419276Y-83820066D01*
X203466895Y-83915304D01*
X203181180Y-82486733D02*
X203181180Y-82677209D01*
X203228800Y-82772447D01*
X203276419Y-82820066D01*
X203419276Y-82915304D01*
X203609752Y-82962923D01*
X203990704Y-82962923D01*
X204085942Y-82915304D01*
X204133561Y-82867685D01*
X204181180Y-82772447D01*
X204181180Y-82581971D01*
X204133561Y-82486733D01*
X204085942Y-82439114D01*
X203990704Y-82391495D01*
X203752609Y-82391495D01*
X203657371Y-82439114D01*
X203609752Y-82486733D01*
X203562133Y-82581971D01*
X203562133Y-82772447D01*
X203609752Y-82867685D01*
X203657371Y-82915304D01*
X203752609Y-82962923D01*
%TO.C,R26*%
X157551380Y-79420457D02*
X157075190Y-79753790D01*
X157551380Y-79991885D02*
X156551380Y-79991885D01*
X156551380Y-79610933D01*
X156599000Y-79515695D01*
X156646619Y-79468076D01*
X156741857Y-79420457D01*
X156884714Y-79420457D01*
X156979952Y-79468076D01*
X157027571Y-79515695D01*
X157075190Y-79610933D01*
X157075190Y-79991885D01*
X156646619Y-79039504D02*
X156599000Y-78991885D01*
X156551380Y-78896647D01*
X156551380Y-78658552D01*
X156599000Y-78563314D01*
X156646619Y-78515695D01*
X156741857Y-78468076D01*
X156837095Y-78468076D01*
X156979952Y-78515695D01*
X157551380Y-79087123D01*
X157551380Y-78468076D01*
X156551380Y-77610933D02*
X156551380Y-77801409D01*
X156599000Y-77896647D01*
X156646619Y-77944266D01*
X156789476Y-78039504D01*
X156979952Y-78087123D01*
X157360904Y-78087123D01*
X157456142Y-78039504D01*
X157503761Y-77991885D01*
X157551380Y-77896647D01*
X157551380Y-77706171D01*
X157503761Y-77610933D01*
X157456142Y-77563314D01*
X157360904Y-77515695D01*
X157122809Y-77515695D01*
X157027571Y-77563314D01*
X156979952Y-77610933D01*
X156932333Y-77706171D01*
X156932333Y-77896647D01*
X156979952Y-77991885D01*
X157027571Y-78039504D01*
X157122809Y-78087123D01*
%TO.C,BT1*%
X178699854Y-111231022D02*
X178834541Y-111163678D01*
X178901884Y-111163678D01*
X179002900Y-111197350D01*
X179103915Y-111298365D01*
X179137587Y-111399381D01*
X179137587Y-111466724D01*
X179103915Y-111567739D01*
X178834541Y-111837113D01*
X178127434Y-111130007D01*
X178363136Y-110894304D01*
X178464152Y-110860633D01*
X178531495Y-110860633D01*
X178632510Y-110894304D01*
X178699854Y-110961648D01*
X178733526Y-111062663D01*
X178733526Y-111130007D01*
X178699854Y-111231022D01*
X178464152Y-111466724D01*
X178733526Y-110523915D02*
X179137587Y-110119854D01*
X179642663Y-111028991D02*
X178935556Y-110321884D01*
X180450785Y-110220869D02*
X180046724Y-110624930D01*
X180248755Y-110422900D02*
X179541648Y-109715793D01*
X179575320Y-109884152D01*
X179575320Y-110018839D01*
X179541648Y-110119854D01*
%TO.C,C1*%
X135596333Y-52757342D02*
X135548714Y-52804961D01*
X135405857Y-52852580D01*
X135310619Y-52852580D01*
X135167761Y-52804961D01*
X135072523Y-52709723D01*
X135024904Y-52614485D01*
X134977285Y-52424009D01*
X134977285Y-52281152D01*
X135024904Y-52090676D01*
X135072523Y-51995438D01*
X135167761Y-51900200D01*
X135310619Y-51852580D01*
X135405857Y-51852580D01*
X135548714Y-51900200D01*
X135596333Y-51947819D01*
X136548714Y-52852580D02*
X135977285Y-52852580D01*
X136263000Y-52852580D02*
X136263000Y-51852580D01*
X136167761Y-51995438D01*
X136072523Y-52090676D01*
X135977285Y-52138295D01*
%TO.C,J14*%
X118896413Y-116418425D02*
X119401489Y-115913349D01*
X119536176Y-115846006D01*
X119670863Y-115846006D01*
X119805550Y-115913349D01*
X119872894Y-115980693D01*
X118896413Y-115004212D02*
X119300474Y-115408273D01*
X119098444Y-115206242D02*
X118391337Y-115913349D01*
X118559696Y-115879677D01*
X118694383Y-115879677D01*
X118795398Y-115913349D01*
X117818917Y-114869525D02*
X118290322Y-114398120D01*
X117717902Y-115307258D02*
X118391337Y-114970540D01*
X117953604Y-114532807D01*
%TO.C,R24*%
X202480942Y-73576579D02*
X202147609Y-73100389D01*
X201909514Y-73576579D02*
X201909514Y-72576579D01*
X202290466Y-72576579D01*
X202385704Y-72624199D01*
X202433323Y-72671818D01*
X202480942Y-72767056D01*
X202480942Y-72909913D01*
X202433323Y-73005151D01*
X202385704Y-73052770D01*
X202290466Y-73100389D01*
X201909514Y-73100389D01*
X202861895Y-72671818D02*
X202909514Y-72624199D01*
X203004752Y-72576579D01*
X203242847Y-72576579D01*
X203338085Y-72624199D01*
X203385704Y-72671818D01*
X203433323Y-72767056D01*
X203433323Y-72862294D01*
X203385704Y-73005151D01*
X202814276Y-73576579D01*
X203433323Y-73576579D01*
X204290466Y-72909913D02*
X204290466Y-73576579D01*
X204052371Y-72528960D02*
X203814276Y-73243246D01*
X204433323Y-73243246D01*
%TO.C,R3*%
X116757175Y-44140220D02*
X116606654Y-44701657D01*
X117124482Y-44577959D02*
X116358437Y-45220747D01*
X116113566Y-44928921D01*
X116088826Y-44825355D01*
X116094696Y-44758268D01*
X116137043Y-44660572D01*
X116246478Y-44568745D01*
X116350044Y-44544005D01*
X116417131Y-44549875D01*
X116514827Y-44592222D01*
X116759699Y-44884049D01*
X115776868Y-44527659D02*
X115378952Y-44053441D01*
X115885041Y-44063918D01*
X115793214Y-43954483D01*
X115768474Y-43850917D01*
X115774344Y-43783830D01*
X115816691Y-43686134D01*
X115999083Y-43533089D01*
X116102648Y-43508350D01*
X116169736Y-43514219D01*
X116267432Y-43556567D01*
X116451085Y-43775437D01*
X116475825Y-43879002D01*
X116469956Y-43946089D01*
%TO.C,R27*%
X160621742Y-84596980D02*
X160288409Y-84120790D01*
X160050314Y-84596980D02*
X160050314Y-83596980D01*
X160431266Y-83596980D01*
X160526504Y-83644600D01*
X160574123Y-83692219D01*
X160621742Y-83787457D01*
X160621742Y-83930314D01*
X160574123Y-84025552D01*
X160526504Y-84073171D01*
X160431266Y-84120790D01*
X160050314Y-84120790D01*
X161002695Y-83692219D02*
X161050314Y-83644600D01*
X161145552Y-83596980D01*
X161383647Y-83596980D01*
X161478885Y-83644600D01*
X161526504Y-83692219D01*
X161574123Y-83787457D01*
X161574123Y-83882695D01*
X161526504Y-84025552D01*
X160955076Y-84596980D01*
X161574123Y-84596980D01*
X161907457Y-83596980D02*
X162574123Y-83596980D01*
X162145552Y-84596980D01*
%TO.C,R6*%
X153995380Y-47817066D02*
X153519190Y-48150400D01*
X153995380Y-48388495D02*
X152995380Y-48388495D01*
X152995380Y-48007542D01*
X153043000Y-47912304D01*
X153090619Y-47864685D01*
X153185857Y-47817066D01*
X153328714Y-47817066D01*
X153423952Y-47864685D01*
X153471571Y-47912304D01*
X153519190Y-48007542D01*
X153519190Y-48388495D01*
X152995380Y-46959923D02*
X152995380Y-47150400D01*
X153043000Y-47245638D01*
X153090619Y-47293257D01*
X153233476Y-47388495D01*
X153423952Y-47436114D01*
X153804904Y-47436114D01*
X153900142Y-47388495D01*
X153947761Y-47340876D01*
X153995380Y-47245638D01*
X153995380Y-47055161D01*
X153947761Y-46959923D01*
X153900142Y-46912304D01*
X153804904Y-46864685D01*
X153566809Y-46864685D01*
X153471571Y-46912304D01*
X153423952Y-46959923D01*
X153376333Y-47055161D01*
X153376333Y-47245638D01*
X153423952Y-47340876D01*
X153471571Y-47388495D01*
X153566809Y-47436114D01*
%TO.C,C13*%
X161840942Y-96724742D02*
X161793323Y-96772361D01*
X161650466Y-96819980D01*
X161555228Y-96819980D01*
X161412371Y-96772361D01*
X161317133Y-96677123D01*
X161269514Y-96581885D01*
X161221895Y-96391409D01*
X161221895Y-96248552D01*
X161269514Y-96058076D01*
X161317133Y-95962838D01*
X161412371Y-95867600D01*
X161555228Y-95819980D01*
X161650466Y-95819980D01*
X161793323Y-95867600D01*
X161840942Y-95915219D01*
X162793323Y-96819980D02*
X162221895Y-96819980D01*
X162507609Y-96819980D02*
X162507609Y-95819980D01*
X162412371Y-95962838D01*
X162317133Y-96058076D01*
X162221895Y-96105695D01*
X163126657Y-95819980D02*
X163745704Y-95819980D01*
X163412371Y-96200933D01*
X163555228Y-96200933D01*
X163650466Y-96248552D01*
X163698085Y-96296171D01*
X163745704Y-96391409D01*
X163745704Y-96629504D01*
X163698085Y-96724742D01*
X163650466Y-96772361D01*
X163555228Y-96819980D01*
X163269514Y-96819980D01*
X163174276Y-96772361D01*
X163126657Y-96724742D01*
%TO.C,J1*%
X151431666Y-27387880D02*
X151431666Y-28102166D01*
X151384047Y-28245023D01*
X151288809Y-28340261D01*
X151145952Y-28387880D01*
X151050714Y-28387880D01*
X152431666Y-28387880D02*
X151860238Y-28387880D01*
X152145952Y-28387880D02*
X152145952Y-27387880D01*
X152050714Y-27530738D01*
X151955476Y-27625976D01*
X151860238Y-27673595D01*
%TO.C,FB1*%
X205236771Y-92247933D02*
X205236771Y-92581266D01*
X205760580Y-92581266D02*
X204760580Y-92581266D01*
X204760580Y-92105076D01*
X205236771Y-91390790D02*
X205284390Y-91247933D01*
X205332009Y-91200314D01*
X205427247Y-91152695D01*
X205570104Y-91152695D01*
X205665342Y-91200314D01*
X205712961Y-91247933D01*
X205760580Y-91343171D01*
X205760580Y-91724123D01*
X204760580Y-91724123D01*
X204760580Y-91390790D01*
X204808200Y-91295552D01*
X204855819Y-91247933D01*
X204951057Y-91200314D01*
X205046295Y-91200314D01*
X205141533Y-91247933D01*
X205189152Y-91295552D01*
X205236771Y-91390790D01*
X205236771Y-91724123D01*
X205760580Y-90200314D02*
X205760580Y-90771742D01*
X205760580Y-90486028D02*
X204760580Y-90486028D01*
X204903438Y-90581266D01*
X204998676Y-90676504D01*
X205046295Y-90771742D01*
%TO.C,SW2*%
X168642961Y-64680933D02*
X168690580Y-64538076D01*
X168690580Y-64299980D01*
X168642961Y-64204742D01*
X168595342Y-64157123D01*
X168500104Y-64109504D01*
X168404866Y-64109504D01*
X168309628Y-64157123D01*
X168262009Y-64204742D01*
X168214390Y-64299980D01*
X168166771Y-64490457D01*
X168119152Y-64585695D01*
X168071533Y-64633314D01*
X167976295Y-64680933D01*
X167881057Y-64680933D01*
X167785819Y-64633314D01*
X167738200Y-64585695D01*
X167690580Y-64490457D01*
X167690580Y-64252361D01*
X167738200Y-64109504D01*
X167690580Y-63776171D02*
X168690580Y-63538076D01*
X167976295Y-63347600D01*
X168690580Y-63157123D01*
X167690580Y-62919028D01*
X167785819Y-62585695D02*
X167738200Y-62538076D01*
X167690580Y-62442838D01*
X167690580Y-62204742D01*
X167738200Y-62109504D01*
X167785819Y-62061885D01*
X167881057Y-62014266D01*
X167976295Y-62014266D01*
X168119152Y-62061885D01*
X168690580Y-62633314D01*
X168690580Y-62014266D01*
%TO.C,D6*%
X183865304Y-95039580D02*
X183865304Y-94039580D01*
X184103400Y-94039580D01*
X184246257Y-94087200D01*
X184341495Y-94182438D01*
X184389114Y-94277676D01*
X184436733Y-94468152D01*
X184436733Y-94611009D01*
X184389114Y-94801485D01*
X184341495Y-94896723D01*
X184246257Y-94991961D01*
X184103400Y-95039580D01*
X183865304Y-95039580D01*
X185293876Y-94039580D02*
X185103400Y-94039580D01*
X185008161Y-94087200D01*
X184960542Y-94134819D01*
X184865304Y-94277676D01*
X184817685Y-94468152D01*
X184817685Y-94849104D01*
X184865304Y-94944342D01*
X184912923Y-94991961D01*
X185008161Y-95039580D01*
X185198638Y-95039580D01*
X185293876Y-94991961D01*
X185341495Y-94944342D01*
X185389114Y-94849104D01*
X185389114Y-94611009D01*
X185341495Y-94515771D01*
X185293876Y-94468152D01*
X185198638Y-94420533D01*
X185008161Y-94420533D01*
X184912923Y-94468152D01*
X184865304Y-94515771D01*
X184817685Y-94611009D01*
%TO.C,L1*%
X150092622Y-100018299D02*
X149616431Y-100018299D01*
X149616431Y-99018299D01*
X150949765Y-100018299D02*
X150378336Y-100018299D01*
X150664050Y-100018299D02*
X150664050Y-99018299D01*
X150568812Y-99161157D01*
X150473574Y-99256395D01*
X150378336Y-99304014D01*
D16*
%TO.C,IC2*%
X119811162Y-43999634D02*
X122492318Y-41749877D01*
X123989282Y-48978923D02*
X119811162Y-43999634D01*
X122492318Y-41749877D02*
X126670438Y-46729166D01*
X118148760Y-45557731D02*
X119106315Y-44754247D01*
X126670438Y-46729166D02*
X123989282Y-48978923D01*
D11*
%TO.C,J13*%
X184203879Y-48797788D02*
X186067963Y-51019317D01*
X188751788Y-51254121D02*
X190973317Y-49390037D01*
X189344037Y-44484683D02*
X191208121Y-46706212D01*
X184438683Y-46113963D02*
X186660212Y-44249879D01*
%TO.C,J4*%
X164130000Y-121530000D02*
X164130000Y-124130000D01*
X161470000Y-120260000D02*
X161470000Y-118930000D01*
X161470000Y-124130000D02*
X164130000Y-124130000D01*
X161470000Y-118930000D02*
X162800000Y-118930000D01*
X161470000Y-121530000D02*
X164130000Y-121530000D01*
X161470000Y-121530000D02*
X161470000Y-124130000D01*
%TO.C,C11*%
X140442000Y-83983420D02*
X140442000Y-84264580D01*
X141462000Y-83983420D02*
X141462000Y-84264580D01*
%TO.C,G\u002A\u002A\u002A*%
G36*
X182188307Y-105942469D02*
G01*
X182211935Y-105931108D01*
X182253881Y-105917663D01*
X182293355Y-105907760D01*
X182341432Y-105895827D01*
X182367462Y-105884435D01*
X182377989Y-105869410D01*
X182379650Y-105852725D01*
X182374482Y-105826826D01*
X182353326Y-105815201D01*
X182333522Y-105812366D01*
X182295444Y-105814845D01*
X182273218Y-105834552D01*
X182271432Y-105837723D01*
X182248753Y-105860420D01*
X182219759Y-105868302D01*
X182194755Y-105861228D01*
X182184043Y-105839061D01*
X182184043Y-105838903D01*
X182197472Y-105805355D01*
X182234710Y-105779956D01*
X182291184Y-105765007D01*
X182336992Y-105761982D01*
X182391100Y-105764464D01*
X182428632Y-105774890D01*
X182452807Y-105797735D01*
X182466842Y-105837470D01*
X182473955Y-105898569D01*
X182476522Y-105955918D01*
X182481076Y-106099442D01*
X182442438Y-106099411D01*
X182411910Y-106093886D01*
X182398277Y-106082812D01*
X182386962Y-106073491D01*
X182361798Y-106082812D01*
X182311381Y-106097342D01*
X182254515Y-106096103D01*
X182206091Y-106079652D01*
X182201756Y-106076823D01*
X182178908Y-106046660D01*
X182169171Y-106005169D01*
X182169348Y-106003632D01*
X182256490Y-106003632D01*
X182266625Y-106038868D01*
X182293500Y-106053681D01*
X182331821Y-106046467D01*
X182354692Y-106033355D01*
X182378368Y-106006594D01*
X182387248Y-105975880D01*
X182380917Y-105950563D01*
X182358955Y-105939995D01*
X182358859Y-105939995D01*
X182306903Y-105948170D01*
X182270739Y-105970148D01*
X182256516Y-106002105D01*
X182256490Y-106003632D01*
X182169348Y-106003632D01*
X182173805Y-105964944D01*
X182188307Y-105942469D01*
G37*
G36*
X182039374Y-105667523D02*
G01*
X182051352Y-105681862D01*
X182053638Y-105715409D01*
X182056344Y-105749704D01*
X182068523Y-105763744D01*
X182089861Y-105766122D01*
X182118266Y-105772914D01*
X182126085Y-105795101D01*
X182117595Y-105817825D01*
X182089861Y-105824080D01*
X182070348Y-105825743D01*
X182059502Y-105835111D01*
X182054784Y-105858746D01*
X182053656Y-105903213D01*
X182053638Y-105917751D01*
X182055186Y-105971339D01*
X182061041Y-106003296D01*
X182073013Y-106020863D01*
X182080711Y-106025912D01*
X182106231Y-106033838D01*
X182116935Y-106031252D01*
X182123529Y-106036576D01*
X182126085Y-106060741D01*
X182122395Y-106087317D01*
X182105462Y-106097806D01*
X182078141Y-106099379D01*
X182035601Y-106093247D01*
X182002237Y-106078934D01*
X181987432Y-106062753D01*
X181977900Y-106036084D01*
X181972040Y-105992303D01*
X181968955Y-105941285D01*
X181964789Y-105879439D01*
X181958552Y-105842371D01*
X181949335Y-105825898D01*
X181943433Y-105824080D01*
X181927052Y-105812007D01*
X181923233Y-105795101D01*
X181932292Y-105771500D01*
X181944967Y-105766122D01*
X181961042Y-105755125D01*
X181966662Y-105720027D01*
X181966701Y-105715409D01*
X181969124Y-105681337D01*
X181981415Y-105667362D01*
X182010169Y-105664696D01*
X182039374Y-105667523D01*
G37*
G36*
X176326490Y-105094306D02*
G01*
X176372554Y-105117440D01*
X176409784Y-105148452D01*
X176428698Y-105181060D01*
X176429118Y-105183419D01*
X176424038Y-105208726D01*
X176402748Y-105215628D01*
X176371147Y-105204448D01*
X176337968Y-105178399D01*
X176298487Y-105152193D01*
X176258458Y-105153719D01*
X176215585Y-105183274D01*
X176203523Y-105195768D01*
X176178177Y-105241664D01*
X176171900Y-105295454D01*
X176183321Y-105347905D01*
X176211066Y-105389785D01*
X176234765Y-105405903D01*
X176284000Y-105415668D01*
X176327541Y-105401816D01*
X176356490Y-105368009D01*
X176382799Y-105337428D01*
X176407678Y-105331438D01*
X176432422Y-105336002D01*
X176437158Y-105355509D01*
X176435248Y-105367821D01*
X176412828Y-105414251D01*
X176369877Y-105451113D01*
X176314594Y-105472624D01*
X176282104Y-105475819D01*
X176234791Y-105471012D01*
X176194455Y-105459778D01*
X176188161Y-105456731D01*
X176137741Y-105414506D01*
X176108124Y-105359668D01*
X176097882Y-105297924D01*
X176105587Y-105234983D01*
X176129811Y-105176552D01*
X176169126Y-105128341D01*
X176222104Y-105096057D01*
X176281073Y-105085331D01*
X176326490Y-105094306D01*
G37*
G36*
X176853120Y-106522508D02*
G01*
X176861863Y-106535583D01*
X176865638Y-106565201D01*
X176866416Y-106613754D01*
X176868069Y-106661718D01*
X176872393Y-106695640D01*
X176878194Y-106707936D01*
X176894732Y-106698352D01*
X176921795Y-106674395D01*
X176931618Y-106664468D01*
X176977466Y-106629973D01*
X177013808Y-106620999D01*
X177054353Y-106620999D01*
X176952433Y-106715181D01*
X176986789Y-106765894D01*
X177015988Y-106809465D01*
X177043242Y-106850851D01*
X177046873Y-106856453D01*
X177072601Y-106896299D01*
X177030983Y-106896299D01*
X177002986Y-106891533D01*
X176979278Y-106873180D01*
X176952480Y-106835157D01*
X176948093Y-106827971D01*
X176924024Y-106789733D01*
X176908930Y-106773127D01*
X176897444Y-106774601D01*
X176886619Y-106787272D01*
X176871194Y-106822852D01*
X176866416Y-106855600D01*
X176861146Y-106886158D01*
X176842008Y-106896142D01*
X176837437Y-106896299D01*
X176825606Y-106894701D01*
X176817523Y-106886829D01*
X176812478Y-106868066D01*
X176809759Y-106833791D01*
X176808656Y-106779389D01*
X176808458Y-106707936D01*
X176808704Y-106631038D01*
X176809915Y-106578499D01*
X176812801Y-106545702D01*
X176818074Y-106528029D01*
X176826444Y-106520860D01*
X176837437Y-106519573D01*
X176853120Y-106522508D01*
G37*
G36*
X182768746Y-105767386D02*
G01*
X182815054Y-105789482D01*
X182849811Y-105823115D01*
X182864926Y-105860208D01*
X182865047Y-105863527D01*
X182854184Y-105878949D01*
X182828901Y-105881703D01*
X182800159Y-105873108D01*
X182778916Y-105854484D01*
X182778110Y-105853058D01*
X182751235Y-105829342D01*
X182713395Y-105824169D01*
X182675649Y-105837245D01*
X182655771Y-105856282D01*
X182638997Y-105894982D01*
X182633215Y-105932750D01*
X182642520Y-105983777D01*
X182666515Y-106020210D01*
X182699324Y-106038987D01*
X182735071Y-106037044D01*
X182767880Y-106011318D01*
X182772198Y-106005198D01*
X182803636Y-105976164D01*
X182830489Y-105968974D01*
X182858432Y-105976929D01*
X182862967Y-105999077D01*
X182844323Y-106032845D01*
X182822693Y-106057025D01*
X182771443Y-106089702D01*
X182710625Y-106101110D01*
X182650385Y-106090571D01*
X182615397Y-106070891D01*
X182571698Y-106019762D01*
X182551722Y-105957915D01*
X182555928Y-105891912D01*
X182584775Y-105828314D01*
X182597285Y-105811885D01*
X182647815Y-105772181D01*
X182710162Y-105758848D01*
X182768746Y-105767386D01*
G37*
G36*
X177174164Y-105223417D02*
G01*
X177215586Y-105206838D01*
X177266438Y-105202257D01*
X177312825Y-105210011D01*
X177331334Y-105219606D01*
X177361384Y-105253428D01*
X177382760Y-105296117D01*
X177388036Y-105323241D01*
X177382762Y-105335463D01*
X177363222Y-105342466D01*
X177323838Y-105345496D01*
X177286610Y-105345928D01*
X177225688Y-105348712D01*
X177191760Y-105357893D01*
X177183306Y-105374711D01*
X177198802Y-105400410D01*
X177207953Y-105410095D01*
X177245977Y-105430810D01*
X177286328Y-105425418D01*
X177306274Y-105411130D01*
X177332545Y-105394224D01*
X177358388Y-105390012D01*
X177372939Y-105399665D01*
X177373546Y-105403886D01*
X177364194Y-105423875D01*
X177344567Y-105447354D01*
X177304462Y-105469557D01*
X177252370Y-105476172D01*
X177200902Y-105466934D01*
X177172099Y-105450976D01*
X177139940Y-105408151D01*
X177125618Y-105353697D01*
X177129048Y-105297071D01*
X177129066Y-105297029D01*
X177192442Y-105297029D01*
X177204340Y-105311128D01*
X177239929Y-105316581D01*
X177260046Y-105316949D01*
X177300524Y-105312350D01*
X177315547Y-105299074D01*
X177315589Y-105298113D01*
X177303712Y-105267662D01*
X177275117Y-105249449D01*
X177240356Y-105245914D01*
X177209981Y-105259491D01*
X177200693Y-105271576D01*
X177192442Y-105297029D01*
X177129066Y-105297029D01*
X177150146Y-105247726D01*
X177174164Y-105223417D01*
G37*
G36*
X177145185Y-106643383D02*
G01*
X177186607Y-106626803D01*
X177237459Y-106622223D01*
X177283846Y-106629977D01*
X177302355Y-106639572D01*
X177332405Y-106673394D01*
X177353781Y-106716083D01*
X177359057Y-106743207D01*
X177353783Y-106755429D01*
X177334243Y-106762431D01*
X177294859Y-106765462D01*
X177257631Y-106765894D01*
X177196709Y-106768678D01*
X177162782Y-106777859D01*
X177154327Y-106794677D01*
X177169823Y-106820376D01*
X177178974Y-106830061D01*
X177216998Y-106850775D01*
X177257349Y-106845384D01*
X177277295Y-106831096D01*
X177303566Y-106814189D01*
X177329410Y-106809977D01*
X177343960Y-106819630D01*
X177344567Y-106823851D01*
X177335215Y-106843840D01*
X177315589Y-106867320D01*
X177275483Y-106889523D01*
X177223391Y-106896138D01*
X177171923Y-106886900D01*
X177143121Y-106870942D01*
X177110961Y-106828117D01*
X177096639Y-106773663D01*
X177100070Y-106717037D01*
X177100088Y-106716995D01*
X177163463Y-106716995D01*
X177175361Y-106731094D01*
X177210950Y-106736547D01*
X177231067Y-106736915D01*
X177271546Y-106732315D01*
X177286568Y-106719040D01*
X177286610Y-106718078D01*
X177274733Y-106687627D01*
X177246138Y-106669415D01*
X177211377Y-106665879D01*
X177181002Y-106679457D01*
X177171714Y-106691541D01*
X177163463Y-106716995D01*
X177100088Y-106716995D01*
X177121167Y-106667692D01*
X177145185Y-106643383D01*
G37*
G36*
X179937011Y-105769979D02*
G01*
X179938178Y-105794124D01*
X179934335Y-105825789D01*
X179918465Y-105837519D01*
X179904200Y-105838569D01*
X179865846Y-105847061D01*
X179840436Y-105874510D01*
X179826425Y-105923877D01*
X179822263Y-105995472D01*
X179822263Y-106099379D01*
X179735326Y-106099379D01*
X179735326Y-105766122D01*
X179771550Y-105766122D01*
X179799568Y-105772542D01*
X179807758Y-105795898D01*
X179807773Y-105797626D01*
X179807773Y-105829131D01*
X179840375Y-105799292D01*
X179875450Y-105773826D01*
X179905577Y-105759566D01*
X179928317Y-105756198D01*
X179937011Y-105769979D01*
G37*
G36*
X183024431Y-105888071D02*
G01*
X183086559Y-105827096D01*
X183129143Y-105789630D01*
X183164067Y-105770949D01*
X183198247Y-105766122D01*
X183247806Y-105766122D01*
X183186988Y-105828091D01*
X183126170Y-105890059D01*
X183191216Y-105987020D01*
X183221493Y-106033043D01*
X183244262Y-106069349D01*
X183255643Y-106089698D01*
X183256262Y-106091679D01*
X183243567Y-106096909D01*
X183212625Y-106099355D01*
X183208844Y-106099379D01*
X183172550Y-106093869D01*
X183147770Y-106072090D01*
X183135683Y-106052288D01*
X183105368Y-105999798D01*
X183083222Y-105970341D01*
X183065597Y-105960493D01*
X183048847Y-105966826D01*
X183046618Y-105968598D01*
X183031068Y-105996324D01*
X183024461Y-106039927D01*
X183024431Y-106043195D01*
X183022570Y-106079617D01*
X183012644Y-106095522D01*
X182988140Y-106099328D01*
X182980962Y-106099379D01*
X182937494Y-106099379D01*
X182937494Y-105635717D01*
X183024431Y-105635717D01*
X183024431Y-105888071D01*
G37*
G36*
X175819679Y-106623782D02*
G01*
X175841307Y-106630137D01*
X175858087Y-106647294D01*
X175874427Y-106681512D01*
X175889143Y-106722425D01*
X175905358Y-106768199D01*
X175917589Y-106792349D01*
X175928491Y-106793522D01*
X175940720Y-106770364D01*
X175956930Y-106721521D01*
X175968953Y-106681724D01*
X175983773Y-106642460D01*
X176001097Y-106624663D01*
X176022627Y-106620999D01*
X176047682Y-106625233D01*
X176049823Y-106641441D01*
X176048057Y-106646356D01*
X176038957Y-106670381D01*
X176022658Y-106714370D01*
X176001848Y-106771046D01*
X175988286Y-106808194D01*
X175965549Y-106868240D01*
X175944715Y-106919059D01*
X175928715Y-106953708D01*
X175922565Y-106963955D01*
X175899056Y-106977594D01*
X175865307Y-106983139D01*
X175832379Y-106980676D01*
X175811333Y-106970290D01*
X175808686Y-106963072D01*
X175821039Y-106944837D01*
X175844910Y-106933817D01*
X175872108Y-106919713D01*
X175881133Y-106903403D01*
X175876248Y-106881205D01*
X175863126Y-106839127D01*
X175844071Y-106784281D01*
X175831689Y-106750699D01*
X175782245Y-106619319D01*
X175819679Y-106623782D01*
G37*
G36*
X178148409Y-104232019D02*
G01*
X178205745Y-104232858D01*
X178294972Y-104234724D01*
X178359796Y-104236832D01*
X178404790Y-104239841D01*
X178434527Y-104244406D01*
X178453579Y-104251185D01*
X178466520Y-104260834D01*
X178476056Y-104271692D01*
X178480094Y-104277353D01*
X178483718Y-104284831D01*
X178486952Y-104295636D01*
X178489818Y-104311278D01*
X178492337Y-104333268D01*
X178494533Y-104363116D01*
X178496427Y-104402331D01*
X178498041Y-104452425D01*
X178499398Y-104514907D01*
X178500521Y-104591287D01*
X178501430Y-104683077D01*
X178502150Y-104791786D01*
X178502701Y-104918924D01*
X178503106Y-105066002D01*
X178503388Y-105234529D01*
X178503568Y-105426017D01*
X178503669Y-105641976D01*
X178503713Y-105883915D01*
X178503723Y-106149172D01*
X178503723Y-107992445D01*
X178470895Y-108023285D01*
X178452846Y-108036695D01*
X178427941Y-108046809D01*
X178390751Y-108054767D01*
X178335845Y-108061705D01*
X178257793Y-108068762D01*
X178251449Y-108069279D01*
X178141033Y-108077799D01*
X178055656Y-108083037D01*
X177991540Y-108084768D01*
X177944905Y-108082764D01*
X177911974Y-108076800D01*
X177888968Y-108066648D01*
X177872109Y-108052083D01*
X177867239Y-108046256D01*
X177840737Y-107995132D01*
X177841313Y-107947608D01*
X177867068Y-107907322D01*
X177916102Y-107877915D01*
X177961308Y-107866065D01*
X178019963Y-107858912D01*
X178086339Y-107854278D01*
X178114319Y-107853466D01*
X178169366Y-107851318D01*
X178219932Y-107846788D01*
X178241102Y-107843546D01*
X178286381Y-107834490D01*
X178286381Y-104462072D01*
X178097360Y-104462072D01*
X178019821Y-104461804D01*
X177965702Y-104460414D01*
X177929448Y-104457022D01*
X177905501Y-104450748D01*
X177888305Y-104440712D01*
X177872774Y-104426507D01*
X177843703Y-104380184D01*
X177839422Y-104330403D01*
X177857790Y-104284413D01*
X177896666Y-104249461D01*
X177928765Y-104236849D01*
X177954408Y-104234228D01*
X178003346Y-104232495D01*
X178069904Y-104231731D01*
X178148409Y-104232019D01*
G37*
G36*
X175356419Y-105273917D02*
G01*
X175388893Y-105229155D01*
X175440746Y-105205096D01*
X175478359Y-105201494D01*
X175537153Y-105208830D01*
X175577619Y-105232650D01*
X175603467Y-105268906D01*
X175619911Y-105325395D01*
X175612455Y-105379090D01*
X175585895Y-105425275D01*
X175545030Y-105459234D01*
X175494656Y-105476253D01*
X175439572Y-105471615D01*
X175410226Y-105458832D01*
X175369421Y-105425475D01*
X175349428Y-105380353D01*
X175346447Y-105347712D01*
X175413952Y-105347712D01*
X175423531Y-105389871D01*
X175440621Y-105413957D01*
X175478164Y-105431483D01*
X175511014Y-105422141D01*
X175525107Y-105410095D01*
X175540806Y-105379032D01*
X175547228Y-105335071D01*
X175543892Y-105291526D01*
X175530489Y-105261889D01*
X175496818Y-105246068D01*
X175457509Y-105249739D01*
X175430899Y-105267515D01*
X175416121Y-105302601D01*
X175413952Y-105347712D01*
X175346447Y-105347712D01*
X175345485Y-105337177D01*
X175356419Y-105273917D01*
G37*
G36*
X180972054Y-105767386D02*
G01*
X181018363Y-105789482D01*
X181053120Y-105823115D01*
X181068235Y-105860208D01*
X181068355Y-105863527D01*
X181057492Y-105878949D01*
X181032210Y-105881703D01*
X181003467Y-105873108D01*
X180982225Y-105854484D01*
X180981419Y-105853058D01*
X180954543Y-105829342D01*
X180916703Y-105824169D01*
X180878958Y-105837245D01*
X180859080Y-105856282D01*
X180842306Y-105894982D01*
X180836524Y-105932750D01*
X180845828Y-105983777D01*
X180869823Y-106020210D01*
X180902633Y-106038987D01*
X180938380Y-106037044D01*
X180971188Y-106011318D01*
X180975506Y-106005198D01*
X181006944Y-105976164D01*
X181033798Y-105968974D01*
X181061740Y-105976929D01*
X181066275Y-105999077D01*
X181047632Y-106032845D01*
X181026001Y-106057025D01*
X180991448Y-106085176D01*
X180954061Y-106097339D01*
X180916216Y-106099379D01*
X180867213Y-106095314D01*
X180831967Y-106079422D01*
X180807173Y-106057767D01*
X180766201Y-106001796D01*
X180752897Y-105941018D01*
X180762749Y-105880756D01*
X180794227Y-105815800D01*
X180841545Y-105774806D01*
X180902890Y-105758758D01*
X180972054Y-105767386D01*
G37*
G36*
X175834168Y-105203816D02*
G01*
X175855797Y-105210172D01*
X175872577Y-105227328D01*
X175888917Y-105261546D01*
X175903633Y-105302460D01*
X175919847Y-105348233D01*
X175932078Y-105372383D01*
X175942980Y-105373556D01*
X175955209Y-105350398D01*
X175971420Y-105301555D01*
X175983442Y-105261758D01*
X175998262Y-105222494D01*
X176015586Y-105204697D01*
X176037116Y-105201033D01*
X176062171Y-105205267D01*
X176064313Y-105221475D01*
X176062546Y-105226390D01*
X176053446Y-105250415D01*
X176037147Y-105294404D01*
X176016338Y-105351080D01*
X176002775Y-105388228D01*
X175980038Y-105448275D01*
X175959205Y-105499093D01*
X175943205Y-105533742D01*
X175937054Y-105543990D01*
X175913546Y-105557628D01*
X175879797Y-105563173D01*
X175846869Y-105560710D01*
X175825823Y-105550325D01*
X175823176Y-105543106D01*
X175835529Y-105524871D01*
X175859399Y-105513851D01*
X175886597Y-105499748D01*
X175895623Y-105483437D01*
X175890737Y-105461240D01*
X175877615Y-105419161D01*
X175858560Y-105364315D01*
X175846178Y-105330734D01*
X175796734Y-105199353D01*
X175834168Y-105203816D01*
G37*
G36*
X176312000Y-106514272D02*
G01*
X176358064Y-106537406D01*
X176395294Y-106568418D01*
X176414209Y-106601026D01*
X176414628Y-106603385D01*
X176409549Y-106628692D01*
X176388258Y-106635593D01*
X176356658Y-106624414D01*
X176323479Y-106598365D01*
X176283997Y-106572159D01*
X176243969Y-106573685D01*
X176201096Y-106603240D01*
X176189034Y-106615733D01*
X176163687Y-106661630D01*
X176157411Y-106715420D01*
X176168831Y-106767871D01*
X176196576Y-106809751D01*
X176220276Y-106825868D01*
X176269510Y-106835634D01*
X176313052Y-106821782D01*
X176342001Y-106787975D01*
X176368310Y-106757394D01*
X176393189Y-106751404D01*
X176417933Y-106755967D01*
X176422669Y-106775474D01*
X176420759Y-106787787D01*
X176398338Y-106834217D01*
X176355387Y-106871079D01*
X176300105Y-106892590D01*
X176267614Y-106895785D01*
X176220302Y-106890978D01*
X176179966Y-106879744D01*
X176173672Y-106876696D01*
X176123252Y-106834472D01*
X176093634Y-106779634D01*
X176083392Y-106717890D01*
X176091097Y-106654948D01*
X176115321Y-106596518D01*
X176154637Y-106548307D01*
X176207615Y-106516023D01*
X176266583Y-106505297D01*
X176312000Y-106514272D01*
G37*
G36*
X179983217Y-105829935D02*
G01*
X180027424Y-105786307D01*
X180085677Y-105762997D01*
X180152364Y-105763072D01*
X180179470Y-105770111D01*
X180238428Y-105802690D01*
X180274700Y-105853292D01*
X180288238Y-105921842D01*
X180288340Y-105929245D01*
X180277571Y-106001507D01*
X180245509Y-106054165D01*
X180192522Y-106086870D01*
X180118980Y-106099269D01*
X180110255Y-106099379D01*
X180060435Y-106092523D01*
X180020332Y-106067357D01*
X180010253Y-106057767D01*
X179968714Y-106000518D01*
X179954445Y-105936645D01*
X179955562Y-105924527D01*
X180039604Y-105924527D01*
X180049055Y-105981875D01*
X180074364Y-106021425D01*
X180110968Y-106040003D01*
X180154305Y-106034435D01*
X180178107Y-106020855D01*
X180198121Y-105995140D01*
X180205888Y-105952137D01*
X180206233Y-105936145D01*
X180198224Y-105875007D01*
X180174067Y-105837773D01*
X180133563Y-105824157D01*
X180129530Y-105824080D01*
X180082101Y-105836422D01*
X180050978Y-105870885D01*
X180039607Y-105923621D01*
X180039604Y-105924527D01*
X179955562Y-105924527D01*
X179958670Y-105890811D01*
X179983217Y-105829935D01*
G37*
G36*
X175341929Y-106693883D02*
G01*
X175374404Y-106649121D01*
X175426257Y-106625062D01*
X175463870Y-106621460D01*
X175522663Y-106628795D01*
X175563129Y-106652616D01*
X175588978Y-106688871D01*
X175605422Y-106745361D01*
X175597965Y-106799056D01*
X175571406Y-106845241D01*
X175530540Y-106879200D01*
X175480167Y-106896218D01*
X175425083Y-106891581D01*
X175395737Y-106878798D01*
X175354931Y-106845440D01*
X175334939Y-106800319D01*
X175331957Y-106767678D01*
X175399463Y-106767678D01*
X175409041Y-106809837D01*
X175426131Y-106833923D01*
X175463675Y-106851449D01*
X175496524Y-106842106D01*
X175510617Y-106830061D01*
X175526316Y-106798998D01*
X175532739Y-106755036D01*
X175529402Y-106711492D01*
X175515999Y-106681855D01*
X175482329Y-106666033D01*
X175443019Y-106669705D01*
X175416410Y-106687480D01*
X175401632Y-106722567D01*
X175399463Y-106767678D01*
X175331957Y-106767678D01*
X175330995Y-106757142D01*
X175341929Y-106693883D01*
G37*
G36*
X181758319Y-105637660D02*
G01*
X181818027Y-105660872D01*
X181855507Y-105697035D01*
X181871782Y-105733521D01*
X181875337Y-105755413D01*
X181863084Y-105764436D01*
X181831717Y-105766122D01*
X181793994Y-105761209D01*
X181776347Y-105743970D01*
X181774312Y-105737803D01*
X181755517Y-105711301D01*
X181722536Y-105698396D01*
X181684091Y-105698083D01*
X181648906Y-105709357D01*
X181625700Y-105731214D01*
X181621587Y-105755395D01*
X181629463Y-105774594D01*
X181650708Y-105790984D01*
X181691029Y-105808060D01*
X181727625Y-105820369D01*
X181805039Y-105852014D01*
X181859819Y-105889264D01*
X181889504Y-105930138D01*
X181894254Y-105954611D01*
X181881719Y-106008856D01*
X181849258Y-106056562D01*
X181819705Y-106078732D01*
X181771274Y-106093118D01*
X181708719Y-106098082D01*
X181645141Y-106093731D01*
X181593643Y-106080175D01*
X181586717Y-106076793D01*
X181542657Y-106040769D01*
X181519595Y-105995334D01*
X181517528Y-105977171D01*
X181528743Y-105959289D01*
X181554915Y-105953252D01*
X181584836Y-105958456D01*
X181607295Y-105974291D01*
X181611325Y-105982252D01*
X181634005Y-106011143D01*
X181673386Y-106027928D01*
X181719526Y-106031901D01*
X181762483Y-106022356D01*
X181792315Y-105998587D01*
X181794272Y-105995254D01*
X181800980Y-105965809D01*
X181784908Y-105940965D01*
X181743834Y-105918665D01*
X181693128Y-105901748D01*
X181618700Y-105876221D01*
X181569534Y-105848461D01*
X181541925Y-105815365D01*
X181532170Y-105773828D01*
X181532017Y-105766740D01*
X181539155Y-105718980D01*
X181557109Y-105682063D01*
X181557374Y-105681751D01*
X181601481Y-105650164D01*
X181662145Y-105632987D01*
X181729678Y-105632347D01*
X181758319Y-105637660D01*
G37*
G36*
X168086574Y-105620390D02*
G01*
X168096831Y-105670738D01*
X168105754Y-105713191D01*
X168109607Y-105730649D01*
X168110714Y-105741514D01*
X168105737Y-105749979D01*
X168090815Y-105756918D01*
X168062083Y-105763200D01*
X168015679Y-105769699D01*
X167947739Y-105777286D01*
X167865697Y-105785693D01*
X167761247Y-105796950D01*
X167643899Y-105810795D01*
X167519940Y-105826381D01*
X167395659Y-105842861D01*
X167277346Y-105859387D01*
X167171288Y-105875112D01*
X167083773Y-105889187D01*
X167040750Y-105896872D01*
X166984926Y-105906691D01*
X166950101Y-105909390D01*
X166928947Y-105903960D01*
X166914136Y-105889390D01*
X166906852Y-105878415D01*
X166864717Y-105810663D01*
X166836589Y-105763639D01*
X166820550Y-105733863D01*
X166814678Y-105717853D01*
X166815607Y-105712956D01*
X166835131Y-105705632D01*
X166879816Y-105695482D01*
X166946038Y-105683036D01*
X167030174Y-105668822D01*
X167128602Y-105653371D01*
X167237697Y-105637209D01*
X167353836Y-105620868D01*
X167473397Y-105604875D01*
X167592755Y-105589759D01*
X167708288Y-105576050D01*
X167816372Y-105564277D01*
X167871643Y-105558788D01*
X168070423Y-105539861D01*
X168086574Y-105620390D01*
G37*
G36*
X175736239Y-106896299D02*
G01*
X175663792Y-106896299D01*
X175663792Y-106519573D01*
X175736239Y-106519573D01*
X175736239Y-106896299D01*
G37*
G36*
X176518507Y-105362956D02*
G01*
X176547615Y-105333625D01*
X176587194Y-105317924D01*
X176600400Y-105316949D01*
X176649329Y-105309755D01*
X176674746Y-105288872D01*
X176678053Y-105273481D01*
X176667118Y-105246711D01*
X176639534Y-105237458D01*
X176603132Y-105247727D01*
X176595462Y-105252313D01*
X176558511Y-105267961D01*
X176528679Y-105270754D01*
X176496935Y-105266236D01*
X176529536Y-105233635D01*
X176561628Y-105211176D01*
X176604912Y-105202017D01*
X176630962Y-105201255D01*
X176680603Y-105203307D01*
X176713194Y-105212515D01*
X176732809Y-105234039D01*
X176743520Y-105273036D01*
X176749399Y-105334663D01*
X176750500Y-105352640D01*
X176753625Y-105412431D01*
X176753674Y-105449003D01*
X176749537Y-105468050D01*
X176740102Y-105475265D01*
X176726351Y-105476349D01*
X176698972Y-105469654D01*
X176689435Y-105459766D01*
X176678120Y-105450445D01*
X176652956Y-105459766D01*
X176599699Y-105474817D01*
X176546028Y-105468263D01*
X176529536Y-105460683D01*
X176505916Y-105433690D01*
X176503601Y-105401193D01*
X176565008Y-105401193D01*
X176566928Y-105409961D01*
X176584498Y-105427760D01*
X176621393Y-105430371D01*
X176623618Y-105430168D01*
X176657457Y-105422622D01*
X176672114Y-105403483D01*
X176675393Y-105385774D01*
X176674727Y-105356759D01*
X176658839Y-105346645D01*
X176645561Y-105345928D01*
X176604675Y-105354104D01*
X176575324Y-105374562D01*
X176565008Y-105401193D01*
X176503601Y-105401193D01*
X176503424Y-105398712D01*
X176518507Y-105362956D01*
G37*
G36*
X175095971Y-106519573D02*
G01*
X175157146Y-106520891D01*
X175197222Y-106525906D01*
X175224000Y-106536209D01*
X175240865Y-106549116D01*
X175262344Y-106584574D01*
X175272880Y-106632615D01*
X175270598Y-106679312D01*
X175261488Y-106702144D01*
X175226485Y-106730632D01*
X175170541Y-106747604D01*
X175121390Y-106751404D01*
X175055235Y-106751404D01*
X175055235Y-106823851D01*
X175054060Y-106866848D01*
X175048067Y-106888298D01*
X175033549Y-106895612D01*
X175019011Y-106896299D01*
X174982788Y-106896299D01*
X174982788Y-106634695D01*
X175055235Y-106634695D01*
X175056627Y-106672121D01*
X175065925Y-106688844D01*
X175090811Y-106693142D01*
X175109570Y-106693225D01*
X175150588Y-106689969D01*
X175180447Y-106682265D01*
X175183178Y-106680785D01*
X175196017Y-106658191D01*
X175197667Y-106626672D01*
X175192277Y-106601115D01*
X175178288Y-106587985D01*
X175147499Y-106582124D01*
X175124060Y-106580359D01*
X175055235Y-106575943D01*
X175055235Y-106634695D01*
X174982788Y-106634695D01*
X174982788Y-106519573D01*
X175095971Y-106519573D01*
G37*
G36*
X170472947Y-105538768D02*
G01*
X170565862Y-105547543D01*
X170670162Y-105558293D01*
X170782178Y-105570557D01*
X170898245Y-105583871D01*
X171014695Y-105597773D01*
X171127863Y-105611799D01*
X171234080Y-105625486D01*
X171329680Y-105638373D01*
X171410996Y-105649995D01*
X171474361Y-105659890D01*
X171516110Y-105667595D01*
X171532455Y-105672511D01*
X171526960Y-105685516D01*
X171506528Y-105712652D01*
X171486734Y-105735566D01*
X171451581Y-105776464D01*
X171421008Y-105815346D01*
X171410589Y-105830131D01*
X171398472Y-105846399D01*
X171384005Y-105857448D01*
X171362824Y-105863404D01*
X171330563Y-105864392D01*
X171282858Y-105860539D01*
X171215345Y-105851970D01*
X171123658Y-105838812D01*
X171121350Y-105838474D01*
X171048724Y-105828684D01*
X170955897Y-105817441D01*
X170851548Y-105805727D01*
X170744351Y-105794521D01*
X170661310Y-105786483D01*
X170375144Y-105759967D01*
X170375144Y-105530088D01*
X170472947Y-105538768D01*
G37*
G36*
X176504018Y-106782922D02*
G01*
X176533125Y-106753591D01*
X176572704Y-106737890D01*
X176585910Y-106736915D01*
X176634840Y-106729721D01*
X176660256Y-106708838D01*
X176663563Y-106693446D01*
X176652629Y-106666677D01*
X176625045Y-106657423D01*
X176588643Y-106667693D01*
X176580973Y-106672279D01*
X176544021Y-106687927D01*
X176514190Y-106690720D01*
X176482445Y-106686202D01*
X176515047Y-106653600D01*
X176547138Y-106631142D01*
X176590422Y-106621983D01*
X176616473Y-106621221D01*
X176666113Y-106623272D01*
X176698704Y-106632481D01*
X176718319Y-106654005D01*
X176729030Y-106693002D01*
X176734910Y-106754629D01*
X176736011Y-106772606D01*
X176739135Y-106832396D01*
X176739185Y-106868968D01*
X176735048Y-106888016D01*
X176725612Y-106895231D01*
X176711862Y-106896315D01*
X176684482Y-106889620D01*
X176674945Y-106879731D01*
X176663630Y-106870411D01*
X176638467Y-106879731D01*
X176585210Y-106894783D01*
X176531538Y-106888228D01*
X176515047Y-106880649D01*
X176491427Y-106853655D01*
X176489111Y-106821158D01*
X176550518Y-106821158D01*
X176552439Y-106829926D01*
X176570009Y-106847725D01*
X176606904Y-106850337D01*
X176609128Y-106850133D01*
X176642967Y-106842587D01*
X176657624Y-106823449D01*
X176660903Y-106805740D01*
X176660238Y-106776725D01*
X176644350Y-106766611D01*
X176631072Y-106765894D01*
X176590186Y-106774070D01*
X176560835Y-106794527D01*
X176550518Y-106821158D01*
X176489111Y-106821158D01*
X176488934Y-106818678D01*
X176504018Y-106782922D01*
G37*
G36*
X175750728Y-105476333D02*
G01*
X175678281Y-105476333D01*
X175678281Y-105099607D01*
X175750728Y-105099607D01*
X175750728Y-105476333D01*
G37*
G36*
X169416659Y-105493589D02*
G01*
X169505693Y-105494243D01*
X169580241Y-105495472D01*
X169636353Y-105497320D01*
X169639804Y-105497489D01*
X169853523Y-105508324D01*
X169853523Y-105722653D01*
X169251757Y-105722653D01*
X169096847Y-105722469D01*
X168968784Y-105721872D01*
X168865439Y-105720801D01*
X168784683Y-105719191D01*
X168724386Y-105716979D01*
X168682419Y-105714101D01*
X168656651Y-105710495D01*
X168644955Y-105706097D01*
X168643847Y-105704542D01*
X168633637Y-105670261D01*
X168622018Y-105625319D01*
X168610979Y-105578367D01*
X168602508Y-105538056D01*
X168598595Y-105513035D01*
X168598893Y-105509020D01*
X168615462Y-105506336D01*
X168657058Y-105503788D01*
X168719731Y-105501422D01*
X168799528Y-105499279D01*
X168892499Y-105497405D01*
X168994692Y-105495843D01*
X169102156Y-105494636D01*
X169210940Y-105493829D01*
X169317091Y-105493466D01*
X169416659Y-105493589D01*
G37*
G36*
X179422321Y-105638020D02*
G01*
X179494339Y-105641306D01*
X179543490Y-105646287D01*
X179575882Y-105654061D01*
X179597618Y-105665724D01*
X179603439Y-105670564D01*
X179627969Y-105709779D01*
X179632986Y-105757363D01*
X179618295Y-105801248D01*
X179605800Y-105816040D01*
X179587851Y-105834633D01*
X179588902Y-105849000D01*
X179610377Y-105870255D01*
X179613060Y-105872621D01*
X179648237Y-105919249D01*
X179657839Y-105970849D01*
X179640996Y-106020991D01*
X179634373Y-106030284D01*
X179597827Y-106062530D01*
X179545237Y-106084027D01*
X179472512Y-106095902D01*
X179383957Y-106099298D01*
X179271664Y-106099379D01*
X179271664Y-106026932D01*
X179373090Y-106026932D01*
X179439245Y-106026932D01*
X179486128Y-106023708D01*
X179524489Y-106015624D01*
X179533426Y-106011933D01*
X179556677Y-105983801D01*
X179561453Y-105953616D01*
X179551280Y-105916983D01*
X179519354Y-105893874D01*
X179463561Y-105883139D01*
X179430104Y-105882037D01*
X179373090Y-105882037D01*
X179373090Y-106026932D01*
X179271664Y-106026932D01*
X179271664Y-105825594D01*
X179373090Y-105825594D01*
X179447667Y-105821214D01*
X179502569Y-105813518D01*
X179533335Y-105797574D01*
X179538152Y-105791478D01*
X179547478Y-105757986D01*
X179530130Y-105732364D01*
X179487683Y-105716009D01*
X179447667Y-105711029D01*
X179373090Y-105706650D01*
X179373090Y-105825594D01*
X179271664Y-105825594D01*
X179271664Y-105633079D01*
X179422321Y-105638020D01*
G37*
G36*
X180596126Y-105759840D02*
G01*
X180630963Y-105774101D01*
X180654619Y-105799408D01*
X180668945Y-105840451D01*
X180675795Y-105901921D01*
X180677140Y-105964953D01*
X180677140Y-106099379D01*
X180590203Y-106099379D01*
X180590203Y-105979117D01*
X180588148Y-105908835D01*
X180580713Y-105862798D01*
X180565996Y-105836481D01*
X180542094Y-105825360D01*
X180525001Y-105824080D01*
X180495443Y-105828967D01*
X180476082Y-105846645D01*
X180465014Y-105881639D01*
X180460337Y-105938473D01*
X180459798Y-105979117D01*
X180459798Y-106099379D01*
X180372862Y-106099379D01*
X180372862Y-105766122D01*
X180409085Y-105766122D01*
X180437233Y-105773027D01*
X180445309Y-105786038D01*
X180451010Y-105795968D01*
X180471676Y-105791725D01*
X180501607Y-105778101D01*
X180560135Y-105758636D01*
X180596126Y-105759840D01*
G37*
G36*
X176867609Y-105102543D02*
G01*
X176876353Y-105115618D01*
X176880127Y-105145235D01*
X176880905Y-105193789D01*
X176882558Y-105241752D01*
X176886883Y-105275674D01*
X176892684Y-105287970D01*
X176909222Y-105278387D01*
X176936285Y-105254429D01*
X176946108Y-105244502D01*
X176991955Y-105210007D01*
X177028298Y-105201033D01*
X177068842Y-105201033D01*
X177017883Y-105248124D01*
X176966923Y-105295215D01*
X177001278Y-105345928D01*
X177030477Y-105389499D01*
X177057731Y-105430885D01*
X177061362Y-105436487D01*
X177087090Y-105476333D01*
X177045472Y-105476333D01*
X177017475Y-105471567D01*
X176993768Y-105453215D01*
X176966969Y-105415191D01*
X176962583Y-105408005D01*
X176938514Y-105369768D01*
X176923419Y-105353162D01*
X176911934Y-105354636D01*
X176901108Y-105367306D01*
X176885684Y-105402887D01*
X176880905Y-105435634D01*
X176875636Y-105466192D01*
X176856498Y-105476176D01*
X176851926Y-105476333D01*
X176840096Y-105474735D01*
X176832013Y-105466864D01*
X176826967Y-105448100D01*
X176824248Y-105413826D01*
X176823145Y-105359423D01*
X176822947Y-105287970D01*
X176823193Y-105211072D01*
X176824404Y-105158533D01*
X176827291Y-105125736D01*
X176832564Y-105108063D01*
X176840933Y-105100894D01*
X176851926Y-105099607D01*
X176867609Y-105102543D01*
G37*
G36*
X175124950Y-105099607D02*
G01*
X175186125Y-105100925D01*
X175226201Y-105105941D01*
X175252979Y-105116244D01*
X175269844Y-105129151D01*
X175291323Y-105164609D01*
X175301859Y-105212650D01*
X175299577Y-105259346D01*
X175290466Y-105282179D01*
X175255464Y-105310666D01*
X175199520Y-105327638D01*
X175150369Y-105331438D01*
X175084214Y-105331438D01*
X175084214Y-105403886D01*
X175083039Y-105446882D01*
X175077046Y-105468332D01*
X175062528Y-105475647D01*
X175047990Y-105476333D01*
X175011766Y-105476333D01*
X175011766Y-105214729D01*
X175084214Y-105214729D01*
X175085606Y-105252155D01*
X175094904Y-105268879D01*
X175119790Y-105273176D01*
X175138549Y-105273259D01*
X175179567Y-105270003D01*
X175209426Y-105262300D01*
X175212157Y-105260819D01*
X175224995Y-105238225D01*
X175226646Y-105206706D01*
X175221256Y-105181149D01*
X175207267Y-105168020D01*
X175176478Y-105162158D01*
X175153039Y-105160394D01*
X175084214Y-105155977D01*
X175084214Y-105214729D01*
X175011766Y-105214729D01*
X175011766Y-105099607D01*
X175124950Y-105099607D01*
G37*
G36*
X181157290Y-105832041D02*
G01*
X181195744Y-105790317D01*
X181246350Y-105763859D01*
X181306161Y-105757363D01*
X181363499Y-105771643D01*
X181419114Y-105808180D01*
X181451787Y-105862088D01*
X181461985Y-105930717D01*
X181451065Y-106002357D01*
X181418650Y-106054659D01*
X181365255Y-106087136D01*
X181291397Y-106099298D01*
X181283901Y-106099379D01*
X181234080Y-106092523D01*
X181193978Y-106067357D01*
X181183898Y-106057767D01*
X181144292Y-106001897D01*
X181128618Y-105942524D01*
X181129511Y-105932750D01*
X181213250Y-105932750D01*
X181223422Y-105986705D01*
X181250317Y-106023574D01*
X181288505Y-106039905D01*
X181332557Y-106032243D01*
X181351752Y-106020855D01*
X181371767Y-105995140D01*
X181379533Y-105952137D01*
X181379878Y-105936145D01*
X181372190Y-105875741D01*
X181348558Y-105838889D01*
X181308126Y-105824404D01*
X181299234Y-105824080D01*
X181256726Y-105837069D01*
X181226653Y-105872268D01*
X181213489Y-105924020D01*
X181213250Y-105932750D01*
X181129511Y-105932750D01*
X181133933Y-105884341D01*
X181157290Y-105832041D01*
G37*
G36*
X164775557Y-106854910D02*
G01*
X164778492Y-106804591D01*
X164785549Y-106765158D01*
X164798502Y-106727570D01*
X164819122Y-106682783D01*
X164824715Y-106671369D01*
X164872881Y-106592781D01*
X164941112Y-106507923D01*
X165023332Y-106423025D01*
X165113462Y-106344319D01*
X165205425Y-106278037D01*
X165213008Y-106273252D01*
X165260443Y-106242904D01*
X165296716Y-106218225D01*
X165316106Y-106203168D01*
X165317857Y-106200805D01*
X165307222Y-106188941D01*
X165280281Y-106167997D01*
X165268697Y-106159902D01*
X165234396Y-106133402D01*
X165188688Y-106093963D01*
X165140473Y-106049319D01*
X165132114Y-106041228D01*
X165027426Y-105923606D01*
X164951372Y-105803522D01*
X164903956Y-105681901D01*
X164887080Y-105572021D01*
X165116668Y-105572021D01*
X165132979Y-105661001D01*
X165144627Y-105691311D01*
X165176334Y-105743654D01*
X165226530Y-105806139D01*
X165289531Y-105872924D01*
X165359652Y-105938168D01*
X165431209Y-105996029D01*
X165463144Y-106018626D01*
X165561563Y-106084659D01*
X165639206Y-106050322D01*
X165693314Y-106027905D01*
X165763021Y-106001255D01*
X165843250Y-105972077D01*
X165928923Y-105942077D01*
X166014964Y-105912960D01*
X166096295Y-105886432D01*
X166167839Y-105864200D01*
X166224518Y-105847968D01*
X166261257Y-105839442D01*
X166269521Y-105838569D01*
X166282303Y-105850440D01*
X166304050Y-105881908D01*
X166330563Y-105926755D01*
X166336864Y-105938255D01*
X166390707Y-106037941D01*
X166324463Y-106054621D01*
X166274432Y-106068330D01*
X166211119Y-106087304D01*
X166139914Y-106109735D01*
X166066205Y-106133815D01*
X165995383Y-106157735D01*
X165932838Y-106179688D01*
X165883960Y-106197864D01*
X165854138Y-106210457D01*
X165847619Y-106214603D01*
X165856323Y-106226220D01*
X165889867Y-106245181D01*
X165945392Y-106270319D01*
X166020036Y-106300467D01*
X166110939Y-106334460D01*
X166215241Y-106371129D01*
X166304763Y-106401070D01*
X166616663Y-106494142D01*
X166952950Y-106577580D01*
X167310557Y-106651033D01*
X167686419Y-106714151D01*
X168077470Y-106766585D01*
X168480646Y-106807984D01*
X168892879Y-106837998D01*
X169311106Y-106856278D01*
X169732260Y-106862472D01*
X170153276Y-106856232D01*
X170259228Y-106852647D01*
X170732975Y-106827992D01*
X171180834Y-106790746D01*
X171603037Y-106740874D01*
X171999813Y-106678341D01*
X172371395Y-106603110D01*
X172718011Y-106515147D01*
X172994111Y-106430027D01*
X173060422Y-106407109D01*
X173115468Y-106386875D01*
X173154108Y-106371305D01*
X173171204Y-106362378D01*
X173171598Y-106361663D01*
X173158829Y-106352616D01*
X173123940Y-106335769D01*
X173072049Y-106313217D01*
X173008274Y-106287059D01*
X172937729Y-106259391D01*
X172865534Y-106232311D01*
X172796803Y-106207916D01*
X172794881Y-106207259D01*
X172709338Y-106179404D01*
X172604493Y-106147355D01*
X172488693Y-106113479D01*
X172370286Y-106080144D01*
X172257619Y-106049718D01*
X172159041Y-106024569D01*
X172109483Y-106012851D01*
X171967439Y-105980733D01*
X171992828Y-105942252D01*
X172015855Y-105905393D01*
X172043332Y-105858832D01*
X172052797Y-105842191D01*
X172074823Y-105806428D01*
X172092250Y-105784213D01*
X172097765Y-105780611D01*
X172114823Y-105783899D01*
X172154761Y-105792944D01*
X172212335Y-105806521D01*
X172282300Y-105823403D01*
X172314892Y-105831375D01*
X172454152Y-105868160D01*
X172605867Y-105912748D01*
X172762870Y-105962716D01*
X172917993Y-106015645D01*
X173064069Y-106069114D01*
X173193929Y-106120704D01*
X173270705Y-106154110D01*
X173463037Y-106241873D01*
X173567265Y-106182851D01*
X173713719Y-106091176D01*
X173831644Y-105998252D01*
X173920981Y-105904230D01*
X173981671Y-105809258D01*
X174013655Y-105713487D01*
X174016872Y-105617064D01*
X173991264Y-105520141D01*
X173936771Y-105422865D01*
X173891779Y-105366198D01*
X173803056Y-105280226D01*
X173688119Y-105193099D01*
X173549617Y-105106234D01*
X173390200Y-105021047D01*
X173212520Y-104938955D01*
X173019225Y-104861374D01*
X172814114Y-104790092D01*
X172477966Y-104691746D01*
X172118515Y-104605220D01*
X171738952Y-104530593D01*
X171342469Y-104467945D01*
X170932257Y-104417355D01*
X170511506Y-104378903D01*
X170083409Y-104352667D01*
X169651157Y-104338727D01*
X169217940Y-104337163D01*
X168786950Y-104348053D01*
X168361378Y-104371477D01*
X167944415Y-104407514D01*
X167539252Y-104456244D01*
X167149082Y-104517745D01*
X166777094Y-104592098D01*
X166593398Y-104635493D01*
X166345289Y-104702716D01*
X166116288Y-104775496D01*
X165907615Y-104853191D01*
X165720489Y-104935162D01*
X165556130Y-105020767D01*
X165415757Y-105109367D01*
X165300591Y-105200320D01*
X165211851Y-105292986D01*
X165150756Y-105386725D01*
X165146609Y-105395292D01*
X165121237Y-105479482D01*
X165116668Y-105572021D01*
X164887080Y-105572021D01*
X164885183Y-105559666D01*
X164895056Y-105437741D01*
X164933580Y-105317048D01*
X165000760Y-105198512D01*
X165096598Y-105083055D01*
X165127493Y-105052431D01*
X165259072Y-104942865D01*
X165417969Y-104838550D01*
X165602943Y-104739810D01*
X165812756Y-104646968D01*
X166046167Y-104560350D01*
X166301936Y-104480278D01*
X166578825Y-104407077D01*
X166875592Y-104341071D01*
X167191000Y-104282585D01*
X167523808Y-104231941D01*
X167872775Y-104189465D01*
X168236664Y-104155479D01*
X168614234Y-104130309D01*
X168665389Y-104127644D01*
X168791362Y-104122724D01*
X168939684Y-104119327D01*
X169105373Y-104117392D01*
X169283448Y-104116860D01*
X169468928Y-104117670D01*
X169656833Y-104119762D01*
X169842182Y-104123074D01*
X170019993Y-104127548D01*
X170185286Y-104133121D01*
X170333080Y-104139734D01*
X170458393Y-104147326D01*
X170491059Y-104149802D01*
X170875608Y-104185325D01*
X171243950Y-104228728D01*
X171595237Y-104279709D01*
X171928621Y-104337968D01*
X172243254Y-104403202D01*
X172538288Y-104475110D01*
X172812874Y-104553392D01*
X173066164Y-104637747D01*
X173297310Y-104727872D01*
X173505464Y-104823467D01*
X173689777Y-104924231D01*
X173849401Y-105029862D01*
X173983487Y-105140060D01*
X174091189Y-105254522D01*
X174171657Y-105372949D01*
X174216697Y-105472729D01*
X174240093Y-105578313D01*
X174241979Y-105693151D01*
X174222942Y-105807752D01*
X174190352Y-105898734D01*
X174141132Y-105982128D01*
X174070720Y-106071163D01*
X173984565Y-106160086D01*
X173888118Y-106243140D01*
X173811811Y-106298447D01*
X173689337Y-106379939D01*
X173745617Y-106423233D01*
X173818629Y-106485073D01*
X173891858Y-106557040D01*
X173959352Y-106632475D01*
X174015158Y-106704713D01*
X174053325Y-106767095D01*
X174053880Y-106768223D01*
X174102278Y-106890972D01*
X174123310Y-107007900D01*
X174117044Y-107122523D01*
X174083549Y-107238355D01*
X174063834Y-107283130D01*
X173992688Y-107399960D01*
X173893828Y-107512535D01*
X173768250Y-107620535D01*
X173616950Y-107723635D01*
X173440927Y-107821513D01*
X173241175Y-107913845D01*
X173018693Y-108000308D01*
X172774476Y-108080580D01*
X172509521Y-108154338D01*
X172224826Y-108221257D01*
X171921386Y-108281016D01*
X171600198Y-108333292D01*
X171262259Y-108377760D01*
X170908566Y-108414099D01*
X170540115Y-108441984D01*
X170476570Y-108445833D01*
X170334933Y-108452787D01*
X170172701Y-108458520D01*
X169996577Y-108462956D01*
X169813267Y-108466019D01*
X169629472Y-108467634D01*
X169451898Y-108467727D01*
X169287248Y-108466222D01*
X169142225Y-108463044D01*
X169092828Y-108461350D01*
X168611438Y-108435526D01*
X168144733Y-108395945D01*
X167695206Y-108342929D01*
X167265347Y-108276798D01*
X166857648Y-108197876D01*
X166607887Y-108140405D01*
X166476076Y-108105950D01*
X166332507Y-108064800D01*
X166183783Y-108019114D01*
X166036504Y-107971050D01*
X165897273Y-107922767D01*
X165772690Y-107876423D01*
X165669358Y-107834176D01*
X165663744Y-107831715D01*
X165468598Y-107737924D01*
X165294219Y-107637927D01*
X165142184Y-107532953D01*
X165014068Y-107424229D01*
X164911448Y-107312986D01*
X164835900Y-107200451D01*
X164823682Y-107176891D01*
X164801622Y-107130167D01*
X164787464Y-107092108D01*
X164779465Y-107053719D01*
X164775886Y-107006000D01*
X164774985Y-106939956D01*
X164774972Y-106925278D01*
X164993386Y-106925278D01*
X165000287Y-107004062D01*
X165023174Y-107074911D01*
X165065325Y-107144992D01*
X165127686Y-107218985D01*
X165245004Y-107327384D01*
X165389826Y-107431449D01*
X165560958Y-107530861D01*
X165757203Y-107625298D01*
X165977366Y-107714441D01*
X166220252Y-107797970D01*
X166484666Y-107875563D01*
X166769412Y-107946901D01*
X167073295Y-108011664D01*
X167395119Y-108069530D01*
X167733690Y-108120180D01*
X168087811Y-108163294D01*
X168456288Y-108198552D01*
X168837925Y-108225632D01*
X168897220Y-108229023D01*
X168991096Y-108232890D01*
X169109106Y-108235630D01*
X169246710Y-108237295D01*
X169399368Y-108237938D01*
X169562541Y-108237611D01*
X169731690Y-108236368D01*
X169902274Y-108234261D01*
X170069753Y-108231342D01*
X170229589Y-108227665D01*
X170377241Y-108223282D01*
X170508171Y-108218245D01*
X170617837Y-108212608D01*
X170679422Y-108208341D01*
X171084935Y-108170660D01*
X171464037Y-108124729D01*
X171818168Y-108070307D01*
X172148768Y-108007154D01*
X172457278Y-107935026D01*
X172685180Y-107871884D01*
X172932672Y-107791990D01*
X173151906Y-107708038D01*
X173343348Y-107619798D01*
X173507466Y-107527038D01*
X173644727Y-107429526D01*
X173730094Y-107353367D01*
X173812064Y-107260758D01*
X173866411Y-107172225D01*
X173893774Y-107085449D01*
X173894796Y-106998112D01*
X173870116Y-106907895D01*
X173859798Y-106884174D01*
X173820482Y-106819562D01*
X173761139Y-106747400D01*
X173687436Y-106673541D01*
X173605038Y-106603837D01*
X173549097Y-106563257D01*
X173455680Y-106500123D01*
X173389713Y-106525274D01*
X173177589Y-106603640D01*
X172981745Y-106670235D01*
X172793287Y-106727639D01*
X172603322Y-106778435D01*
X172402956Y-106825205D01*
X172237037Y-106859888D01*
X171864344Y-106927915D01*
X171487628Y-106983122D01*
X171102914Y-107025831D01*
X170706226Y-107056367D01*
X170293591Y-107075052D01*
X169861033Y-107082211D01*
X169527511Y-107080303D01*
X169273930Y-107075395D01*
X169042371Y-107068086D01*
X168825944Y-107057971D01*
X168617762Y-107044644D01*
X168410935Y-107027700D01*
X168198575Y-107006734D01*
X168107545Y-106996796D01*
X167755149Y-106952130D01*
X167413107Y-106898402D01*
X167084145Y-106836255D01*
X166770986Y-106766333D01*
X166476356Y-106689278D01*
X166202979Y-106605733D01*
X165953579Y-106516341D01*
X165796622Y-106451466D01*
X165726509Y-106420737D01*
X165662953Y-106393038D01*
X165612201Y-106371081D01*
X165580502Y-106357579D01*
X165577084Y-106356167D01*
X165555224Y-106350148D01*
X165531671Y-106352581D01*
X165499647Y-106365679D01*
X165452371Y-106391656D01*
X165432190Y-106403478D01*
X165289041Y-106495999D01*
X165173777Y-106588293D01*
X165085332Y-106681330D01*
X165024186Y-106773138D01*
X165003049Y-106827754D01*
X164994086Y-106893907D01*
X164993386Y-106925278D01*
X164774972Y-106925278D01*
X164774972Y-106925160D01*
X164775557Y-106854910D01*
G37*
%TO.C,R10*%
X168037742Y-119111500D02*
X168512258Y-119111500D01*
X168037742Y-120156500D02*
X168512258Y-120156500D01*
%TO.C,C15*%
X203183800Y-88593980D02*
X203183800Y-88312820D01*
X204203800Y-88593980D02*
X204203800Y-88312820D01*
%TO.C,R21*%
X112240857Y-88616999D02*
X111766341Y-88616999D01*
X112240857Y-89661999D02*
X111766341Y-89661999D01*
%TO.C,R5*%
X155052500Y-43768742D02*
X155052500Y-44243258D01*
X156097500Y-43768742D02*
X156097500Y-44243258D01*
D17*
%TO.C,U3*%
X157808800Y-93168600D02*
X157808800Y-92968600D01*
X160808800Y-93168600D02*
X160108800Y-93168600D01*
X160808800Y-90168600D02*
X160808800Y-90368600D01*
X158508800Y-90168600D02*
X157808800Y-90168600D01*
X157808800Y-90168600D02*
X157808800Y-90368600D01*
X160808800Y-92968600D02*
X160808800Y-93168600D01*
X160108800Y-90168600D02*
X160808800Y-90168600D01*
X158508800Y-93168600D02*
X157808800Y-93168600D01*
D18*
X161378800Y-93068600D02*
G75*
G03*
X161378800Y-93068600I-70000J0D01*
G01*
D11*
%TO.C,J3*%
X115208449Y-40547310D02*
X116571159Y-42171324D01*
X116786501Y-39223167D02*
X115208449Y-40547310D01*
X118364552Y-37899025D02*
X119045907Y-38711032D01*
X116786501Y-39223167D02*
X118149210Y-40847182D01*
X118149210Y-40847182D02*
X116571159Y-42171324D01*
X117552545Y-38580380D02*
X118364552Y-37899025D01*
D14*
%TO.C,J7*%
X125000000Y-74930000D02*
X130000000Y-74930000D01*
X124300000Y-73700000D02*
X125300000Y-73700000D01*
X124800000Y-74700000D02*
X124300000Y-73700000D01*
X130000000Y-100330000D02*
X125000000Y-100330000D01*
X125300000Y-73700000D02*
X124800000Y-74700000D01*
D11*
%TO.C,C17*%
X164721000Y-80872220D02*
X164721000Y-81153380D01*
X163701000Y-80872220D02*
X163701000Y-81153380D01*
%TO.C,R14*%
X149056832Y-115315222D02*
X149531348Y-115315222D01*
X149056832Y-114270222D02*
X149531348Y-114270222D01*
%TO.C,R7*%
X151779500Y-43768742D02*
X151779500Y-44243258D01*
X150734500Y-43768742D02*
X150734500Y-44243258D01*
%TO.C,SW1*%
X127062800Y-61510800D02*
X129662800Y-61510800D01*
X131592800Y-61510800D02*
X131562800Y-61510800D01*
X131592800Y-61510800D02*
X131592800Y-55050800D01*
X127062800Y-55050800D02*
X129662800Y-55050800D01*
X131592800Y-55050800D02*
X131562800Y-55050800D01*
X125162800Y-61510800D02*
X125132800Y-61510800D01*
X125132800Y-61510800D02*
X125132800Y-55050800D01*
X125132800Y-55050800D02*
X125162800Y-55050800D01*
%TO.C,R20*%
X113694499Y-84736641D02*
X113694499Y-85211157D01*
X112649499Y-84736641D02*
X112649499Y-85211157D01*
%TO.C,R15*%
X149531348Y-113740420D02*
X149056832Y-113740420D01*
X149531348Y-112695420D02*
X149056832Y-112695420D01*
%TO.C,R2*%
X159567342Y-73395100D02*
X160041858Y-73395100D01*
X159567342Y-72350100D02*
X160041858Y-72350100D01*
%TO.C,C3*%
X139688180Y-51259200D02*
X139407020Y-51259200D01*
X139688180Y-50239200D02*
X139407020Y-50239200D01*
%TO.C,U2*%
X111787000Y-87453600D02*
X111787000Y-84199600D01*
X106533000Y-84199600D02*
X106533000Y-87453600D01*
D14*
X108950501Y-88112001D02*
X108569501Y-88112001D01*
X108569501Y-88112001D02*
X108569501Y-87858001D01*
X108569501Y-87858001D02*
X108950501Y-87858001D01*
X108950501Y-87858001D02*
X108950501Y-88112001D01*
G36*
X108950501Y-88112001D02*
G01*
X108569501Y-88112001D01*
X108569501Y-87858001D01*
X108950501Y-87858001D01*
X108950501Y-88112001D01*
G37*
X108950501Y-88112001D02*
X108569501Y-88112001D01*
X108569501Y-87858001D01*
X108950501Y-87858001D01*
X108950501Y-88112001D01*
D11*
%TO.C,D3*%
X160341489Y-109700922D02*
X158871489Y-109700922D01*
X160341489Y-111985922D02*
X160341489Y-109700922D01*
X158871489Y-109700922D02*
X158871489Y-111985922D01*
%TO.C,R22*%
X187860542Y-92349900D02*
X188335058Y-92349900D01*
X187860542Y-93394900D02*
X188335058Y-93394900D01*
%TO.C,R4*%
X144257500Y-43704742D02*
X144257500Y-44179258D01*
X145302500Y-43704742D02*
X145302500Y-44179258D01*
%TO.C,C8*%
X158274090Y-111185870D02*
X158274090Y-112608374D01*
X155554090Y-111185870D02*
X155554090Y-112608374D01*
D16*
%TO.C,IC1*%
X144262000Y-49634000D02*
X162262000Y-49634000D01*
D14*
X143262000Y-50834000D02*
X143262000Y-50834000D01*
X143362000Y-50834000D02*
X143362000Y-50834000D01*
X143362000Y-50834000D02*
G75*
G03*
X143262000Y-50834000I-50000J0D01*
G01*
X143262000Y-50834000D02*
G75*
G03*
X143362000Y-50834000I50000J0D01*
G01*
D11*
%TO.C,R12*%
X153849345Y-113842021D02*
X153374829Y-113842021D01*
X153849345Y-112797021D02*
X153374829Y-112797021D01*
%TO.C,J2*%
X107822812Y-54003845D02*
X109130959Y-55311992D01*
X113338245Y-48488412D02*
X114646392Y-49796559D01*
X113479666Y-51741103D02*
X113161468Y-52059301D01*
X114646392Y-49796559D02*
X114328194Y-50114757D01*
X111535122Y-46685289D02*
X111711899Y-46862066D01*
X113479666Y-51741103D02*
X113161468Y-51422905D01*
X106019689Y-52200722D02*
X106196466Y-52377499D01*
X109130959Y-55311992D02*
X109449157Y-54993794D01*
%TO.C,C2*%
X139407020Y-53698200D02*
X139688180Y-53698200D01*
X139407020Y-54718200D02*
X139688180Y-54718200D01*
%TO.C,C4*%
X120473754Y-51782131D02*
X120654480Y-51997512D01*
X121255120Y-51126488D02*
X121435846Y-51341869D01*
D14*
%TO.C,J6*%
X143380000Y-121467000D02*
X143380000Y-126317000D01*
X158880000Y-130317000D02*
X158880000Y-139667000D01*
X143380000Y-139667000D02*
X143380000Y-130317000D01*
X145730000Y-121467000D02*
X143380000Y-121467000D01*
X158880000Y-121467000D02*
X156730000Y-121467000D01*
X158880000Y-126317000D02*
X158880000Y-121467000D01*
X158880000Y-139667000D02*
X143380000Y-139667000D01*
D11*
%TO.C,U1*%
X145625600Y-82371100D02*
X142374400Y-82371100D01*
X142374400Y-82371100D02*
X142374400Y-82563660D01*
X142374400Y-87436340D02*
X142374400Y-87628900D01*
X145625600Y-82563660D02*
X145625600Y-82371100D01*
X145625600Y-87628900D02*
X145625600Y-87436340D01*
X142374400Y-87628900D02*
X145625600Y-87628900D01*
%TO.C,J5*%
X136144000Y-108222600D02*
X136144000Y-106102600D01*
X136144000Y-106102600D02*
X138204000Y-106102600D01*
X136144000Y-108222600D02*
X138204000Y-108222600D01*
X135144000Y-108222600D02*
X134084000Y-108222600D01*
X138204000Y-108222600D02*
X138204000Y-106102600D01*
X134084000Y-108222600D02*
X134084000Y-107162600D01*
%TO.C,R18*%
X147824500Y-81931742D02*
X147824500Y-82406258D01*
X146779500Y-81931742D02*
X146779500Y-82406258D01*
%TO.C,TP1*%
X172654000Y-115570000D02*
G75*
G03*
X172654000Y-115570000I-950000J0D01*
G01*
%TO.C,R23*%
X203361058Y-77001900D02*
X202886542Y-77001900D01*
X203361058Y-75956900D02*
X202886542Y-75956900D01*
%TO.C,U4*%
X199707500Y-90557601D02*
X183705500Y-90557601D01*
X183705500Y-90557601D02*
X183705500Y-73387201D01*
X183705500Y-73387201D02*
X199707500Y-73387201D01*
X199707500Y-73387201D02*
X199707500Y-90557601D01*
X200066710Y-91424811D02*
G75*
G03*
X200066710Y-91424811I-359210J0D01*
G01*
%TO.C,D2*%
X111638123Y-42899200D02*
X113106892Y-44649611D01*
X112764208Y-41954302D02*
X111638123Y-42899200D01*
X114232978Y-43704714D02*
X112764208Y-41954302D01*
%TO.C,R19*%
X147824500Y-85581258D02*
X147824500Y-85106742D01*
X146779500Y-85581258D02*
X146779500Y-85106742D01*
%TO.C,R13*%
X153374833Y-114778219D02*
X153849349Y-114778219D01*
X153374833Y-115823219D02*
X153849349Y-115823219D01*
%TO.C,R11*%
X168512258Y-117206500D02*
X168037742Y-117206500D01*
X168512258Y-118251500D02*
X168037742Y-118251500D01*
%TO.C,C5*%
X118743446Y-48344669D02*
X118562720Y-48129288D01*
X117962080Y-49000312D02*
X117781354Y-48784931D01*
D14*
%TO.C,J8*%
X175500000Y-100330000D02*
X170500000Y-100330000D01*
X170500000Y-74930000D02*
X175500000Y-74930000D01*
X170800000Y-73700000D02*
X170300000Y-74700000D01*
X170300000Y-74700000D02*
X169800000Y-73700000D01*
X169800000Y-73700000D02*
X170800000Y-73700000D01*
D11*
%TO.C,R9*%
X146416500Y-43768742D02*
X146416500Y-44243258D01*
X147461500Y-43768742D02*
X147461500Y-44243258D01*
%TO.C,C10*%
X144987690Y-110017572D02*
X144987690Y-108595068D01*
X147707690Y-110017572D02*
X147707690Y-108595068D01*
%TO.C,D4*%
X132853307Y-105005956D02*
X135138307Y-105005956D01*
X132853307Y-103535956D02*
X132853307Y-105005956D01*
X135138307Y-103535956D02*
X132853307Y-103535956D01*
%TO.C,R16*%
X137905258Y-104764100D02*
X137430742Y-104764100D01*
X137905258Y-103719100D02*
X137430742Y-103719100D01*
%TO.C,C12*%
X159422221Y-95226600D02*
X159703381Y-95226600D01*
X159422221Y-94206600D02*
X159703381Y-94206600D01*
%TO.C,R8*%
X148575500Y-43768742D02*
X148575500Y-44243258D01*
X149620500Y-43768742D02*
X149620500Y-44243258D01*
%TO.C,C14*%
X201483800Y-88593980D02*
X201483800Y-88312820D01*
X202503800Y-88593980D02*
X202503800Y-88312820D01*
D19*
%TO.C,M1*%
X150701980Y-111900200D02*
X150701980Y-108900460D01*
X150701980Y-108900460D02*
X152200580Y-108900460D01*
X152200580Y-111900200D02*
X150701980Y-111900200D01*
X152200580Y-108900460D02*
X152200580Y-111900200D01*
D11*
%TO.C,R1*%
X139310342Y-55459100D02*
X139784858Y-55459100D01*
X139310342Y-56504100D02*
X139784858Y-56504100D01*
%TO.C,G\u002A\u002A\u002A*%
G36*
X128728201Y-115123143D02*
G01*
X128734054Y-115048182D01*
X128746502Y-114988547D01*
X128767747Y-114931008D01*
X128780747Y-114902312D01*
X128856814Y-114779254D01*
X128961365Y-114663837D01*
X129081387Y-114569075D01*
X129155603Y-114527456D01*
X129218880Y-114500730D01*
X129278449Y-114484446D01*
X129348385Y-114476185D01*
X129442762Y-114473523D01*
X129469491Y-114473449D01*
X129571505Y-114475162D01*
X129645831Y-114481917D01*
X129706543Y-114496134D01*
X129767715Y-114520237D01*
X129783378Y-114527456D01*
X129906437Y-114603523D01*
X130021854Y-114708075D01*
X130116616Y-114828096D01*
X130158234Y-114902312D01*
X130183438Y-114961166D01*
X130199412Y-115016082D01*
X130208176Y-115079570D01*
X130211748Y-115164142D01*
X130212242Y-115237122D01*
X130210981Y-115342330D01*
X130205851Y-115418244D01*
X130194836Y-115477374D01*
X130175917Y-115532233D01*
X130158234Y-115571933D01*
X130082356Y-115694758D01*
X129978159Y-115809880D01*
X129858587Y-115904366D01*
X129783378Y-115946461D01*
X129648029Y-115990820D01*
X129496896Y-116009519D01*
X129345284Y-116002147D01*
X129208496Y-115968296D01*
X129193360Y-115962249D01*
X129057788Y-115891320D01*
X128943205Y-115797777D01*
X128869138Y-115714757D01*
X128804516Y-115621199D01*
X128761449Y-115523221D01*
X128736729Y-115409828D01*
X128727147Y-115270024D01*
X128726837Y-115237122D01*
X128915043Y-115237122D01*
X128918112Y-115352552D01*
X128930319Y-115439460D01*
X128956159Y-115510913D01*
X129000132Y-115579978D01*
X129056509Y-115648145D01*
X129163252Y-115738770D01*
X129293884Y-115797559D01*
X129442436Y-115821990D01*
X129469491Y-115822546D01*
X129586011Y-115813742D01*
X129686311Y-115784303D01*
X129710253Y-115773759D01*
X129826243Y-115699021D01*
X129928351Y-115592905D01*
X129986933Y-115503603D01*
X130006433Y-115455041D01*
X130018097Y-115390089D01*
X130023313Y-115298746D01*
X130023939Y-115237122D01*
X130020869Y-115121693D01*
X130008663Y-115034785D01*
X129982822Y-114963331D01*
X129938850Y-114894266D01*
X129882472Y-114826099D01*
X129778340Y-114737415D01*
X129654479Y-114679747D01*
X129519251Y-114653095D01*
X129381019Y-114657458D01*
X129248144Y-114692837D01*
X129128988Y-114759231D01*
X129056509Y-114826099D01*
X128993145Y-114903689D01*
X128951817Y-114972322D01*
X128928029Y-115045063D01*
X128917283Y-115134980D01*
X128915043Y-115237122D01*
X128726837Y-115237122D01*
X128726739Y-115226661D01*
X128728201Y-115123143D01*
G37*
G36*
X134182511Y-115950924D02*
G01*
X134317846Y-116183506D01*
X134450490Y-115950924D01*
X134583135Y-115718341D01*
X134673018Y-115718341D01*
X134727666Y-115722916D01*
X134759544Y-115734434D01*
X134762901Y-115740396D01*
X134752718Y-115765195D01*
X134724632Y-115819106D01*
X134682335Y-115895399D01*
X134629520Y-115987345D01*
X134597395Y-116042032D01*
X134431889Y-116321614D01*
X134607620Y-116621501D01*
X134666171Y-116722297D01*
X134716483Y-116810584D01*
X134755030Y-116880038D01*
X134778288Y-116924337D01*
X134783587Y-116937081D01*
X134764965Y-116946217D01*
X134717324Y-116951841D01*
X134684441Y-116952708D01*
X134585059Y-116952642D01*
X134451098Y-116712838D01*
X134400451Y-116624718D01*
X134356264Y-116552588D01*
X134322721Y-116502932D01*
X134304002Y-116482235D01*
X134302338Y-116482180D01*
X134287026Y-116502971D01*
X134255905Y-116553132D01*
X134213350Y-116625376D01*
X134163735Y-116712419D01*
X134158333Y-116722050D01*
X134029128Y-116952773D01*
X133935718Y-116952773D01*
X133877156Y-116948079D01*
X133845202Y-116935793D01*
X133842308Y-116929710D01*
X133852619Y-116904623D01*
X133881058Y-116850595D01*
X133923882Y-116774359D01*
X133977351Y-116682650D01*
X134009688Y-116628473D01*
X134067404Y-116531076D01*
X134116511Y-116445382D01*
X134153267Y-116378152D01*
X134173925Y-116336148D01*
X134177069Y-116326294D01*
X134166949Y-116300587D01*
X134139098Y-116245972D01*
X134097283Y-116169443D01*
X134045270Y-116077993D01*
X134020150Y-116034874D01*
X133964837Y-115939028D01*
X133918070Y-115854970D01*
X133883618Y-115789712D01*
X133865248Y-115750264D01*
X133863230Y-115742901D01*
X133882652Y-115726571D01*
X133935926Y-115718740D01*
X133955203Y-115718341D01*
X134047176Y-115718341D01*
X134182511Y-115950924D01*
G37*
G36*
X126929413Y-110107941D02*
G01*
X126957111Y-110157221D01*
X126996809Y-110231960D01*
X127045281Y-110326107D01*
X127089775Y-110414470D01*
X127251526Y-110738770D01*
X127000627Y-110738770D01*
X127000627Y-117496760D01*
X134051534Y-117496760D01*
X134051534Y-117245862D01*
X134375833Y-117407612D01*
X134481476Y-117460911D01*
X134572721Y-117508106D01*
X134643520Y-117545973D01*
X134687821Y-117571288D01*
X134700133Y-117580450D01*
X134682362Y-117592926D01*
X134633082Y-117620625D01*
X134558343Y-117660322D01*
X134464196Y-117708795D01*
X134375833Y-117753288D01*
X134051534Y-117915039D01*
X134051534Y-117664141D01*
X130484235Y-117664141D01*
X130027619Y-117664110D01*
X129611053Y-117664009D01*
X129232746Y-117663822D01*
X128890903Y-117663532D01*
X128583731Y-117663124D01*
X128309436Y-117662583D01*
X128066225Y-117661891D01*
X127852304Y-117661034D01*
X127665879Y-117659996D01*
X127505158Y-117658761D01*
X127368345Y-117657313D01*
X127253648Y-117655636D01*
X127159274Y-117653716D01*
X127083428Y-117651535D01*
X127024317Y-117649078D01*
X126980147Y-117646329D01*
X126949125Y-117643273D01*
X126929458Y-117639894D01*
X126919351Y-117636176D01*
X126916937Y-117632757D01*
X126899494Y-117607198D01*
X126875092Y-117601373D01*
X126869684Y-117600973D01*
X126864763Y-117598515D01*
X126860306Y-117592112D01*
X126856291Y-117579878D01*
X126852693Y-117559927D01*
X126849492Y-117530373D01*
X126846662Y-117489328D01*
X126844182Y-117434906D01*
X126842028Y-117365220D01*
X126840177Y-117278385D01*
X126838606Y-117172514D01*
X126837293Y-117045720D01*
X126836214Y-116896116D01*
X126835346Y-116721817D01*
X126834666Y-116520936D01*
X126834152Y-116291586D01*
X126833780Y-116031881D01*
X126833527Y-115739935D01*
X126833370Y-115413860D01*
X126833286Y-115051771D01*
X126833253Y-114651780D01*
X126833247Y-114212002D01*
X126833247Y-110738770D01*
X126582349Y-110738770D01*
X126744099Y-110414470D01*
X126797398Y-110308828D01*
X126844593Y-110217582D01*
X126882460Y-110146784D01*
X126907775Y-110102482D01*
X126916937Y-110090170D01*
X126929413Y-110107941D01*
G37*
G36*
X131164102Y-113516241D02*
G01*
X131160592Y-113546371D01*
X131148528Y-113584403D01*
X131125486Y-113634800D01*
X131089043Y-113702026D01*
X131036773Y-113790542D01*
X130966253Y-113904811D01*
X130875058Y-114049295D01*
X130871435Y-114054997D01*
X130578884Y-114515294D01*
X130882013Y-114521084D01*
X131185141Y-114526874D01*
X131185141Y-114672213D01*
X130369161Y-114672213D01*
X130369736Y-114593753D01*
X130373533Y-114563331D01*
X130386126Y-114524583D01*
X130409928Y-114473072D01*
X130447351Y-114404364D01*
X130500805Y-114314023D01*
X130572705Y-114197615D01*
X130662733Y-114054997D01*
X130955155Y-113594701D01*
X130673845Y-113588888D01*
X130559415Y-113585992D01*
X130480071Y-113582174D01*
X130429054Y-113576419D01*
X130399605Y-113567709D01*
X130384966Y-113555028D01*
X130380373Y-113544759D01*
X130376471Y-113494160D01*
X130381387Y-113472113D01*
X130390434Y-113459866D01*
X130410575Y-113450884D01*
X130447468Y-113444680D01*
X130506776Y-113440764D01*
X130594160Y-113438648D01*
X130715280Y-113437845D01*
X130779390Y-113437781D01*
X131164219Y-113437781D01*
X131164102Y-113516241D01*
G37*
G36*
X129536965Y-114946995D02*
G01*
X129583086Y-114960694D01*
X129625978Y-114993307D01*
X129661033Y-115028778D01*
X129708435Y-115082937D01*
X129732401Y-115128448D01*
X129740736Y-115184506D01*
X129741484Y-115226661D01*
X129738410Y-115296656D01*
X129723984Y-115345576D01*
X129690405Y-115392615D01*
X129661033Y-115424545D01*
X129610428Y-115473892D01*
X129568470Y-115499082D01*
X129517035Y-115508116D01*
X129469491Y-115509116D01*
X129402016Y-115506328D01*
X129355895Y-115492628D01*
X129313004Y-115460015D01*
X129277948Y-115424545D01*
X129230547Y-115370385D01*
X129206580Y-115324874D01*
X129198246Y-115268816D01*
X129197497Y-115226661D01*
X129200572Y-115156666D01*
X129214997Y-115107746D01*
X129248577Y-115060708D01*
X129277948Y-115028778D01*
X129328553Y-114979430D01*
X129370511Y-114954241D01*
X129421946Y-114945206D01*
X129469491Y-114944206D01*
X129536965Y-114946995D01*
G37*
G36*
X127823369Y-110173474D02*
G01*
X127870009Y-110270072D01*
X127910650Y-110351574D01*
X127941843Y-110411267D01*
X127960140Y-110442436D01*
X127963066Y-110445413D01*
X127975250Y-110427687D01*
X128001667Y-110378725D01*
X128038877Y-110305221D01*
X128083442Y-110213870D01*
X128102569Y-110173806D01*
X128231612Y-109901867D01*
X128317026Y-109901867D01*
X128375709Y-109906778D01*
X128400473Y-109923225D01*
X128402440Y-109933483D01*
X128393414Y-109961434D01*
X128368302Y-110020239D01*
X128330051Y-110103488D01*
X128281609Y-110204769D01*
X128225923Y-110317671D01*
X128224598Y-110320318D01*
X128046756Y-110675537D01*
X128046756Y-111136299D01*
X127879375Y-111136299D01*
X127879375Y-110675562D01*
X127691072Y-110299396D01*
X127633846Y-110184570D01*
X127583621Y-110082822D01*
X127543215Y-109999940D01*
X127515445Y-109941714D01*
X127503130Y-109913931D01*
X127502769Y-109912549D01*
X127521503Y-109906219D01*
X127568977Y-109902389D01*
X127598451Y-109901867D01*
X127694134Y-109901867D01*
X127823369Y-110173474D01*
G37*
%TO.C,C9*%
X151287113Y-107424720D02*
X151568273Y-107424720D01*
X151287113Y-108444720D02*
X151568273Y-108444720D01*
%TO.C,C6*%
X144304089Y-108595070D02*
X144304089Y-110017574D01*
X141584089Y-108595070D02*
X141584089Y-110017574D01*
%TO.C,D1*%
X162179600Y-73607600D02*
X164464600Y-73607600D01*
X164464600Y-73607600D02*
X164464600Y-72137600D01*
X164464600Y-72137600D02*
X162179600Y-72137600D01*
%TO.C,U7*%
X160302600Y-81564200D02*
X159802600Y-81564200D01*
X159802600Y-81564200D02*
X159802600Y-81064200D01*
X163102600Y-76364200D02*
X163102600Y-76864200D01*
X159802600Y-76364200D02*
X160302600Y-76364200D01*
X162602600Y-76364200D02*
X163102600Y-76364200D01*
X159802600Y-76864200D02*
X159802600Y-76364200D01*
X163002600Y-81564200D02*
X162052600Y-81564200D01*
%TO.C,C16*%
X201583800Y-83793980D02*
X201583800Y-83512820D01*
X202603800Y-83793980D02*
X202603800Y-83512820D01*
%TO.C,R26*%
X159170900Y-78477342D02*
X159170900Y-78951858D01*
X158125900Y-78477342D02*
X158125900Y-78951858D01*
%TO.C,BT1*%
X191008563Y-112882621D02*
X192634909Y-114508967D01*
X187296252Y-109170311D02*
X188462979Y-110337037D01*
X183053612Y-108604625D02*
X183619297Y-109170311D01*
X181462621Y-122428563D02*
X183088967Y-124054909D01*
X177750311Y-115039297D02*
X177184625Y-114473612D01*
X178917037Y-119882979D02*
X177750311Y-118716252D01*
X183619297Y-109170311D02*
X187296252Y-109170311D01*
X177750311Y-118716252D02*
X177750311Y-115039297D01*
X177184625Y-114473612D02*
X183053612Y-108604625D01*
X185082686Y-124160108D02*
G75*
G03*
X185457775Y-123241736I-607790J784023D01*
G01*
X183053612Y-124019553D02*
G75*
G03*
X185174932Y-124090264I1096015J1025303D01*
G01*
X192670263Y-116594931D02*
G75*
G03*
X192599553Y-114473612I-1096013J1025304D01*
G01*
X191821736Y-116877775D02*
G75*
G03*
X192740108Y-116502686I134349J982879D01*
G01*
%TO.C,C1*%
X139688180Y-51890200D02*
X139407020Y-51890200D01*
X139688180Y-52910200D02*
X139407020Y-52910200D01*
%TO.C,J14*%
X121221448Y-121490402D02*
X120090078Y-122621772D01*
X118937494Y-125216854D02*
X121942697Y-122211650D01*
X111958350Y-112227303D02*
X112679598Y-112948552D01*
X107644998Y-118973101D02*
X115196899Y-126525002D01*
X120090078Y-122621772D02*
X119184981Y-121716676D01*
X112453324Y-114985019D02*
X114496863Y-112941481D01*
X112679598Y-112948552D02*
X111548228Y-114079922D01*
X108953146Y-115232506D02*
X111958350Y-112227303D01*
X111548228Y-114079922D02*
X112453324Y-114985019D01*
X121942697Y-122211650D02*
X121221448Y-121490402D01*
%TO.C,R24*%
X203361058Y-75350899D02*
X202886542Y-75350899D01*
X203361058Y-74305899D02*
X202886542Y-74305899D01*
%TO.C,R3*%
X114052035Y-42521306D02*
X114357048Y-42884807D01*
X114852552Y-41849593D02*
X115157565Y-42213094D01*
%TO.C,R27*%
X161501858Y-83237100D02*
X161027342Y-83237100D01*
X161501858Y-82192100D02*
X161027342Y-82192100D01*
%TO.C,R6*%
X153020500Y-43768742D02*
X153020500Y-44243258D01*
X154065500Y-43768742D02*
X154065500Y-44243258D01*
%TO.C,C13*%
X159422220Y-95857600D02*
X159703380Y-95857600D01*
X159422220Y-96877600D02*
X159703380Y-96877600D01*
%TO.C,J1*%
X145695000Y-30665500D02*
X145695000Y-35115500D01*
X156645000Y-40935500D02*
X157875000Y-40935500D01*
X147175000Y-29295500D02*
X148035000Y-29295500D01*
X145695000Y-36515500D02*
X145695000Y-38815500D01*
X150675000Y-40935500D02*
X154345000Y-40935500D01*
X145695000Y-40215500D02*
X145695000Y-40935500D01*
X145695000Y-40935500D02*
X148375000Y-40935500D01*
X157875000Y-40935500D02*
X157875000Y-31115500D01*
%TO.C,FB1*%
X204883800Y-88290621D02*
X204883800Y-88616179D01*
X205903800Y-88290621D02*
X205903800Y-88616179D01*
%TO.C,SW2*%
X175518200Y-66577600D02*
X175518200Y-60117600D01*
X169058200Y-60117600D02*
X169088200Y-60117600D01*
X170988200Y-60117600D02*
X173588200Y-60117600D01*
X170988200Y-66577600D02*
X173588200Y-66577600D01*
X169058200Y-66577600D02*
X169058200Y-60117600D01*
X175518200Y-60117600D02*
X175488200Y-60117600D01*
X175518200Y-66577600D02*
X175488200Y-66577600D01*
X169088200Y-66577600D02*
X169058200Y-66577600D01*
%TO.C,D6*%
X183096800Y-93597400D02*
X185381800Y-93597400D01*
X185381800Y-92127400D02*
X183096800Y-92127400D01*
X183096800Y-92127400D02*
X183096800Y-93597400D01*
%TO.C,L1*%
X153659289Y-106765919D02*
X153659289Y-105565919D01*
X146859289Y-106765919D02*
X148259289Y-106765919D01*
X153659289Y-100365919D02*
X152259289Y-100365919D01*
X153659289Y-100365919D02*
X153659289Y-101565919D01*
X146859289Y-100365919D02*
X148259289Y-100365919D01*
X146859289Y-100365919D02*
X146859289Y-101565919D01*
X146859289Y-106765919D02*
X146859289Y-105565919D01*
X153659289Y-106765919D02*
X152259289Y-106765919D01*
%TD*%
M02*
