%TF.GenerationSoftware,KiCad,Pcbnew,(6.0.2)*%
%TF.CreationDate,2022-10-10T11:28:08-07:00*%
%TF.ProjectId,AvionicsV0,4176696f-6e69-4637-9356-302e6b696361,rev?*%
%TF.SameCoordinates,Original*%
%TF.FileFunction,Soldermask,Bot*%
%TF.FilePolarity,Negative*%
%FSLAX46Y46*%
G04 Gerber Fmt 4.6, Leading zero omitted, Abs format (unit mm)*
G04 Created by KiCad (PCBNEW (6.0.2)) date 2022-10-10 11:28:08*
%MOMM*%
%LPD*%
G01*
G04 APERTURE LIST*
G04 Aperture macros list*
%AMHorizOval*
0 Thick line with rounded ends*
0 $1 width*
0 $2 $3 position (X,Y) of the first rounded end (center of the circle)*
0 $4 $5 position (X,Y) of the second rounded end (center of the circle)*
0 Add line between two ends*
20,1,$1,$2,$3,$4,$5,0*
0 Add two circle primitives to create the rounded ends*
1,1,$1,$2,$3*
1,1,$1,$4,$5*%
%AMRotRect*
0 Rectangle, with rotation*
0 The origin of the aperture is its center*
0 $1 length*
0 $2 width*
0 $3 Rotation angle, in degrees counterclockwise*
0 Add horizontal line*
21,1,$1,$2,0,0,$3*%
G04 Aperture macros list end*
%ADD10C,2.050000*%
%ADD11C,2.250000*%
%ADD12R,1.700000X1.700000*%
%ADD13O,1.700000X1.700000*%
%ADD14RotRect,1.350000X1.350000X310.000000*%
%ADD15HorizOval,1.350000X0.000000X0.000000X0.000000X0.000000X0*%
%ADD16C,1.780000*%
%ADD17C,0.900000*%
%ADD18C,11.000000*%
%ADD19C,1.450000*%
%ADD20HorizOval,1.200000X-0.247487X0.247487X0.247487X-0.247487X0*%
%ADD21C,4.050000*%
%ADD22C,2.700000*%
%ADD23R,1.350000X1.350000*%
%ADD24O,1.350000X1.350000*%
%ADD25C,3.000000*%
%ADD26C,2.032000*%
%ADD27C,4.101600*%
%ADD28R,3.400000X1.020000*%
G04 APERTURE END LIST*
%TO.C,*%
G36*
X131703804Y-47685817D02*
G01*
X131695045Y-47694575D01*
X131686287Y-47685817D01*
X131695045Y-47677058D01*
X131703804Y-47685817D01*
G37*
G36*
X126255942Y-49087196D02*
G01*
X126247183Y-49095955D01*
X126238425Y-49087196D01*
X126247183Y-49078437D01*
X126255942Y-49087196D01*
G37*
G36*
X126581787Y-49009174D02*
G01*
X126597528Y-49025886D01*
X126600265Y-49032671D01*
X126589803Y-49043403D01*
X126584719Y-49042730D01*
X126571252Y-49025886D01*
X126571453Y-49021921D01*
X126578977Y-49008368D01*
X126581787Y-49009174D01*
G37*
%TD*%
D10*
%TO.C,J13*%
X187706000Y-47752000D03*
D11*
X188019072Y-44173567D03*
X191284433Y-48065072D03*
X187392928Y-51330433D03*
X184127567Y-47438928D03*
%TD*%
D12*
%TO.C,J4*%
X162800000Y-120260000D03*
D13*
X162800000Y-122800000D03*
%TD*%
D14*
%TO.C,J3*%
X118233900Y-39392387D03*
D15*
X116701811Y-40677962D03*
%TD*%
D16*
%TO.C,J7*%
X127500000Y-77470000D03*
X127500000Y-97790000D03*
%TD*%
D17*
%TO.C,H2*%
X166407985Y-125024185D03*
X166407985Y-130877815D03*
X173459800Y-127951000D03*
X172261615Y-125024185D03*
X169334800Y-123826000D03*
X169334800Y-132076000D03*
X172261615Y-130877815D03*
D18*
X169334800Y-127951000D03*
D17*
X165209800Y-127951000D03*
%TD*%
%TO.C,H8*%
X106280000Y-69022000D03*
X103353185Y-67823815D03*
X109206815Y-67823815D03*
D18*
X106280000Y-64897000D03*
D17*
X102155000Y-64897000D03*
X109206815Y-61970185D03*
X106280000Y-60772000D03*
X110405000Y-64897000D03*
X103353185Y-61970185D03*
%TD*%
%TO.C,H3*%
X172256815Y-41696815D03*
X172256815Y-35843185D03*
X166403185Y-41696815D03*
X169330000Y-34645000D03*
X173455000Y-38770000D03*
X169330000Y-42895000D03*
D18*
X169330000Y-38770000D03*
D17*
X165205000Y-38770000D03*
X166403185Y-35843185D03*
%TD*%
D19*
%TO.C,J2*%
X113444311Y-50574377D03*
X109908777Y-54109911D03*
D20*
X112242229Y-47958082D03*
X107292482Y-52907829D03*
%TD*%
D21*
%TO.C,J6*%
X154730000Y-123317000D03*
X147530000Y-123317000D03*
D22*
X144380000Y-129317000D03*
X157880000Y-129317000D03*
%TD*%
D18*
%TO.C,H1*%
X106280000Y-101833600D03*
D17*
X102155000Y-101833600D03*
X103353185Y-98906785D03*
X103353185Y-104760415D03*
X106280000Y-97708600D03*
X109206815Y-98906785D03*
X110405000Y-101833600D03*
X109206815Y-104760415D03*
X106280000Y-105958600D03*
%TD*%
D23*
%TO.C,J5*%
X135144000Y-107162600D03*
D24*
X137144000Y-107162600D03*
%TD*%
D16*
%TO.C,J8*%
X173000000Y-97790000D03*
X173000000Y-77470000D03*
%TD*%
D17*
%TO.C,H6*%
X195453000Y-97708600D03*
X191328000Y-101833600D03*
X198379815Y-104760415D03*
X195453000Y-105958600D03*
X192526185Y-104760415D03*
X192526185Y-98906785D03*
X198379815Y-98906785D03*
X199578000Y-101833600D03*
D18*
X195453000Y-101833600D03*
%TD*%
%TO.C,H5*%
X132398000Y-127951700D03*
D17*
X128273000Y-127951700D03*
X129471185Y-130878515D03*
X132398000Y-123826700D03*
X136523000Y-127951700D03*
X135324815Y-130878515D03*
X132398000Y-132076700D03*
X129471185Y-125024885D03*
X135324815Y-125024885D03*
%TD*%
D25*
%TO.C,BT1*%
X180295895Y-121049705D03*
X189629705Y-111715895D03*
%TD*%
D17*
%TO.C,H7*%
X135324815Y-35843185D03*
X136523000Y-38770000D03*
X129471185Y-41696815D03*
X135324815Y-41696815D03*
X129471185Y-35843185D03*
X128273000Y-38770000D03*
D18*
X132398000Y-38770000D03*
D17*
X132398000Y-42895000D03*
X132398000Y-34645000D03*
%TD*%
%TO.C,H4*%
X195453000Y-69022000D03*
X195453000Y-60772000D03*
X191328000Y-64897000D03*
X199578000Y-64897000D03*
X192526185Y-67823815D03*
D18*
X195453000Y-64897000D03*
D17*
X198379815Y-61970185D03*
X192526185Y-61970185D03*
X198379815Y-67823815D03*
%TD*%
D26*
%TO.C,U5*%
X142253000Y-77126000D03*
X144793000Y-77126000D03*
X147333000Y-77126000D03*
X149873000Y-77126000D03*
X152413000Y-77126000D03*
X154953000Y-77126000D03*
D27*
X137808000Y-93636000D03*
X159398000Y-93636000D03*
X159398000Y-78396000D03*
X137808000Y-78396000D03*
%TD*%
D16*
%TO.C,J10*%
X173000000Y-77470000D03*
X173000000Y-97790000D03*
D28*
X175700000Y-76200000D03*
X175700000Y-78740000D03*
X175700000Y-81280000D03*
X175700000Y-83820000D03*
X175700000Y-86360000D03*
X175700000Y-88900000D03*
X175700000Y-91440000D03*
X175700000Y-93980000D03*
X175700000Y-96520000D03*
X175700000Y-99060000D03*
X170300000Y-76200000D03*
X170300000Y-78740000D03*
X170300000Y-81280000D03*
X170300000Y-83820000D03*
X170300000Y-86360000D03*
X170300000Y-88900000D03*
X170300000Y-91440000D03*
X170300000Y-93980000D03*
X170300000Y-96520000D03*
X170300000Y-99060000D03*
%TD*%
D26*
%TO.C,U6*%
X153746200Y-51282600D03*
X156286200Y-51282600D03*
X158826200Y-51282600D03*
X161366200Y-51282600D03*
X163906200Y-51282600D03*
X166446200Y-51282600D03*
X163906200Y-69062600D03*
D27*
X149301200Y-52552600D03*
X170891200Y-52552600D03*
X149301200Y-67792600D03*
X170891200Y-67792600D03*
%TD*%
D16*
%TO.C,J9*%
X127500000Y-97790000D03*
X127500000Y-77470000D03*
D28*
X130200000Y-76200000D03*
X130200000Y-78740000D03*
X130200000Y-81280000D03*
X130200000Y-83820000D03*
X130200000Y-86360000D03*
X130200000Y-88900000D03*
X130200000Y-91440000D03*
X130200000Y-93980000D03*
X130200000Y-96520000D03*
X130200000Y-99060000D03*
X124800000Y-76200000D03*
X124800000Y-78740000D03*
X124800000Y-81280000D03*
X124800000Y-83820000D03*
X124800000Y-86360000D03*
X124800000Y-88900000D03*
X124800000Y-91440000D03*
X124800000Y-93980000D03*
X124800000Y-96520000D03*
X124800000Y-99060000D03*
%TD*%
M02*
