%TF.GenerationSoftware,KiCad,Pcbnew,(6.0.2)*%
%TF.CreationDate,2022-10-10T11:28:08-07:00*%
%TF.ProjectId,AvionicsV0,4176696f-6e69-4637-9356-302e6b696361,rev?*%
%TF.SameCoordinates,Original*%
%TF.FileFunction,Soldermask,Top*%
%TF.FilePolarity,Negative*%
%FSLAX46Y46*%
G04 Gerber Fmt 4.6, Leading zero omitted, Abs format (unit mm)*
G04 Created by KiCad (PCBNEW (6.0.2)) date 2022-10-10 11:28:08*
%MOMM*%
%LPD*%
G01*
G04 APERTURE LIST*
G04 Aperture macros list*
%AMRoundRect*
0 Rectangle with rounded corners*
0 $1 Rounding radius*
0 $2 $3 $4 $5 $6 $7 $8 $9 X,Y pos of 4 corners*
0 Add a 4 corners polygon primitive as box body*
4,1,4,$2,$3,$4,$5,$6,$7,$8,$9,$2,$3,0*
0 Add four circle primitives for the rounded corners*
1,1,$1+$1,$2,$3*
1,1,$1+$1,$4,$5*
1,1,$1+$1,$6,$7*
1,1,$1+$1,$8,$9*
0 Add four rect primitives between the rounded corners*
20,1,$1+$1,$2,$3,$4,$5,0*
20,1,$1+$1,$4,$5,$6,$7,0*
20,1,$1+$1,$6,$7,$8,$9,0*
20,1,$1+$1,$8,$9,$2,$3,0*%
%AMHorizOval*
0 Thick line with rounded ends*
0 $1 width*
0 $2 $3 position (X,Y) of the first rounded end (center of the circle)*
0 $4 $5 position (X,Y) of the second rounded end (center of the circle)*
0 Add line between two ends*
20,1,$1,$2,$3,$4,$5,0*
0 Add two circle primitives to create the rounded ends*
1,1,$1,$2,$3*
1,1,$1,$4,$5*%
%AMRotRect*
0 Rectangle, with rotation*
0 The origin of the aperture is its center*
0 $1 length*
0 $2 width*
0 $3 Rotation angle, in degrees counterclockwise*
0 Add horizontal line*
21,1,$1,$2,0,0,$3*%
G04 Aperture macros list end*
%ADD10RotRect,0.950000X1.250000X130.000000*%
%ADD11RotRect,1.250000X3.200000X40.000000*%
%ADD12C,2.050000*%
%ADD13C,2.250000*%
%ADD14R,1.700000X1.700000*%
%ADD15O,1.700000X1.700000*%
%ADD16RoundRect,0.225000X-0.250000X0.225000X-0.250000X-0.225000X0.250000X-0.225000X0.250000X0.225000X0*%
%ADD17RoundRect,0.200000X-0.200000X-0.275000X0.200000X-0.275000X0.200000X0.275000X-0.200000X0.275000X0*%
%ADD18RoundRect,0.225000X0.250000X-0.225000X0.250000X0.225000X-0.250000X0.225000X-0.250000X-0.225000X0*%
%ADD19RoundRect,0.200000X0.200000X0.275000X-0.200000X0.275000X-0.200000X-0.275000X0.200000X-0.275000X0*%
%ADD20RoundRect,0.200000X-0.275000X0.200000X-0.275000X-0.200000X0.275000X-0.200000X0.275000X0.200000X0*%
%ADD21R,0.830000X0.270000*%
%ADD22R,0.270000X0.830000*%
%ADD23RotRect,1.350000X1.350000X310.000000*%
%ADD24HorizOval,1.350000X0.000000X0.000000X0.000000X0.000000X0*%
%ADD25C,1.780000*%
%ADD26R,3.400000X1.020000*%
%ADD27C,0.900000*%
%ADD28C,11.000000*%
%ADD29R,1.300000X1.550000*%
%ADD30RoundRect,0.225000X0.225000X0.250000X-0.225000X0.250000X-0.225000X-0.250000X0.225000X-0.250000X0*%
%ADD31R,0.449200X1.117800*%
%ADD32R,0.813000X0.500000*%
%ADD33RoundRect,0.218750X-0.256250X0.218750X-0.256250X-0.218750X0.256250X-0.218750X0.256250X0.218750X0*%
%ADD34RoundRect,0.250000X-1.100000X0.325000X-1.100000X-0.325000X1.100000X-0.325000X1.100000X0.325000X0*%
%ADD35R,1.500000X0.900000*%
%ADD36R,0.900000X1.500000*%
%ADD37R,0.900000X0.900000*%
%ADD38RotRect,0.400000X1.350000X225.000000*%
%ADD39RotRect,1.500000X1.900000X225.000000*%
%ADD40C,1.450000*%
%ADD41HorizOval,1.200000X-0.247487X0.247487X0.247487X-0.247487X0*%
%ADD42RotRect,1.200000X1.900000X225.000000*%
%ADD43RoundRect,0.225000X-0.225000X-0.250000X0.225000X-0.250000X0.225000X0.250000X-0.225000X0.250000X0*%
%ADD44RoundRect,0.225000X-0.336138X0.011663X-0.046884X-0.333057X0.336138X-0.011663X0.046884X0.333057X0*%
%ADD45C,4.050000*%
%ADD46C,2.700000*%
%ADD47R,1.193800X0.457200*%
%ADD48R,1.350000X1.350000*%
%ADD49O,1.350000X1.350000*%
%ADD50C,1.500000*%
%ADD51R,2.032000X1.092200*%
%ADD52RoundRect,0.218750X-0.336909X0.002858X-0.055689X-0.332287X0.336909X-0.002858X0.055689X0.332287X0*%
%ADD53RoundRect,0.200000X0.275000X-0.200000X0.275000X0.200000X-0.275000X0.200000X-0.275000X-0.200000X0*%
%ADD54RoundRect,0.225000X0.336138X-0.011663X0.046884X0.333057X-0.336138X0.011663X-0.046884X-0.333057X0*%
%ADD55RoundRect,0.250000X1.100000X-0.325000X1.100000X0.325000X-1.100000X0.325000X-1.100000X-0.325000X0*%
%ADD56RoundRect,0.218750X-0.218750X-0.256250X0.218750X-0.256250X0.218750X0.256250X-0.218750X0.256250X0*%
%ADD57R,0.998220X0.497840*%
%ADD58RoundRect,0.218750X0.218750X0.256250X-0.218750X0.256250X-0.218750X-0.256250X0.218750X-0.256250X0*%
%ADD59R,0.950000X0.550000*%
%ADD60C,3.000000*%
%ADD61C,9.000000*%
%ADD62RoundRect,0.250000X-1.237437X-0.883883X-0.883883X-1.237437X1.237437X0.883883X0.883883X1.237437X0*%
%ADD63RoundRect,0.250001X-1.378857X-0.671751X-0.671751X-1.378857X1.378857X0.671751X0.671751X1.378857X0*%
%ADD64RoundRect,0.200000X-0.339220X-0.023558X-0.082105X-0.329975X0.339220X0.023558X0.082105X0.329975X0*%
%ADD65R,0.850000X1.100000*%
%ADD66R,0.750000X1.100000*%
%ADD67R,1.200000X1.000000*%
%ADD68R,1.170000X1.800000*%
%ADD69R,1.900000X1.350000*%
%ADD70R,1.550000X1.350000*%
%ADD71R,1.600000X5.700000*%
G04 APERTURE END LIST*
D10*
%TO.C,IC2*%
X119157837Y-45787976D03*
X120636249Y-47549878D03*
X122114660Y-49311780D03*
D11*
X125845351Y-43178922D03*
%TD*%
D12*
%TO.C,J13*%
X187706000Y-47752000D03*
D13*
X188019072Y-44173567D03*
X191284433Y-48065072D03*
X187392928Y-51330433D03*
X184127567Y-47438928D03*
%TD*%
D14*
%TO.C,J4*%
X162800000Y-120260000D03*
D15*
X162800000Y-122800000D03*
%TD*%
D16*
%TO.C,C11*%
X140952000Y-83349000D03*
X140952000Y-84899000D03*
%TD*%
D17*
%TO.C,R10*%
X167450000Y-119634000D03*
X169100000Y-119634000D03*
%TD*%
D18*
%TO.C,C15*%
X203693800Y-89228400D03*
X203693800Y-87678400D03*
%TD*%
D19*
%TO.C,R21*%
X112828599Y-89139499D03*
X111178599Y-89139499D03*
%TD*%
D20*
%TO.C,R5*%
X155575000Y-43181000D03*
X155575000Y-44831000D03*
%TD*%
D21*
%TO.C,U3*%
X160778800Y-92668600D03*
X160778800Y-92168600D03*
X160778800Y-91668600D03*
X160778800Y-91168600D03*
X160778800Y-90668600D03*
D22*
X159808800Y-90198600D03*
X159308800Y-90198600D03*
X158808800Y-90198600D03*
D21*
X157838800Y-90668600D03*
X157838800Y-91168600D03*
X157838800Y-91668600D03*
X157838800Y-92168600D03*
X157838800Y-92668600D03*
D22*
X158808800Y-93138600D03*
X159308800Y-93138600D03*
X159808800Y-93138600D03*
%TD*%
D23*
%TO.C,J3*%
X118233900Y-39392387D03*
D24*
X116701811Y-40677962D03*
%TD*%
D25*
%TO.C,J7*%
X127500000Y-77470000D03*
X127500000Y-97790000D03*
D26*
X124800000Y-76200000D03*
X124800000Y-78740000D03*
X124800000Y-81280000D03*
X124800000Y-83820000D03*
X124800000Y-86360000D03*
X124800000Y-88900000D03*
X124800000Y-91440000D03*
X124800000Y-93980000D03*
X124800000Y-96520000D03*
X124800000Y-99060000D03*
X130200000Y-76200000D03*
X130200000Y-78740000D03*
X130200000Y-81280000D03*
X130200000Y-83820000D03*
X130200000Y-86360000D03*
X130200000Y-88900000D03*
X130200000Y-91440000D03*
X130200000Y-93980000D03*
X130200000Y-96520000D03*
X130200000Y-99060000D03*
%TD*%
D16*
%TO.C,C17*%
X164211000Y-80237800D03*
X164211000Y-81787800D03*
%TD*%
D17*
%TO.C,R14*%
X148469090Y-114792722D03*
X150119090Y-114792722D03*
%TD*%
D27*
%TO.C,H2*%
X166407985Y-125024185D03*
X166407985Y-130877815D03*
X173459800Y-127951000D03*
X172261615Y-125024185D03*
X169334800Y-123826000D03*
X169334800Y-132076000D03*
X172261615Y-130877815D03*
D28*
X169334800Y-127951000D03*
D27*
X165209800Y-127951000D03*
%TD*%
D20*
%TO.C,R7*%
X151257000Y-43181000D03*
X151257000Y-44831000D03*
%TD*%
D29*
%TO.C,SW1*%
X126112800Y-62255800D03*
X126112800Y-54305800D03*
X130612800Y-54305800D03*
X130612800Y-62255800D03*
%TD*%
D27*
%TO.C,H8*%
X106280000Y-69022000D03*
X103353185Y-67823815D03*
X109206815Y-67823815D03*
D28*
X106280000Y-64897000D03*
D27*
X102155000Y-64897000D03*
X109206815Y-61970185D03*
X106280000Y-60772000D03*
X110405000Y-64897000D03*
X103353185Y-61970185D03*
%TD*%
D20*
%TO.C,R20*%
X113171999Y-84148899D03*
X113171999Y-85798899D03*
%TD*%
D19*
%TO.C,R15*%
X150119090Y-113217920D03*
X148469090Y-113217920D03*
%TD*%
D17*
%TO.C,R2*%
X158979600Y-72872600D03*
X160629600Y-72872600D03*
%TD*%
D27*
%TO.C,H3*%
X172256815Y-41696815D03*
X172256815Y-35843185D03*
X166403185Y-41696815D03*
X169330000Y-34645000D03*
X173455000Y-38770000D03*
X169330000Y-42895000D03*
D28*
X169330000Y-38770000D03*
D27*
X165205000Y-38770000D03*
X166403185Y-35843185D03*
%TD*%
D30*
%TO.C,C3*%
X140322600Y-50749200D03*
X138772600Y-50749200D03*
%TD*%
D31*
%TO.C,U2*%
X111160001Y-84455699D03*
X110360000Y-84455699D03*
X109559999Y-84455699D03*
X108760001Y-84455699D03*
X107960000Y-84455699D03*
X107160001Y-84455699D03*
D32*
X107441502Y-85826600D03*
D31*
X107159999Y-87197501D03*
X107960000Y-87197501D03*
X108760001Y-87197501D03*
X109559999Y-87197501D03*
X110360000Y-87197501D03*
X111159999Y-87197501D03*
D32*
X110878498Y-85826600D03*
%TD*%
D33*
%TO.C,D3*%
X159606489Y-110398422D03*
X159606489Y-111973422D03*
%TD*%
D17*
%TO.C,R22*%
X187272800Y-92872400D03*
X188922800Y-92872400D03*
%TD*%
D20*
%TO.C,R4*%
X144780000Y-43117000D03*
X144780000Y-44767000D03*
%TD*%
D34*
%TO.C,C8*%
X156914090Y-110422122D03*
X156914090Y-113372122D03*
%TD*%
D35*
%TO.C,IC1*%
X144512000Y-50824000D03*
X144512000Y-52094000D03*
X144512000Y-53364000D03*
X144512000Y-54634000D03*
X144512000Y-55904000D03*
X144512000Y-57174000D03*
X144512000Y-58444000D03*
X144512000Y-59714000D03*
X144512000Y-60984000D03*
X144512000Y-62254000D03*
X144512000Y-63524000D03*
X144512000Y-64794000D03*
X144512000Y-66064000D03*
X144512000Y-67334000D03*
D36*
X146277000Y-68584000D03*
X147547000Y-68584000D03*
X148817000Y-68584000D03*
X150087000Y-68584000D03*
X151357000Y-68584000D03*
X152627000Y-68584000D03*
X153897000Y-68584000D03*
X155167000Y-68584000D03*
X156437000Y-68584000D03*
X157707000Y-68584000D03*
X158977000Y-68584000D03*
X160247000Y-68584000D03*
D35*
X162012000Y-67334000D03*
X162012000Y-66064000D03*
X162012000Y-64794000D03*
X162012000Y-63524000D03*
X162012000Y-62254000D03*
X162012000Y-60984000D03*
X162012000Y-59714000D03*
X162012000Y-58444000D03*
X162012000Y-57174000D03*
X162012000Y-55904000D03*
X162012000Y-54634000D03*
X162012000Y-53364000D03*
X162012000Y-52094000D03*
X162012000Y-50824000D03*
D37*
X151762000Y-58544000D03*
X151762000Y-57144000D03*
X150362000Y-57144000D03*
X150362000Y-58544000D03*
X150362000Y-59944000D03*
X151762000Y-59944000D03*
X153162000Y-59944000D03*
X153162000Y-58544000D03*
X153162000Y-57144000D03*
%TD*%
D19*
%TO.C,R12*%
X154437087Y-113319521D03*
X152787087Y-113319521D03*
%TD*%
D38*
%TO.C,J2*%
X112595782Y-51422905D03*
X112136163Y-51882524D03*
X111676544Y-52342144D03*
X111216924Y-52801763D03*
X110757305Y-53261382D03*
D39*
X109060249Y-51140062D03*
D40*
X113444311Y-50574377D03*
X109908777Y-54109911D03*
D41*
X112242229Y-47958082D03*
X107292482Y-52907829D03*
D39*
X110474462Y-49725849D03*
D42*
X107716746Y-52483565D03*
X111817965Y-48382346D03*
%TD*%
D43*
%TO.C,C2*%
X138772600Y-54208200D03*
X140322600Y-54208200D03*
%TD*%
D44*
%TO.C,C4*%
X120456640Y-50968316D03*
X121452960Y-52155684D03*
%TD*%
D45*
%TO.C,J6*%
X154730000Y-123317000D03*
X147530000Y-123317000D03*
D46*
X144380000Y-129317000D03*
X157880000Y-129317000D03*
%TD*%
D47*
%TO.C,U1*%
X142793500Y-83125000D03*
X142793500Y-84375000D03*
X142793500Y-85625000D03*
X142793500Y-86875000D03*
X145206500Y-86875000D03*
X145206500Y-85625000D03*
X145206500Y-84375000D03*
X145206500Y-83125000D03*
%TD*%
D28*
%TO.C,H1*%
X106280000Y-101833600D03*
D27*
X102155000Y-101833600D03*
X103353185Y-98906785D03*
X103353185Y-104760415D03*
X106280000Y-97708600D03*
X109206815Y-98906785D03*
X110405000Y-101833600D03*
X109206815Y-104760415D03*
X106280000Y-105958600D03*
%TD*%
D48*
%TO.C,J5*%
X135144000Y-107162600D03*
D49*
X137144000Y-107162600D03*
%TD*%
D20*
%TO.C,R18*%
X147302000Y-81344000D03*
X147302000Y-82994000D03*
%TD*%
D50*
%TO.C,TP1*%
X171704000Y-115570000D03*
%TD*%
D19*
%TO.C,R23*%
X203948800Y-76479400D03*
X202298800Y-76479400D03*
%TD*%
D51*
%TO.C,U4*%
X199707500Y-89236801D03*
X199707500Y-87636601D03*
X199707500Y-86036401D03*
X199707500Y-84436201D03*
X199707500Y-82836001D03*
X199707500Y-81235801D03*
X199707500Y-79635601D03*
X199707500Y-78035401D03*
X199707500Y-76435201D03*
X199707500Y-74835001D03*
X183680100Y-74835001D03*
X183680100Y-76435201D03*
X183680100Y-78035401D03*
X183680100Y-79635601D03*
X183680100Y-81235801D03*
X183680100Y-82836001D03*
X183680100Y-84436201D03*
X183680100Y-86036401D03*
X183680100Y-87636601D03*
X183680100Y-89236801D03*
%TD*%
D52*
%TO.C,D2*%
X112649510Y-42961067D03*
X113661900Y-44167587D03*
%TD*%
D53*
%TO.C,R19*%
X147302000Y-86169000D03*
X147302000Y-84519000D03*
%TD*%
D17*
%TO.C,R13*%
X152787091Y-115300719D03*
X154437091Y-115300719D03*
%TD*%
D19*
%TO.C,R11*%
X169100000Y-117729000D03*
X167450000Y-117729000D03*
%TD*%
D54*
%TO.C,C5*%
X118760560Y-49158484D03*
X117764240Y-47971116D03*
%TD*%
D25*
%TO.C,J8*%
X173000000Y-97790000D03*
X173000000Y-77470000D03*
D26*
X170300000Y-76200000D03*
X170300000Y-78740000D03*
X170300000Y-81280000D03*
X170300000Y-83820000D03*
X170300000Y-86360000D03*
X170300000Y-88900000D03*
X170300000Y-91440000D03*
X170300000Y-93980000D03*
X170300000Y-96520000D03*
X170300000Y-99060000D03*
X175700000Y-76200000D03*
X175700000Y-78740000D03*
X175700000Y-81280000D03*
X175700000Y-83820000D03*
X175700000Y-86360000D03*
X175700000Y-88900000D03*
X175700000Y-91440000D03*
X175700000Y-93980000D03*
X175700000Y-96520000D03*
X175700000Y-99060000D03*
%TD*%
D27*
%TO.C,H6*%
X195453000Y-97708600D03*
X191328000Y-101833600D03*
X198379815Y-104760415D03*
X195453000Y-105958600D03*
X192526185Y-104760415D03*
X192526185Y-98906785D03*
X198379815Y-98906785D03*
X199578000Y-101833600D03*
D28*
X195453000Y-101833600D03*
%TD*%
D20*
%TO.C,R9*%
X146939000Y-43181000D03*
X146939000Y-44831000D03*
%TD*%
D55*
%TO.C,C10*%
X146347690Y-110781320D03*
X146347690Y-107831320D03*
%TD*%
D56*
%TO.C,D4*%
X133550807Y-104270956D03*
X135125807Y-104270956D03*
%TD*%
D19*
%TO.C,R16*%
X138493000Y-104241600D03*
X136843000Y-104241600D03*
%TD*%
D43*
%TO.C,C12*%
X158787801Y-94716600D03*
X160337801Y-94716600D03*
%TD*%
D20*
%TO.C,R8*%
X149098000Y-43181000D03*
X149098000Y-44831000D03*
%TD*%
D18*
%TO.C,C14*%
X201993800Y-89228400D03*
X201993800Y-87678400D03*
%TD*%
D57*
%TO.C,M1*%
X150100000Y-109299240D03*
X152800020Y-111300760D03*
X150100000Y-111300760D03*
X150100000Y-110300000D03*
X152800020Y-109299240D03*
X152800020Y-110300000D03*
%TD*%
D17*
%TO.C,R1*%
X138722600Y-55981600D03*
X140372600Y-55981600D03*
%TD*%
D43*
%TO.C,C9*%
X150652693Y-107934720D03*
X152202693Y-107934720D03*
%TD*%
D28*
%TO.C,H5*%
X132398000Y-127951700D03*
D27*
X128273000Y-127951700D03*
X129471185Y-130878515D03*
X132398000Y-123826700D03*
X136523000Y-127951700D03*
X135324815Y-130878515D03*
X132398000Y-132076700D03*
X129471185Y-125024885D03*
X135324815Y-125024885D03*
%TD*%
D34*
%TO.C,C6*%
X142944089Y-107831322D03*
X142944089Y-110781322D03*
%TD*%
D58*
%TO.C,D1*%
X163767100Y-72872600D03*
X162192100Y-72872600D03*
%TD*%
D59*
%TO.C,U7*%
X162527600Y-80839200D03*
X162527600Y-79589200D03*
X162527600Y-78339200D03*
X162527600Y-77089200D03*
X160377600Y-77089200D03*
X160377600Y-78339200D03*
X160377600Y-79589200D03*
X160377600Y-80839200D03*
%TD*%
D18*
%TO.C,C16*%
X202093800Y-84428400D03*
X202093800Y-82878400D03*
%TD*%
D20*
%TO.C,R26*%
X158648400Y-77889600D03*
X158648400Y-79539600D03*
%TD*%
D60*
%TO.C,BT1*%
X180295895Y-121049705D03*
X189629705Y-111715895D03*
D61*
X184962800Y-116382800D03*
%TD*%
D30*
%TO.C,C1*%
X140322600Y-52400200D03*
X138772600Y-52400200D03*
%TD*%
D62*
%TO.C,J14*%
X113796827Y-114716319D03*
X115211041Y-116130532D03*
X116625254Y-117544746D03*
X118039468Y-118958959D03*
X119453681Y-120373173D03*
D63*
X117049518Y-126100738D03*
X108069262Y-117120482D03*
%TD*%
D19*
%TO.C,R24*%
X203948800Y-74828399D03*
X202298800Y-74828399D03*
%TD*%
D64*
%TO.C,R3*%
X114074500Y-41735213D03*
X115135100Y-42999187D03*
%TD*%
D19*
%TO.C,R27*%
X162089600Y-82714600D03*
X160439600Y-82714600D03*
%TD*%
D20*
%TO.C,R6*%
X153543000Y-43181000D03*
X153543000Y-44831000D03*
%TD*%
D43*
%TO.C,C13*%
X158787800Y-96367600D03*
X160337800Y-96367600D03*
%TD*%
D65*
%TO.C,J1*%
X148660000Y-29665500D03*
X149760000Y-29665500D03*
X150860000Y-29665500D03*
X151960000Y-29665500D03*
X153060000Y-29665500D03*
X154160000Y-29665500D03*
X155260000Y-29665500D03*
D66*
X156310000Y-29665500D03*
D67*
X146025000Y-35815500D03*
X146025000Y-39515500D03*
D68*
X157520000Y-30015500D03*
D69*
X155495000Y-40490500D03*
X149525000Y-40490500D03*
D70*
X146200000Y-29790500D03*
%TD*%
D33*
%TO.C,FB1*%
X205393800Y-87665900D03*
X205393800Y-89240900D03*
%TD*%
D29*
%TO.C,SW2*%
X170038200Y-67322600D03*
X170038200Y-59372600D03*
X174538200Y-67322600D03*
X174538200Y-59372600D03*
%TD*%
D27*
%TO.C,H7*%
X135324815Y-35843185D03*
X136523000Y-38770000D03*
X129471185Y-41696815D03*
X135324815Y-41696815D03*
X129471185Y-35843185D03*
X128273000Y-38770000D03*
D28*
X132398000Y-38770000D03*
D27*
X132398000Y-42895000D03*
X132398000Y-34645000D03*
%TD*%
D56*
%TO.C,D6*%
X183794300Y-92862400D03*
X185369300Y-92862400D03*
%TD*%
D27*
%TO.C,H4*%
X195453000Y-69022000D03*
X195453000Y-60772000D03*
X191328000Y-64897000D03*
X199578000Y-64897000D03*
X192526185Y-67823815D03*
D28*
X195453000Y-64897000D03*
D27*
X198379815Y-61970185D03*
X192526185Y-61970185D03*
X198379815Y-67823815D03*
%TD*%
D71*
%TO.C,L1*%
X152609289Y-103565919D03*
X147909289Y-103565919D03*
%TD*%
D25*
%TO.C,J10*%
X173000000Y-77470000D03*
X173000000Y-97790000D03*
%TD*%
%TO.C,J9*%
X127500000Y-97790000D03*
X127500000Y-77470000D03*
%TD*%
M02*
